<svg width="360" height="340" viewBox="0 0 360 340" fill="none" xmlns="http://www.w3.org/2000/svg">
<g clip-path="url(#clip0_2068_7463)">
<rect width="360" height="340" fill="white"/>
<path d="M-49.5463 737.096C124.45 737.096 265.502 596.044 265.502 422.048C265.502 248.052 124.45 107 -49.5463 107C-223.542 107 -364.594 248.052 -364.594 422.048C-364.594 596.044 -223.542 737.096 -49.5463 737.096Z" fill="#3C6BB4"/>
<g style="mix-blend-mode:multiply">
<path d="M-245.933 639.743C-86.2859 639.743 43.1337 510.323 43.1337 350.676C43.1337 191.029 -86.2859 61.6093 -245.933 61.6093C-405.58 61.6093 -535 191.029 -535 350.676C-535 510.323 -405.58 639.743 -245.933 639.743Z" fill="#3C6BB4"/>
</g>
<g style="mix-blend-mode:multiply">
<path d="M161.13 696.251C321.362 696.251 451.255 566.357 451.255 406.125C451.255 245.893 321.362 116 161.13 116C0.898285 116 -128.995 245.893 -128.995 406.125C-128.995 566.357 0.898285 696.251 161.13 696.251Z" fill="#3C6BB4"/>
</g>
<g style="mix-blend-mode:multiply">
<path d="M-203.221 713.679C-50.7022 713.679 72.9384 590.039 72.9384 437.52C72.9384 285.002 -50.7022 161.361 -203.221 161.361C-355.739 161.361 -479.38 285.002 -479.38 437.52C-479.38 590.039 -355.739 713.679 -203.221 713.679Z" fill="#3C6BB4"/>
</g>
<g opacity="0.6">
<path d="M63.0914 116.91C62.9186 115.512 62.5571 114.144 62.0228 112.84C61.8814 112.337 61.5513 111.929 61.0956 111.693C60.797 111.614 60.467 111.614 60.1684 111.693L55.4068 112.416C55.0139 112.431 54.621 112.589 54.3224 112.84C53.7095 113.5 54.3224 114.537 54.291 115.449C54.2753 116.454 53.3638 117.287 52.3895 117.554C51.3994 117.759 50.3622 117.743 49.3722 117.523L42.709 116.486C44.6734 115.857 46.4177 114.694 47.7535 113.123C48.6336 112.086 49.0893 110.153 47.8321 109.65C47.4549 109.54 47.0621 109.508 46.6692 109.556C43.6519 109.571 41.2789 107.057 38.4502 106.004C34.7414 104.7 30.6084 105.925 28.2197 109.053L31.7713 109.226C32.1013 109.21 32.4313 109.288 32.7142 109.477C33.4842 110.121 32.5256 111.347 32.6356 112.337C32.7771 113.641 34.5057 113.909 35.8101 114.05C37.1144 114.191 38.7645 115.244 38.1359 116.392C31.5984 118.639 24.9509 111.991 18.0835 112.809C16.3391 113.013 14.7047 113.704 13.0075 114.129C2.63554 116.753 -8.06642 109.76 -18.6584 111.237C-21.0156 111.646 -23.3258 112.243 -25.573 113.06C-27.0188 113.531 -28.5117 114.05 -29.5646 115.134C-30.6176 116.219 -31.0104 118.105 -30.0204 119.252C-32.7548 119.472 -35.5049 119.22 -38.1451 118.482C-36.6836 119.283 -35.7878 120.823 -35.8035 122.489C-40.078 123.18 -44.2268 124.453 -48.1556 126.261C-47.417 127.486 -46.5683 128.618 -45.594 129.671L-51 133.144C-49.1771 133.6 -48.2341 136.098 -49.2871 137.654C-47.4012 136.805 -46.2226 134.637 -44.1954 134.197C-42.8753 133.914 -41.5238 134.448 -40.2666 134.967C-39.0094 135.485 -37.6265 135.973 -36.3221 135.595C-35.0178 135.218 -34.0592 133.521 -34.8921 132.452C-29.3289 130.834 -23.5772 129.922 -17.7783 129.781C-17.3383 129.718 -16.8826 129.812 -16.4897 130.032C-15.7354 130.551 -15.9397 131.682 -15.9711 132.61C-16.0025 133.537 -15.2954 134.731 -14.4782 134.322C-15.4368 135.155 -14.6196 136.727 -13.6924 137.607C-12.7652 138.487 -11.6495 139.697 -12.2152 140.844C-12.3566 141.143 -12.6081 141.379 -12.7495 141.677C-13.1738 142.573 -12.4981 143.61 -11.7123 144.192C-10.9266 144.773 -9.96795 145.197 -9.41792 146.014C-8.86789 146.832 -9.11933 148.262 -10.0937 148.372L-12.8752 144.852C-13.8181 145.842 -14.4782 147.067 -14.7453 148.403C-11.8066 150.808 -11.3509 155.711 -13.8181 158.602C-15.0753 160.079 -16.8669 160.975 -18.4384 162.138C-20.0099 163.301 -21.4557 164.935 -21.44 166.884C-21.44 170.247 -21.7071 173.359 -20.4499 176.47C-18.1241 182.206 -15.4525 187.801 -12.4352 193.207C-11.6337 194.621 -10.6123 196.177 -9.00933 196.428C-11.0366 191.478 -12.8752 186.465 -14.4939 181.358C-13.441 181.358 -12.2152 181.452 -11.5866 182.301C-11.068 183.008 -11.178 183.982 -11.0209 184.846C-10.8166 185.679 -10.4865 186.481 -10.0151 187.204L-0.318892 204.49C0.482576 205.92 1.40977 207.46 2.94985 208.042C3.9399 208.419 5.07138 208.34 5.96714 208.875C6.67431 209.299 7.16148 210.038 7.88438 210.431C9.92734 211.546 12.7718 209.409 14.6733 210.745C15.2233 211.122 15.569 211.735 16.0719 212.159C17.832 213.684 20.7236 212.662 22.7665 213.809C24.0866 214.548 24.7624 216.009 25.4538 217.345C27.2139 220.677 30.0426 223.946 33.7985 224.213C34.9772 224.291 36.1872 224.071 37.3344 224.338C38.4816 224.606 39.6288 225.611 39.4402 226.774C39.1259 228.786 40.116 230.97 39.8488 232.982C39.3617 236.643 34.16 238.262 33.72 241.924C33.6257 242.725 33.7828 243.558 33.5785 244.344C33.3428 245.302 32.6199 246.088 32.3685 247.047C31.8813 248.87 33.1856 250.661 34.6157 251.887C36.0458 253.113 37.743 254.166 38.5288 255.863C39.3617 257.67 38.9531 259.776 39.2202 261.74C39.8017 266.03 43.5104 269.221 47.3449 271.279C48.5078 271.908 49.765 272.505 50.5036 273.589C51.4937 275.004 51.3837 276.874 51.7137 278.571C52.5152 282.72 56.0039 286.13 56.1139 290.357C56.1768 293.359 54.511 296.078 53.5209 298.906C51.6351 304.391 52.2323 310.441 55.1553 315.454C55.8939 316.712 56.7897 317.906 57.324 319.257C58.2669 321.693 57.9526 324.459 58.8326 326.926C59.9798 330.179 63.1386 332.867 62.8243 336.308C64.2543 339.278 67.4131 340.74 70.5875 341.62L76.2764 343.207C77.3607 343.506 78.5079 343.82 79.6237 343.6C80.7395 343.38 81.7924 342.453 81.7609 341.321C78.9637 340.693 76.0878 340.017 73.7777 338.32C71.4676 336.623 69.896 333.59 70.7761 330.855C71.1847 329.598 72.049 328.136 71.2161 327.084C70.7447 326.486 69.896 326.329 69.3617 325.779C68.5288 324.931 68.8274 323.501 69.4089 322.479C69.9903 321.458 70.8547 320.53 71.1061 319.367C71.3575 318.032 70.7447 316.696 69.5818 316.004C70.6347 315.612 71.5933 314.983 72.3947 314.197C73.1333 313.349 73.4791 312.044 72.8976 311.086C74.6263 311.306 76.6692 311.416 77.8164 310.096C78.7279 309.043 78.6651 307.455 78.3036 306.104C77.9422 304.752 77.345 303.448 77.3136 302.049C81.3052 302.238 85.3125 302.097 89.2884 301.641C88.707 299.708 87.4026 298.074 85.6425 297.083C87.4341 296.785 89.0842 294.632 89.6499 292.888C90.2156 291.143 90.0742 289.257 89.7285 287.482C89.587 287.026 89.5713 286.539 89.6813 286.067C89.8856 285.423 90.5142 285.03 91.1114 284.684L100.038 279.561C100.572 279.294 101.059 278.933 101.468 278.508C102.411 277.408 102.269 275.742 101.782 274.391C101.295 273.039 100.54 271.751 100.352 270.321C99.8018 266.046 104.391 262.966 105.931 258.943C106.544 257.356 106.654 255.643 106.779 253.946C106.905 252.123 106.921 250.017 105.522 248.854C104.186 247.738 102.096 247.99 100.698 246.937C99.409 245.978 98.9689 244.124 97.5703 243.354C96.2974 242.646 94.7101 243.102 93.2958 242.772C90.8128 242.191 89.2413 239.315 86.6955 239.063C85.2654 238.906 83.631 239.613 82.4681 238.781C81.4309 238.042 81.3838 236.565 81.1952 235.308C80.488 231.316 77.3607 228.173 73.3691 227.45C71.8919 227.214 70.2732 227.309 69.016 226.491C67.7431 225.674 67.1616 224.134 66.1559 222.987C64.5372 221.148 62.0071 220.504 59.6184 219.938L49.9379 217.66C48.225 217.251 46.0091 217.047 45.082 218.54C44.8148 219.105 44.6105 219.718 44.5005 220.347C43.7933 222.673 41.6718 224.276 39.2359 224.307C38.4188 222.924 37.1144 221.903 35.5743 221.463C34.6 221.195 33.5471 221.164 32.6042 220.755C30.5298 219.75 29.6812 217.251 30.6869 215.177C30.7184 215.114 30.7498 215.035 30.7969 214.972C31.9441 212.929 31.5827 210.368 29.9169 208.733C28.2668 207.256 25.8938 206.895 23.678 207.052C23.0966 205.795 24.0709 204.365 25.1081 203.453C26.1453 202.542 27.4182 201.63 27.6382 200.263C27.9997 198.11 25.2495 196.476 23.1594 197.12C21.0693 197.764 19.7335 199.791 18.8535 201.787C18.3506 202.934 17.9263 204.145 17.1248 205.103C16.3234 206.062 15.0504 206.769 13.8247 206.455C12.1117 206.015 11.436 203.972 11.0588 202.243C10.5559 199.917 10.0373 197.56 10.1473 195.187C10.2574 192.814 11.0588 190.362 12.8032 188.759C15.6633 186.135 20.0478 186.402 23.898 186.811C22.9866 185.789 23.2066 184.061 24.1809 183.086C25.2181 182.159 26.6639 181.813 28.0154 182.143C29.1783 182.379 30.2155 183.008 30.9855 183.919C32.0856 185.255 32.3999 187.062 33.2171 188.571C34.0343 190.08 35.9043 191.384 37.4287 190.567C38.7488 189.86 38.9531 188.037 38.6231 186.591C38.293 185.145 37.6016 183.715 37.7116 182.238C37.9316 179.393 40.886 177.696 43.479 176.517C46.072 175.339 49.0421 173.783 49.4507 170.954C49.4507 170.404 49.5765 169.854 49.765 169.336C50.0479 168.88 50.4565 168.503 50.928 168.236C58.5026 163.222 66.203 158.162 74.862 155.428C75.3177 155.286 75.3649 155.444 75.8206 155.334C76.4649 154.956 76.0406 153.935 75.4278 153.526C74.8149 153.118 73.982 152.788 73.8248 152.065C73.7148 151.53 74.0291 151.012 74.1077 150.462C74.312 149.142 72.7248 147.916 71.499 148.45C70.8075 147.523 72.1747 146.455 73.2905 146.156C76.6378 145.229 80.0637 144.679 83.521 144.49C83.9139 144.427 84.3225 144.49 84.6839 144.694C85.2654 145.103 85.1868 146.014 84.7782 146.596C84.3696 147.177 83.7253 147.539 83.2067 148.01C82.0595 149.126 81.6352 150.776 82.0909 152.316C83.8982 153.228 85.8626 154.186 87.8584 153.856C89.8542 153.526 91.63 151.279 90.6871 149.488C89.8071 147.822 87.1826 147.445 86.7269 145.606C86.1926 143.453 89.2413 141.551 88.5498 139.446C88.2513 138.518 87.3398 137.984 86.6326 137.324C84.9354 135.658 84.4325 133.112 85.3754 130.928C83.0496 131.337 80.6609 130.598 78.9951 128.932C77.4707 127.392 76.2449 124.956 74.0763 125.035C72.0804 125.098 70.3675 127.424 68.5131 126.716C68.0574 126.544 67.5702 126.182 67.1302 126.402C66.8316 126.591 66.643 126.905 66.6116 127.266C66.1401 129.529 66.9573 132.107 65.7158 134.055C64.3801 136.177 61.2685 136.475 59.6498 138.393C58.7698 139.43 58.424 140.829 57.6069 141.929C56.7897 143.029 55.0767 143.72 54.1024 142.761C55.0924 140.734 54.5424 138.298 52.7823 136.884C51.8709 136.287 50.9122 135.815 49.8751 135.47C48.7279 134.983 47.6435 134.385 46.6377 133.662C46.1349 133.364 45.7263 132.924 45.4434 132.39C45.2234 131.729 45.2548 131.022 45.522 130.378C46.5277 127.486 49.0421 125.412 52.0752 124.956C53.3638 124.783 54.8724 124.846 55.7368 123.856C56.1925 123.338 56.4282 122.536 57.0883 122.332C57.5126 122.253 57.9526 122.3 58.3298 122.489L63.17 124.186C63.7043 124.438 64.3015 124.532 64.8987 124.469C65.5115 124.391 65.9516 123.856 65.9044 123.243C65.7473 122.442 64.5215 122.049 64.6315 121.248C64.6944 120.98 64.8358 120.745 65.0401 120.572C68.576 116.816 73.6048 114.82 78.7594 115.15C79.3722 116.156 78.3979 117.334 77.5964 118.199C76.795 119.063 76.1506 120.588 77.125 121.248C77.5179 121.452 77.9736 121.546 78.4136 121.53C79.608 121.688 80.7552 122.049 81.8395 122.568C83.5053 123.29 85.1554 124.092 86.7583 124.956C86.6169 123.903 86.4754 122.788 86.884 121.782C87.2926 120.776 88.4241 120.006 89.4299 120.399C90.3885 120.776 90.8914 122.049 91.9129 122.159C93.2801 122.316 93.8144 120.289 93.2486 119.047C92.6829 117.806 91.5514 116.753 91.4571 115.386C91.3943 114.459 91.74 113.311 91.0014 112.746C90.7342 112.573 90.4356 112.479 90.1371 112.447L71.6876 109.053C70.5875 108.848 69.016 109.006 68.9531 110.121C68.9217 110.75 69.4875 111.363 69.236 111.929C68.9689 112.541 68.1045 112.479 67.4916 112.699C66.5173 113.029 66.0301 114.191 66.1244 115.213C66.2973 116.234 66.6902 117.193 67.2873 118.042C66.093 117.539 64.27 117.444 63.0757 116.942L63.0914 116.91Z" fill="white" fill-opacity="0.19"/>
<path d="M48.3664 101.258C45.9777 100.472 43.3533 101.258 41.7975 103.222C41.4989 103.615 41.2318 104.181 41.4989 104.605C41.8604 105.234 42.7876 104.982 43.479 104.762C44.4848 104.401 45.5848 104.37 46.6063 104.684C47.2506 104.904 47.8321 105.297 48.4764 105.501C49.1207 105.768 49.8593 105.658 50.3936 105.218C50.8337 104.762 50.8651 104.055 50.8651 103.427C50.928 103.002 50.7865 102.562 50.5037 102.248C50.2522 102.091 49.9536 102.012 49.655 101.997C48.9793 101.871 48.3821 101.525 47.9421 100.991" fill="white" fill-opacity="0.19"/>
<path d="M55.0138 99.4036C54.1809 99.3565 53.458 100.001 53.4109 100.834C53.4109 101.069 53.4423 101.321 53.5366 101.541C54.3381 101.761 55.171 101.808 55.9882 101.698C56.8211 101.572 57.4968 100.944 57.7011 100.127C56.7268 100.299 55.7367 100.127 54.9038 99.5922" fill="white" fill-opacity="0.19"/>
<path d="M77.3451 96.3077C75.1607 96.7635 73.0549 97.4864 71.0433 98.445C72.992 99.1993 74.2178 101.117 74.0606 103.207C73.9821 103.6 73.982 103.992 74.0921 104.385C74.3278 104.951 74.9878 105.155 75.585 105.297C76.6379 105.627 77.7537 105.753 78.8537 105.721C79.9852 105.658 80.991 105.045 81.5567 104.071C81.7139 103.615 81.9024 103.175 82.1225 102.735C83.5368 100.582 87.7327 103.191 89.2414 101.101C89.7757 100.362 89.7285 99.2622 90.42 98.6807C90.7815 98.4293 91.1901 98.2721 91.6301 98.2093C94.6788 97.5964 97.7589 97.1721 100.855 96.8892C102.316 96.7635 104.234 96.2292 104.249 94.7677C98.7176 93.6833 92.9816 94.4534 87.937 96.9678C86.1141 97.8793 83.7097 99.7965 81.9653 98.5864C81.3053 98.1307 81.3367 96.9206 80.4409 96.402C79.5138 95.8834 78.3037 96.0877 77.3136 96.3077H77.3451Z" fill="white" fill-opacity="0.19"/>
<path d="M95.433 99.6865L98.026 100.189C96.1716 100.111 94.6001 101.541 94.5215 103.395C94.5215 103.537 94.5215 103.678 94.5215 103.835C96.9573 104.652 99.5975 103.851 102.159 103.961C104.721 104.071 107.706 105.894 107.266 108.424C107.141 109.194 106.701 109.948 106.921 110.687C107.078 111.206 107.534 111.567 107.801 112.054C108.335 113.044 107.911 114.301 107.235 115.213C106.559 116.124 105.648 116.847 105.051 117.806C103.573 120.195 104.406 123.291 105.286 125.962C105.538 126.968 106.009 127.911 106.669 128.728C107.974 130.127 110.111 130.237 112.028 130.268C113.411 130.284 115.014 130.221 115.894 129.137C117.041 127.722 116.24 125.538 116.994 123.888C117.686 122.395 119.43 121.75 121.017 121.295C123.924 120.462 126.879 119.755 129.629 118.482C133.039 116.91 136.229 114.474 139.969 114.27C141.022 114.207 142.091 114.333 143.112 114.05C144.134 113.767 145.093 112.887 145.014 111.834C144.951 110.938 144.197 110.278 143.6 109.603C143.002 108.927 142.547 107.89 143.081 107.167L152.903 105.328C152.212 103.427 151.661 100.928 153.264 99.7022C153.846 99.2622 154.616 99.0736 155.103 98.5393C155.936 97.6278 155.512 96.0406 154.553 95.2548C153.594 94.4691 152.274 94.2962 151.049 94.1862C146.743 93.8248 142.405 94.0605 138.099 94.2962C129.66 94.7519 121.237 95.2234 112.798 95.6791C111.101 95.7734 109.137 95.632 107.581 96.2134C106.261 96.7006 105.318 97.5964 103.825 97.9264C101.043 98.5078 97.9788 98.115 95.4644 99.6708L95.433 99.6865Z" fill="white" fill-opacity="0.19"/>
<path d="M141.934 120.21C141.667 120.163 141.4 120.226 141.179 120.383C141.038 120.54 140.944 120.745 140.928 120.965C140.755 121.923 140.959 122.898 141.494 123.715C142.044 124.532 142.987 124.988 143.961 124.893C145.124 124.752 145.988 123.746 147.073 123.259C148.723 122.505 155.763 121.342 150.891 118.717C149.21 117.806 148.126 118.607 146.805 119.205C145.297 119.975 143.615 120.32 141.934 120.195V120.21Z" fill="white" fill-opacity="0.19"/>
<path d="M184.538 98.2093C183.972 98.445 183.5 98.8536 183.186 99.3879C182.888 99.9536 183.092 100.645 183.626 100.959C183.846 101.038 184.066 101.069 184.286 101.069L186.596 101.132C187.571 101.164 188.796 101.368 189.064 102.311C189.252 103.018 188.828 103.914 189.346 104.417C189.566 104.59 189.849 104.7 190.132 104.731C190.886 104.92 191.688 104.951 192.458 104.81C194.139 104.354 193.259 103.332 193.778 102.421C194.595 101.022 194.454 101.871 195.868 101.069C196.921 100.472 198.288 99.4036 197.408 97.895C195.884 95.2705 186.769 97.0935 184.506 98.2093H184.538Z" fill="white" fill-opacity="0.19"/>
<path d="M230.127 96.8892L228.791 97.062C225.774 97.4706 222.725 97.8792 219.818 98.775C221.075 99.2779 222.395 99.5922 223.747 99.7336C224.485 99.765 225.224 99.875 225.947 100.048C227.235 100.425 228.524 101.415 229.766 100.912C230.536 100.598 230.787 99.7965 231.431 99.3722C231.871 99.0736 233.537 98.6021 233.726 98.3035C235.234 95.9148 231.29 96.7163 230.127 96.8735V96.8892Z" fill="white" fill-opacity="0.19"/>
<path d="M236.02 102.987C234.229 103.992 232.563 105.202 231.07 106.617C230.441 107.214 229.797 107.953 229.86 108.801C229.938 109.948 231.164 110.608 232.217 111.064L236.507 112.887C237.026 112.149 236.554 111.143 236.02 110.42C235.486 109.697 234.841 108.864 235.077 108C235.344 107.01 236.554 106.68 237.56 106.507C239.21 106.224 243.658 106.255 243.123 103.6C242.495 100.472 237.686 102.075 236.036 103.002L236.02 102.987Z" fill="white" fill-opacity="0.19"/>
<path d="M235.156 280.095C234.747 281.274 234.716 282.673 235.407 283.694C236.193 284.857 237.78 285.281 239.163 284.983C240.53 284.621 241.74 283.836 242.652 282.751C243.469 281.84 244.145 280.803 244.648 279.687C245.355 277.942 245.858 276.12 246.125 274.249L247.461 267.256C247.759 265.7 247.743 260.907 244.868 262.463C244.082 262.887 242.275 266.25 241.442 267.209C239.965 268.922 239.76 270.604 238.99 272.678C238.016 275.287 236.051 277.471 235.14 280.08L235.156 280.095Z" fill="white" fill-opacity="0.19"/>
<path d="M388.88 266.989C389.148 265.48 390.656 264.16 390.185 262.699C389.855 261.693 388.692 261.19 387.639 261.175C386.586 261.159 385.549 261.457 384.48 261.489C383.789 261.457 383.097 261.457 382.421 261.52C380.331 261.866 379.027 264.066 377.047 264.852C375.853 265.323 374.501 265.229 373.244 265.559C370.399 266.298 368.608 268.985 366.628 271.154C363.422 274.627 359.242 277.062 354.637 278.147C353.019 278.524 351.29 278.76 350.001 279.813C348.304 281.196 347.88 283.584 347.503 285.737C346.465 291.709 344.863 297.555 342.741 303.228L349.483 304.092C350.771 304.249 352.091 304.422 353.333 304.029C354.229 303.684 355.077 303.244 355.863 302.678C358.865 300.808 362.228 299.598 365.716 299.126C367.477 298.891 369.331 298.844 370.981 299.488C372.631 300.132 374.061 301.625 374.203 303.401C375.664 302.945 377.251 303.338 378.336 304.407C379.389 305.475 380.08 306.858 380.316 308.351C380.489 309.278 380.677 310.378 381.526 310.771C382.217 311.086 383.019 310.74 383.789 310.693C386.382 310.488 388.535 313.506 391.081 312.987C393.815 312.437 394.475 308.335 397.147 307.518C398.671 307.047 400.824 307.613 401.562 306.198C402.207 304.941 400.918 303.495 401.06 302.097C401.217 300.368 403.26 299.629 404.831 298.891C410.253 296.345 412.83 289.053 410.206 283.663C408.65 280.473 405.586 277.958 405.02 274.454C404.58 271.751 405.648 268.608 403.935 266.486C403.055 265.402 401.578 264.805 401.06 263.516C400.73 262.699 400.871 261.787 400.682 260.923C400.494 260.059 399.755 259.179 398.907 259.399C396.455 260.043 395.669 267.633 394.349 269.472C392.353 272.269 388.252 270.431 388.88 266.973V266.989Z" fill="white" fill-opacity="0.19"/>
<path d="M343.511 251.777C342.678 251.541 341.751 251.305 340.949 251.651C340.148 251.997 339.676 253.16 340.321 253.757C345.365 253.553 350.441 253.364 355.454 254.056C361.222 254.841 366.926 256.806 372.71 256.224C369.409 255.25 366.046 254.464 362.636 253.883L356.963 252.798C355.439 252.484 353.899 252.248 352.359 252.091C349.121 251.824 346.67 252.673 343.495 251.793L343.511 251.777Z" fill="white" fill-opacity="0.19"/>
<path d="M348.556 234.192C348.131 234.16 347.613 234.129 347.408 234.49C347.204 234.836 347.44 235.292 347.33 235.669C347.173 236.203 346.481 236.329 345.947 236.266C345.413 236.203 344.815 236.015 344.328 236.282C343.825 236.628 343.605 237.256 343.794 237.838C343.998 238.403 344.313 238.906 344.721 239.331C345.428 240.226 346.246 241.043 347.141 241.766C348.87 243.039 351.227 243.668 352.312 245.522C352.469 245.884 352.704 246.198 353.003 246.449C353.522 246.779 354.213 246.528 354.779 246.277L356.759 245.365C357.12 245.239 357.435 245.019 357.686 244.737C358.142 244.124 357.859 243.244 357.482 242.584C357.105 241.924 356.617 241.232 356.696 240.478C356.837 239.126 358.582 238.608 359.289 237.46C360.012 236.298 359.54 234.789 359.619 233.422C359.713 231.819 360.719 229.744 359.1 228.55C357.733 227.529 356.413 228.471 355.423 229.587C353.349 231.944 352.359 234.506 348.54 234.192H348.556Z" fill="white" fill-opacity="0.19"/>
<path d="M360.578 210.305C361.253 211.593 362.668 212.364 363.406 213.636C364.208 215.004 364.114 216.764 364.978 218.084C365.874 219.435 367.649 220.158 368.152 221.714C368.702 223.395 367.461 225.454 368.451 226.931C369.19 227.89 370.557 228.079 371.515 227.34C371.562 227.309 371.61 227.261 371.657 227.214C372.521 226.271 372.474 224.826 371.563 223.93C370.981 223.395 370.148 223.175 369.661 222.547C369.41 222.185 369.237 221.777 369.174 221.337C368.907 220.095 368.954 218.791 369.3 217.565C369.425 217.251 369.457 216.905 369.394 216.575C369.174 215.931 368.309 215.899 367.712 215.601C366.345 214.925 366.377 212.992 366.612 211.483C366.455 212.489 362.872 210.776 362.495 210.211C361.756 209.079 362.149 206.895 362.008 205.637C360.405 206.407 359.776 208.718 360.609 210.289L360.578 210.305Z" fill="white" fill-opacity="0.19"/>
<path d="M324.48 230.2C323.82 229.461 322.83 228.691 321.934 229.131C321.259 229.477 321.07 230.404 321.337 231.112C321.667 231.803 322.154 232.4 322.783 232.825C324.637 234.349 326.617 235.716 328.236 237.492C331.128 240.666 332.652 244.941 335.779 247.864C336.408 248.54 337.241 248.995 338.152 249.152C339.064 249.231 340.085 248.65 340.195 247.738C340.29 246.984 339.755 246.308 339.252 245.758C338.027 244.438 336.706 243.212 335.544 241.829C335.009 241.295 334.679 240.603 334.601 239.849C334.601 239.111 335.276 238.325 335.999 238.513C335.119 238.293 334.475 236.832 333.186 236.549C332.102 236.313 331.851 236.989 330.562 236.439C328.11 235.386 326.193 232.117 324.48 230.2V230.2Z" fill="white" fill-opacity="0.19"/>
<path d="M198.367 179.33C198.539 180.242 198.712 181.216 198.398 182.096C198.084 182.976 197.157 183.715 196.261 183.448C195.569 183.243 195.161 182.536 194.674 182.002C191.923 179.048 185.747 180.761 184.05 177.099C183.359 175.606 183.83 173.814 183.359 172.243C182.746 170.373 180.939 169.147 178.974 169.257C178.094 169.383 177.246 169.634 176.444 170.011C171.085 172.164 165.459 173.563 159.723 174.192C158.639 174.254 157.555 174.459 156.517 174.773C154.16 175.622 152.557 177.806 151.41 180.038C150.263 182.269 149.414 184.674 147.89 186.654C146.271 188.728 144.008 190.19 141.902 191.761C141.085 192.28 140.409 192.987 139.922 193.835C139.467 194.778 139.498 195.863 139.529 196.916L139.954 209.598C140.017 211.232 140.079 212.914 140.802 214.375C141.714 216.198 143.521 217.392 144.763 218.995C146.035 220.645 146.695 222.688 146.648 224.778C146.617 225.611 146.538 226.617 147.198 227.136C147.591 227.387 148.063 227.529 148.534 227.513L165.679 228.911C168.697 229.163 172.044 229.572 174.008 231.866C174.935 232.95 175.69 234.506 177.104 234.632C177.717 234.679 178.314 234.427 178.927 234.38C180.467 234.255 181.819 235.433 182.683 236.722C183.972 238.686 184.569 241.028 184.349 243.369C184.207 244.831 183.752 246.261 183.657 247.738C183.28 253.348 188.026 258.204 188.12 263.83C188.168 267.131 186.612 270.226 185.072 273.149C187.539 276.89 185.512 281.871 186.502 286.24C187.429 290.389 190.886 293.626 191.751 297.791C192.143 299.692 192.175 302.034 193.841 303.024C194.579 303.385 195.396 303.542 196.214 303.495C201.148 303.558 206.036 302.442 210.451 300.258C212.526 299.221 214.679 297.696 215.04 295.402C215.339 293.548 214.396 291.489 215.355 289.886C216.47 287.984 219.362 288.142 221.012 286.68C223.699 284.323 221.609 279.813 222.694 276.402C223.668 273.338 227.031 271.719 228.697 268.969C229.357 267.791 229.828 266.518 230.095 265.182C230.865 262.023 231.337 258.786 231.51 255.533C231.557 253.553 231.698 251.588 231.95 249.624C233.741 238.466 244.773 230.986 248.356 220.268C248.702 219.247 248.859 217.88 247.948 217.298C247.413 217.047 246.8 216.984 246.219 217.109L238.314 218.1C237.34 218.225 236.287 218.335 235.391 217.927C234.496 217.518 233.851 216.371 234.323 215.507C235.658 213.071 232.908 210.006 231.683 207.508C228.382 200.797 224.438 194.417 219.928 188.445C219.645 188.131 219.456 187.738 219.409 187.329L221.656 187.408C220.902 184.689 219.645 181.719 217.005 180.729C215.512 180.163 213.877 180.368 212.29 180.446C207.748 180.698 202.877 180.006 198.367 179.315V179.33Z" fill="white" fill-opacity="0.19"/>
<path d="M212.275 118.105C213.469 119.362 214.805 120.713 216.518 120.933C219.551 121.326 221.751 118.183 223.134 115.449C223.244 116.894 224.485 117.995 225.931 117.932C226.685 117.806 227.392 117.523 228.037 117.114C234.056 113.83 240.813 112.086 247.665 112.039C247.523 110.954 248.231 109.948 249.284 109.713C250.682 109.43 251.939 110.64 252.615 111.897C253.291 113.154 253.715 114.6 254.784 115.543C255.852 116.486 257.927 116.439 258.351 115.087C258.76 113.783 257.393 112.667 256.277 111.897C255.161 111.127 253.951 109.713 254.721 108.565C260.488 107.293 266.287 106.004 272.196 105.752C273.202 105.784 274.208 105.611 275.135 105.25C276.031 104.81 276.754 103.804 276.502 102.829C273.862 103.442 271.128 102.405 269.556 100.205C277.744 99.5293 286.45 98.9479 293.71 102.814C294.574 104.684 290.143 106.24 291.337 107.921C291.714 108.455 292.469 108.518 293.129 108.534C298.173 108.628 303.249 108.723 308.231 107.953C310.054 107.67 311.892 107.277 313.715 107.513C316.764 107.89 319.373 109.917 322.359 110.577C323.584 110.844 324.952 110.86 325.973 110.153C326.995 109.446 327.45 107.827 326.602 106.9C329.43 104.134 334.114 104.825 337.838 106.145C341.562 107.465 345.083 109.603 349.027 109.901C351.856 110.106 354.716 109.351 357.513 109.838C359.273 110.137 360.908 110.923 362.621 111.41C365.858 112.321 369.3 112.133 372.663 112.164C381.259 112.274 389.761 113.971 397.744 117.146C398.781 117.492 399.74 118.042 400.525 118.796C401.264 119.597 401.641 120.823 401.154 121.798L392.904 120.588C393.674 122.112 395.685 122.379 397.32 122.913C398.954 123.448 400.651 125.239 399.661 126.654C397.885 126.088 396.282 127.864 395.387 129.482C394.491 131.101 393.406 133.065 391.552 133.16C389.886 133.254 387.89 131.84 386.806 133.097C388.299 134.983 389.588 137.025 390.625 139.194C391.694 141.426 392.464 144.223 391.018 146.235C390.798 146.596 390.452 146.863 390.043 146.989C388.865 147.287 388.095 145.842 387.246 144.962C386.178 143.862 384.559 143.547 383.129 143.029C381.699 142.51 380.159 141.489 380.049 139.964C379.986 139.006 380.489 138.126 380.85 137.245C381.479 135.768 381.746 134.15 381.652 132.547C381.573 131.258 381.212 129.907 380.284 129.011C379.357 128.115 377.754 127.816 376.764 128.649C376.293 129.042 375.931 129.655 375.318 129.671C374.25 129.718 373.433 127.848 372.584 128.492C372.678 129.168 372.537 129.859 372.191 130.441C369.63 132.672 365.701 131.73 362.401 132.515C360.829 132.971 359.336 133.615 357.938 134.464C357.419 134.684 356.979 135.061 356.665 135.533C356.256 136.334 356.712 137.356 357.435 137.89C358.205 138.361 359.069 138.66 359.965 138.754C363.988 139.508 368.074 140.703 371.248 143.28C374.423 145.857 376.513 150.132 375.507 154.108L367.571 146.533C367.869 149.723 368.042 152.913 368.089 156.104C368.137 156.732 368.058 157.361 367.838 157.942C367.272 159.184 365.732 159.608 364.396 159.891C362.935 160.174 361.976 161.572 362.243 163.05C362.259 163.144 362.291 163.254 362.322 163.348C362.794 164.904 363.988 166.114 365.072 167.324C366.157 168.534 367.241 169.901 367.382 171.52C367.524 173.139 366.298 174.962 364.679 174.852C363.454 174.773 362.542 173.657 362.008 172.542C361.473 171.426 361.175 170.184 360.389 169.241C358 166.366 352.642 167.607 350.504 164.543C349.389 165.8 349.011 167.544 349.499 169.147C350.489 168.518 351.856 169.1 352.61 170.011C353.364 170.923 353.71 172.07 354.292 173.092C355.077 174.459 356.35 175.685 356.46 177.256C356.429 177.853 356.445 178.45 356.492 179.048C356.68 180.006 357.498 180.698 358.063 181.499C359.368 183.354 359.305 185.915 358.456 188.037C357.608 190.158 356.099 191.918 354.606 193.631C351.997 196.617 349.326 199.587 346.23 202.07C345.35 202.777 344.407 203.469 343.857 204.459C343.307 205.449 343.275 206.832 344.124 207.586C343.511 207.618 342.427 207.916 341.83 207.948C341.61 205.512 341.578 203.076 341.688 200.64C339.299 199.493 336.722 202.573 337.037 205.197C337.351 207.838 339.252 209.943 340.604 212.222C341.594 213.888 342.333 215.837 342.002 217.738C341.672 219.64 339.96 221.415 338.027 221.243C334.946 220.975 333.673 216.559 330.625 216.057C330.358 215.994 330.075 216.025 329.823 216.135C329.368 216.387 329.289 216.984 329.273 217.502C329.148 220.032 329.038 222.657 330.028 224.983C331.473 228.393 335.198 231.253 334.412 234.868C330.2 232.903 328.016 228.189 327.026 223.647C326.036 219.105 325.863 214.344 324.087 210.069C322.736 211.798 319.891 210.368 318.65 208.545C317.471 206.816 316.764 204.82 315.617 203.076C314.47 201.332 312.741 199.76 310.651 199.666C308.467 199.571 306.565 201.064 304.915 202.479C303.548 203.642 302.133 204.852 301.332 206.47C300.169 208.812 300.468 211.578 300.42 214.186C300.358 217.015 299.76 220.001 297.827 222.06C295.894 224.118 292.343 224.857 290.221 222.987C289.106 222.013 288.571 220.551 288.1 219.168C285.79 212.442 283.872 205.575 282.348 198.629C281.987 200.216 280.604 202.259 279.268 201.332C278.969 201.08 278.734 200.766 278.561 200.42C276.078 196.208 271.473 193.694 266.837 192.17C262.201 190.645 257.298 189.954 252.709 188.288C250.132 187.361 247.681 186.135 245.386 184.642C244.192 186.387 244.066 188.649 245.041 190.535C246.062 192.343 248.372 193.38 250.336 192.751C251.358 192.421 252.222 191.714 253.228 191.368C254.234 191.022 255.601 191.195 256.041 192.17C256.465 193.097 255.821 194.228 256.135 195.203C256.623 196.68 258.854 196.806 259.64 198.157C260.221 199.163 259.75 200.499 258.917 201.3C258.084 202.102 256.968 202.557 255.962 203.123C252.662 204.962 250.321 208.089 247.445 210.509C244.569 212.929 240.499 214.721 237.073 213.165C237.89 209.032 232.956 205.983 232.044 201.866C231.746 200.514 231.903 199.069 231.478 197.749C230.866 195.831 229.168 194.511 227.77 193.065C224.359 189.467 222.537 184.658 222.725 179.692C222.804 177.995 223.118 176.25 222.725 174.6C222.332 172.95 220.965 171.331 219.252 171.41C215.355 171.583 210.452 171.866 208.424 168.55C207.702 167.371 207.371 165.627 208.424 164.731C209.163 164.087 210.263 164.15 211.237 164.244L220.006 165.108C222.049 165.313 224.281 165.47 226.025 164.401C227.77 163.333 228.54 160.488 226.921 159.215C225.727 158.288 223.605 158.351 223.244 156.874C222.961 155.648 224.312 154.265 223.574 153.243C223.055 152.505 221.877 152.709 221.169 153.259C220.462 153.809 219.944 154.611 219.142 155.019C217.743 155.742 216.078 155.051 214.569 154.579C213.06 154.108 211.049 154.061 210.31 155.459C209.493 157.015 211.033 159.074 210.232 160.645C209.163 162.72 205.533 161.541 204.024 163.317C202.296 165.36 205.203 168.408 204.621 171.017C203.113 171.772 201.321 171.662 199.891 170.75C198.492 169.807 197.738 168.157 197.911 166.476C198.052 165.297 198.665 164.103 198.257 162.987C197.927 162.091 197.031 161.557 196.182 161.085L187.665 156.371C186.879 157.832 187.869 159.655 189.126 160.755C190.384 161.855 191.939 162.688 192.772 164.134C193.857 166.224 193.118 168.786 191.106 169.98C190.855 170.153 190.556 170.2 190.258 170.121C189.991 169.964 189.786 169.697 189.708 169.383C188.199 165.533 185.952 161.745 182.337 159.734C178.723 157.722 173.537 158.131 171.18 161.525C170.614 162.327 170.237 163.238 169.75 164.103C167.141 168.613 161.578 170.75 156.36 170.624C155.857 170.656 155.339 170.53 154.899 170.279C154.05 169.697 154.097 168.456 154.223 167.45L154.773 163.144C154.883 162.28 155.04 161.321 155.732 160.787C156.69 160.032 158.089 160.504 159.315 160.488C161.216 160.394 162.866 159.121 163.448 157.298C163.951 155.459 163.401 153.511 162.018 152.206C161.452 151.672 160.698 151.012 160.996 150.305C161.232 149.912 161.641 149.629 162.096 149.566C164.296 148.922 166.638 148.765 168.807 147.995C170.975 147.225 173.081 145.684 173.6 143.453C173.757 142.761 173.836 141.929 174.448 141.599C174.763 141.473 175.093 141.394 175.423 141.394C177.859 141.049 179.634 138.896 179.509 136.428C180.546 135.705 182.007 136.24 183.013 137.01C184.019 137.78 184.915 138.801 186.14 139.131C188.419 139.76 190.635 137.733 192.992 137.717C193.982 137.717 195.019 138.063 195.947 137.717C196.89 137.371 197.455 136.428 198.194 135.737C198.933 135.045 200.205 134.621 200.865 135.36L200.3 131.117C202.626 131.714 205.109 131.258 207.089 129.891L199.687 127.392C199.435 127.329 199.184 127.204 198.995 127.015C198.461 126.434 198.995 125.538 199.435 124.878C200.488 123.306 200.661 120.713 198.932 119.927C197.754 119.393 196.402 120.037 195.287 120.666L189.881 123.683C189.708 124.705 190.965 125.286 191.735 125.978C193.024 127.125 193.134 129.089 191.986 130.378C191.405 131.038 190.572 131.415 189.692 131.431C190.415 132.374 190.666 133.584 190.384 134.731L186.753 134.998C186.345 135.077 185.92 134.998 185.575 134.763C185.182 134.417 185.245 133.82 185.15 133.301C184.93 132.06 183.72 131.195 182.495 130.975C181.269 130.755 179.996 131.038 178.77 131.321C178.251 131.509 177.686 131.494 177.167 131.289C176.869 131.101 176.649 130.818 176.539 130.488C176.004 129.184 176.507 127.659 177.371 126.544C178.236 125.428 179.414 124.626 180.467 123.699C182.997 121.483 184.852 118.592 185.842 115.37C187.838 114.537 189.912 113.39 191.908 112.557C194.988 111.001 198.445 110.326 201.887 110.624L208.66 110.75C210.672 110.781 212.73 110.844 214.585 111.599C216.439 112.353 218.073 114.019 218.199 116.014C218.278 116.47 218.121 116.942 217.759 117.256C217.492 117.397 217.193 117.46 216.895 117.445C215.025 117.507 214.223 117.979 212.353 118.042L212.275 118.105Z" fill="white" fill-opacity="0.19"/>
<path d="M158.278 139.336C158.812 138.817 159.032 138.063 158.812 137.34C157.492 136.837 156.015 137.12 154.977 138.063C154.569 138.471 154.223 138.927 153.956 139.43C153.06 140.876 152.274 142.62 152.793 144.239C152.872 144.6 153.107 144.899 153.422 145.087C153.657 145.182 153.909 145.213 154.145 145.197C155.119 145.197 156.109 145.134 157.083 145.024C157.68 144.946 158.372 144.789 158.608 144.223C158.906 143.484 158.183 142.667 158.388 141.897C158.529 141.551 158.749 141.253 159.016 141.001C159.283 140.75 159.425 140.373 159.378 140.011C159.283 139.65 158.749 139.446 158.545 139.76" fill="white" fill-opacity="0.19"/>
<path d="M163.369 132.751C162.505 132.547 161.593 132.5 160.713 132.578C160.509 132.578 160.321 132.61 160.148 132.704C159.975 132.83 159.849 133.002 159.802 133.207C159.409 134.464 160.053 135.8 161.263 136.287C161.578 136.365 161.892 136.475 162.175 136.648C162.929 137.23 162.442 138.424 162.584 139.367C162.741 140.42 163.762 141.316 163.574 142.369C163.432 143.201 162.536 143.862 162.678 144.679C162.819 145.543 163.935 145.81 164.815 145.873C165.318 145.967 165.852 145.904 166.324 145.7C166.795 145.37 167.141 144.883 167.282 144.317C167.644 143.249 167.801 142.117 167.722 140.986C167.722 140.467 167.597 139.964 167.345 139.508C167.078 139.147 166.779 138.817 166.465 138.503C164.784 136.538 166.559 133.615 163.369 132.72V132.751Z" fill="white" fill-opacity="0.19"/>
<g style="mix-blend-mode:screen">
<path d="M68.9847 273.951C65.0088 273.951 61.7557 270.714 61.7557 266.722C61.7557 262.73 64.993 259.493 68.9847 259.493C72.9763 259.493 76.2136 262.73 76.2136 266.722C76.2136 270.714 72.9763 273.951 68.9847 273.951Z" fill="white"/>
</g>
<g style="mix-blend-mode:screen">
<path d="M68.9844 272.395C72.109 272.395 74.6419 269.862 74.6419 266.738C74.6419 263.613 72.109 261.08 68.9844 261.08C65.8599 261.08 63.327 263.613 63.327 266.738C63.327 269.862 65.8599 272.395 68.9844 272.395Z" fill="#3C6BB4"/>
</g>
<g style="mix-blend-mode:screen" opacity="0.8">
<path d="M384.606 286.633C383.317 285.894 255.13 212.851 200.425 226.664C200.064 226.711 170.598 229.917 139.844 236.486C99.2675 245.161 74.9092 255.69 69.3932 266.942L68.8746 267.995L68.5132 266.879C68.4189 266.581 59.037 237.319 48.115 207.948C29.9012 159.011 21.5722 147.46 17.7849 146.376L18.0521 145.464C31.237 149.236 65.0716 253.081 69.0789 265.528C84.8568 238.451 195.491 226.24 200.253 225.737C255.271 211.829 383.773 285.077 385.062 285.816L384.59 286.633H384.606Z" fill="#6466AF"/>
</g>
<g style="mix-blend-mode:screen" opacity="0.8">
<path d="M384.465 286.507C361.882 256.57 328.582 230.577 285.46 209.236C269.572 201.379 252.332 194.134 233.883 187.549C215.795 207.099 200.975 226.114 200.677 226.491L200.394 226.853L200.017 226.586C199.781 226.413 182.117 213.605 157.162 198.314C115.721 219.137 78.1308 243.605 69.3932 266.895L68.5132 266.565C76.1664 246.167 105.585 223.034 156.093 197.654C148.503 193.018 140.268 188.178 131.656 183.401C106.937 169.681 75.4907 154.532 48.1307 148.529C29.4926 146.8 18.1621 146.407 17.8949 146.392L17.8478 145.449C26.8525 144.239 37.2245 145.182 48.225 147.586C75.3178 150.085 117.827 155.381 164.281 166.287C177.387 169.367 190.085 172.714 202.327 176.329C238.66 160.818 271.112 149.503 281.688 145.904C282.945 145.386 284.155 144.977 285.318 144.679L285.585 145.59C285.444 145.637 284.203 146.046 282.018 146.785C268.88 152.206 250.509 169.619 234.559 186.795C252.914 193.348 270.043 200.561 285.853 208.372C329.1 229.776 362.526 255.863 385.188 285.926L384.433 286.491L384.465 286.507ZM158.183 197.827C180.955 211.798 197.565 223.647 200.221 225.564C202.578 222.547 216.282 205.135 232.83 187.188C223.071 183.731 212.95 180.462 202.531 177.366C188.026 183.574 172.877 190.457 158.168 197.811L158.183 197.827ZM54.7782 149.173C80.6609 155.978 109.278 169.901 132.143 182.583C140.944 187.471 149.367 192.437 157.115 197.167C165.837 192.798 175.171 188.382 185.135 183.888C190.462 181.483 195.758 179.158 200.991 176.926C189.111 173.437 176.806 170.2 164.108 167.23C121.332 157.172 81.8867 151.908 54.7782 149.189V149.173ZM203.899 176.8C214.098 179.833 223.982 183.055 233.537 186.449C247.256 171.63 262.846 156.591 275.528 149.063C261.431 153.998 234.166 163.898 203.899 176.8V176.8ZM26.0668 145.873C29.2098 146.062 33.2014 146.329 37.9473 146.706C33.83 146.156 29.8698 145.826 26.0668 145.873Z" fill="#6466AF"/>
</g>
<g style="mix-blend-mode:screen">
<path d="M17.9263 153.149C13.9504 153.149 10.6974 149.912 10.6974 145.92C10.6974 141.929 13.9347 138.691 17.9263 138.691C21.918 138.691 25.1553 141.929 25.1553 145.92C25.1553 149.912 21.918 153.149 17.9263 153.149Z" fill="white"/>
</g>
<g style="mix-blend-mode:screen">
<path d="M17.9263 151.578C21.0509 151.578 23.5838 149.045 23.5838 145.92C23.5838 142.796 21.0509 140.263 17.9263 140.263C14.8018 140.263 12.2689 142.796 12.2689 145.92C12.2689 149.045 14.8018 151.578 17.9263 151.578Z" fill="#3C6BB4"/>
</g>
<g style="mix-blend-mode:screen">
<path d="M285.46 152.363C281.484 152.363 278.231 149.126 278.231 145.134C278.231 141.143 281.468 137.906 285.46 137.906C289.451 137.906 292.689 141.143 292.689 145.134C292.689 149.126 289.451 152.363 285.46 152.363Z" fill="white"/>
</g>
<g style="mix-blend-mode:screen">
<path d="M285.46 150.792C288.584 150.792 291.117 148.259 291.117 145.134C291.117 142.01 288.584 139.477 285.46 139.477C282.335 139.477 279.802 142.01 279.802 145.134C279.802 148.259 282.335 150.792 285.46 150.792Z" fill="#3C6BB4"/>
</g>
<g style="mix-blend-mode:screen">
<path d="M200.315 233.422C196.339 233.422 193.086 230.184 193.086 226.193C193.086 222.201 196.324 218.964 200.315 218.964C204.307 218.964 207.544 222.201 207.544 226.193C207.544 230.184 204.307 233.422 200.315 233.422Z" fill="white"/>
</g>
<g style="mix-blend-mode:screen">
<path d="M200.315 231.866C203.44 231.866 205.973 229.333 205.973 226.208C205.973 223.084 203.44 220.551 200.315 220.551C197.191 220.551 194.658 223.084 194.658 226.208C194.658 229.333 197.191 231.866 200.315 231.866Z" fill="#3C6BB4"/>
</g>
</g>
<rect x="166" y="189" width="83.556" height="12.7792" transform="rotate(-13.0683 166 189)" fill="#26D7B2"/>
<circle cx="45.0878" cy="285.088" r="20.0878" fill="#FFE525"/>
<path d="M33.9265 46H36.7981L33.7493 33.5918H30.9131L22.8833 46H25.9499L27.5629 43.3411H33.3416L33.9265 46ZM28.8924 41.1608L31.8171 36.3748L32.863 41.1608H28.8924ZM42.6786 46.1418C44.6284 46.1418 46.2947 45.291 47.2164 43.8552L45.1779 42.5789C44.6107 43.4652 43.7953 43.8552 42.8381 43.8552C41.42 43.8552 40.6224 43.022 40.6224 41.728C40.6224 39.8845 41.8277 38.6083 43.4585 38.6083C44.4334 38.6083 45.1602 39.016 45.5856 39.9023L47.9255 38.7324C47.1987 37.1902 45.6743 36.3216 43.6358 36.3216C40.2324 36.3216 37.8217 38.6969 37.8217 41.8699C37.8217 44.4401 39.7183 46.1418 42.6786 46.1418ZM52.5986 38.8033H54.9739L55.3993 36.6762H53.024L53.4849 34.3541H50.7197L50.2588 36.6762H48.7875L48.3621 38.8033H49.8334L49.0711 42.6498C49.018 42.9334 48.9825 43.217 48.9825 43.4829C48.9825 45.1492 50.1879 46.1418 51.9605 46.1418C52.7936 46.1418 53.6444 46 54.3357 45.5746L53.928 43.607C53.5735 43.8197 53.1836 43.9438 52.8113 43.9438C52.12 43.9438 51.8009 43.607 51.8009 43.022C51.8009 42.898 51.8009 42.7739 51.8364 42.6321L52.5986 38.8033ZM59.3446 35.134C60.4436 35.134 61.1881 34.4427 61.1881 33.4323C61.1881 32.6524 60.5322 32.0497 59.5573 32.0497C58.4583 32.0497 57.7315 32.7764 57.7315 33.6982C57.7315 34.4959 58.3696 35.134 59.3446 35.134ZM55.6044 46H58.3519L60.2486 36.4634H57.5011L55.6044 46ZM69.3385 36.4634L65.3325 42.9689L63.9499 36.4634H61.2201L63.3294 46H66.1833L72.1038 36.4634H69.3385ZM81.2505 40.5227C81.2505 37.9701 79.4956 36.3216 76.7127 36.3216C73.3979 36.3216 71.0935 38.6792 71.0935 41.8699C71.0935 44.4578 72.9902 46.1418 75.9682 46.1418C77.4217 46.1418 78.8575 45.7518 79.9565 44.8655L78.8043 43.0398C78.1485 43.607 77.2267 43.9261 76.2518 43.9261C74.6742 43.9261 73.8765 43.2702 73.7879 41.9762H81.091C81.1796 41.5331 81.2505 41.0367 81.2505 40.5227ZM76.5886 38.3956C77.8649 38.3956 78.7157 39.1046 78.7157 40.3631H73.9829C74.3551 39.1755 75.2591 38.3956 76.5886 38.3956ZM81.852 46H84.6172L87.2406 32.8473H84.4754L81.852 46ZM95.6389 36.4634L91.6683 42.9511L90.2502 36.4634H87.4849L89.6829 46.0177L89.5943 46.1773C89.0625 47.0104 88.6017 47.3472 87.8749 47.3472C87.2722 47.3472 86.7404 47.1167 86.3505 46.7622L85.0742 48.7475C85.6237 49.2616 86.6873 49.5806 87.6622 49.5806C89.488 49.5806 90.6224 48.8893 92.0228 46.6381L98.3687 36.4634H95.6389ZM105.74 46.1418C108.488 46.1418 110.544 44.9896 110.544 42.8093C110.544 39.6364 105.51 40.7531 105.51 39.3528C105.51 38.8387 106.077 38.4133 107.353 38.4133C108.24 38.4133 109.285 38.5906 110.172 39.1401L111.164 37.1193C110.296 36.623 108.966 36.3216 107.637 36.3216C104.854 36.3216 102.851 37.527 102.851 39.6718C102.851 42.898 107.903 41.7812 107.903 43.1284C107.903 43.6956 107.335 44.0501 106.042 44.0501C104.836 44.0501 103.542 43.6956 102.727 43.1461L101.663 45.1492C102.461 45.7164 104.056 46.1418 105.74 46.1418ZM120.244 36.4634L119.269 41.3026C118.933 42.9689 117.976 43.7488 116.611 43.7488C115.529 43.7488 115.015 43.217 115.015 42.2598C115.015 42.0471 115.033 41.8167 115.086 41.5685L116.097 36.4634H113.331L112.285 41.7458C112.197 42.1535 112.161 42.5434 112.161 42.898C112.161 45.0073 113.544 46.1418 115.583 46.1418C116.735 46.1418 117.834 45.7696 118.685 44.9719L118.49 46H121.113L123.01 36.4634H120.244ZM130.747 36.3216C129.578 36.3216 128.585 36.7116 127.823 37.4029L128.018 36.4634H125.394L122.806 49.4388H125.571L126.511 44.7237C127.131 45.6987 128.213 46.1418 129.595 46.1418C132.556 46.1418 134.878 43.802 134.878 40.5936C134.878 37.8815 132.963 36.3216 130.747 36.3216ZM129.276 43.8552C127.894 43.8552 127.114 43.0398 127.114 41.7458C127.114 39.8845 128.284 38.6083 129.897 38.6083C131.279 38.6083 132.077 39.4237 132.077 40.7177C132.077 42.5789 130.907 43.8552 129.276 43.8552ZM142.809 36.3216C141.639 36.3216 140.646 36.7116 139.884 37.4029L140.079 36.4634H137.455L134.867 49.4388H137.633L138.572 44.7237C139.193 45.6987 140.274 46.1418 141.657 46.1418C144.617 46.1418 146.939 43.802 146.939 40.5936C146.939 37.8815 145.024 36.3216 142.809 36.3216ZM141.337 43.8552C139.955 43.8552 139.175 43.0398 139.175 41.7458C139.175 39.8845 140.345 38.6083 141.958 38.6083C143.341 38.6083 144.138 39.4237 144.138 40.7177C144.138 42.5789 142.968 43.8552 141.337 43.8552ZM152.601 46.1418C155.969 46.1418 158.362 43.7665 158.362 40.5936C158.362 38.0056 156.483 36.3216 153.558 36.3216C150.208 36.3216 147.797 38.6969 147.797 41.8699C147.797 44.4401 149.694 46.1418 152.601 46.1418ZM152.778 43.8552C151.396 43.8552 150.598 43.0398 150.598 41.7458C150.598 39.8845 151.768 38.6083 153.399 38.6083C154.781 38.6083 155.561 39.4237 155.561 40.7177C155.561 42.5789 154.391 43.8552 152.778 43.8552ZM163.331 37.5979L163.561 36.4634H160.938L159.041 46H161.806L162.728 41.3913C163.082 39.6009 164.128 38.8387 165.759 38.8387C165.989 38.8387 166.149 38.8564 166.397 38.8742L166.893 36.3216C165.351 36.3216 164.181 36.6762 163.331 37.5979ZM171.277 38.8033H173.653L174.078 36.6762H171.703L172.164 34.3541H169.398L168.937 36.6762H167.466L167.041 38.8033H168.512L167.75 42.6498C167.697 42.9334 167.661 43.217 167.661 43.4829C167.661 45.1492 168.867 46.1418 170.639 46.1418C171.472 46.1418 172.323 46 173.014 45.5746L172.607 43.607C172.252 43.8197 171.862 43.9438 171.49 43.9438C170.799 43.9438 170.48 43.607 170.48 43.022C170.48 42.898 170.48 42.7739 170.515 42.6321L171.277 38.8033ZM185.738 46.2127C190.311 46.2127 193.413 43.0043 193.413 38.7678C193.413 35.5771 191.144 33.3791 187.368 33.3791C182.795 33.3791 179.693 36.5875 179.693 40.824C179.693 44.0147 181.962 46.2127 185.738 46.2127ZM185.986 43.7665C183.806 43.7665 182.6 42.508 182.6 40.6645C182.6 38.041 184.32 35.8253 187.12 35.8253C189.301 35.8253 190.506 37.0838 190.506 38.9273C190.506 41.5508 188.787 43.7665 185.986 43.7665ZM201.155 36.3216C199.985 36.3216 198.992 36.7116 198.23 37.4029L198.425 36.4634H195.802L193.214 49.4388H195.979L196.918 44.7237C197.539 45.6987 198.62 46.1418 200.003 46.1418C202.963 46.1418 205.285 43.802 205.285 40.5936C205.285 37.8815 203.371 36.3216 201.155 36.3216ZM199.684 43.8552C198.301 43.8552 197.521 43.0398 197.521 41.7458C197.521 39.8845 198.691 38.6083 200.304 38.6083C201.687 38.6083 202.484 39.4237 202.484 40.7177C202.484 42.5789 201.314 43.8552 199.684 43.8552ZM216.318 40.5227C216.318 37.9701 214.563 36.3216 211.78 36.3216C208.466 36.3216 206.161 38.6792 206.161 41.8699C206.161 44.4578 208.058 46.1418 211.036 46.1418C212.489 46.1418 213.925 45.7518 215.024 44.8655L213.872 43.0398C213.216 43.607 212.294 43.9261 211.319 43.9261C209.742 43.9261 208.944 43.2702 208.855 41.9762H216.159C216.247 41.5331 216.318 41.0367 216.318 40.5227ZM211.656 38.3956C212.932 38.3956 213.783 39.1046 213.783 40.3631H209.05C209.423 39.1755 210.327 38.3956 211.656 38.3956ZM224.364 36.3216C223.195 36.3216 222.096 36.6939 221.227 37.4915L221.44 36.4634H218.816L216.92 46H219.685L220.642 41.1608C220.979 39.4946 221.954 38.7146 223.354 38.7146C224.453 38.7146 224.985 39.2641 224.985 40.2391C224.985 40.4341 224.967 40.6645 224.914 40.8949L223.886 46H226.651L227.715 40.7177C227.803 40.31 227.839 39.92 227.839 39.5655C227.839 37.4561 226.456 36.3216 224.364 36.3216ZM245.398 35.8962L245.877 33.5918H236.5L234.018 46H243.626L244.104 43.6956H237.333L237.9 40.824H243.679L244.122 38.5906H238.361L238.893 35.8962H245.398ZM255.041 32.8473L254.066 37.722C253.446 36.7825 252.364 36.3216 250.982 36.3216C248.039 36.3216 245.717 38.6615 245.717 41.8699C245.717 44.5819 247.614 46.1418 249.83 46.1418C251.017 46.1418 251.992 45.7341 252.754 45.0428L252.559 46H255.183L257.806 32.8473H255.041ZM250.68 43.8552C249.298 43.8552 248.5 43.0398 248.5 41.7458C248.5 39.8845 249.67 38.6083 251.301 38.6083C252.683 38.6083 253.481 39.4237 253.481 40.7177C253.481 42.5789 252.311 43.8552 250.68 43.8552ZM266.321 36.4634L265.347 41.3026C265.01 42.9689 264.053 43.7488 262.688 43.7488C261.606 43.7488 261.092 43.217 261.092 42.2598C261.092 42.0471 261.11 41.8167 261.163 41.5685L262.174 36.4634H259.408L258.363 41.7458C258.274 42.1535 258.238 42.5434 258.238 42.898C258.238 45.0073 259.621 46.1418 261.66 46.1418C262.812 46.1418 263.911 45.7696 264.762 44.9719L264.567 46H267.19L269.087 36.4634H266.321ZM274.609 46.1418C276.559 46.1418 278.225 45.291 279.147 43.8552L277.108 42.5789C276.541 43.4652 275.726 43.8552 274.768 43.8552C273.35 43.8552 272.553 43.022 272.553 41.728C272.553 39.8845 273.758 38.6083 275.389 38.6083C276.364 38.6083 277.09 39.016 277.516 39.9023L279.856 38.7324C279.129 37.1902 277.604 36.3216 275.566 36.3216C272.163 36.3216 269.752 38.6969 269.752 41.8699C269.752 44.4401 271.649 46.1418 274.609 46.1418ZM288.559 36.4634L288.311 37.7574C287.69 36.7648 286.591 36.3216 285.209 36.3216C282.266 36.3216 279.944 38.6615 279.944 41.8699C279.944 44.5819 281.841 46.1418 284.056 46.1418C285.226 46.1418 286.219 45.7518 286.981 45.0605L286.804 46H289.427L291.324 36.4634H288.559ZM284.907 43.8552C283.525 43.8552 282.727 43.0398 282.727 41.7458C282.727 39.8845 283.897 38.6083 285.528 38.6083C286.91 38.6083 287.708 39.4237 287.708 40.7177C287.708 42.5789 286.538 43.8552 284.907 43.8552ZM296.33 38.8033H298.706L299.131 36.6762H296.756L297.217 34.3541H294.451L293.991 36.6762H292.519L292.094 38.8033H293.565L292.803 42.6498C292.75 42.9334 292.714 43.217 292.714 43.4829C292.714 45.1492 293.92 46.1418 295.692 46.1418C296.525 46.1418 297.376 46 298.068 45.5746L297.66 43.607C297.305 43.8197 296.915 43.9438 296.543 43.9438C295.852 43.9438 295.533 43.607 295.533 43.022C295.533 42.898 295.533 42.7739 295.568 42.6321L296.33 38.8033ZM303.076 35.134C304.175 35.134 304.92 34.4427 304.92 33.4323C304.92 32.6524 304.264 32.0497 303.289 32.0497C302.19 32.0497 301.463 32.7764 301.463 33.6982C301.463 34.4959 302.101 35.134 303.076 35.134ZM299.336 46H302.084L303.98 36.4634H301.233L299.336 46ZM309.454 46.1418C312.822 46.1418 315.215 43.7665 315.215 40.5936C315.215 38.0056 313.336 36.3216 310.411 36.3216C307.061 36.3216 304.65 38.6969 304.65 41.8699C304.65 44.4401 306.547 46.1418 309.454 46.1418ZM309.631 43.8552C308.249 43.8552 307.451 43.0398 307.451 41.7458C307.451 39.8845 308.621 38.6083 310.252 38.6083C311.635 38.6083 312.414 39.4237 312.414 40.7177C312.414 42.5789 311.245 43.8552 309.631 43.8552ZM323.339 36.3216C322.169 36.3216 321.07 36.6939 320.201 37.4915L320.414 36.4634H317.791L315.894 46H318.659L319.616 41.1608C319.953 39.4946 320.928 38.7146 322.329 38.7146C323.428 38.7146 323.959 39.2641 323.959 40.2391C323.959 40.4341 323.942 40.6645 323.888 40.8949L322.86 46H325.626L326.689 40.7177C326.778 40.31 326.813 39.92 326.813 39.5655C326.813 37.4561 325.431 36.3216 323.339 36.3216Z" fill="#333333"/>
<path d="M40.716 72.808C42.312 71.968 43.32 70.456 43.32 68.496C43.32 65.444 40.8 63.4 35.9 63.4H26.324V83H36.46C41.612 83 44.3 81.04 44.3 77.652C44.3 75.188 42.9 73.508 40.716 72.808ZM35.34 66.816C37.552 66.816 38.756 67.572 38.756 69.112C38.756 70.652 37.552 71.436 35.34 71.436H30.832V66.816H35.34ZM36.124 79.584H30.832V74.74H36.124C38.476 74.74 39.736 75.524 39.736 77.176C39.736 78.856 38.476 79.584 36.124 79.584ZM62.0822 75.524C62.0822 70.68 58.6662 67.712 54.2422 67.712C49.6502 67.712 46.2062 70.96 46.2062 75.468C46.2062 79.948 49.5942 83.224 54.8022 83.224C57.5182 83.224 59.6182 82.384 61.0182 80.788L58.6942 78.268C57.6582 79.248 56.5102 79.724 54.9142 79.724C52.6182 79.724 51.0222 78.576 50.6022 76.7H61.9982C62.0262 76.336 62.0822 75.86 62.0822 75.524ZM54.2702 71.016C56.2302 71.016 57.6582 72.248 57.9662 74.152H50.5462C50.8542 72.22 52.2822 71.016 54.2702 71.016ZM72.1702 83.224C75.3342 83.224 77.8262 81.824 78.9182 79.416L75.5302 77.568C74.7182 79.024 73.5142 79.64 72.1422 79.64C69.9302 79.64 68.1942 78.1 68.1942 75.468C68.1942 72.836 69.9302 71.296 72.1422 71.296C73.5142 71.296 74.7182 71.94 75.5302 73.368L78.9182 71.548C77.8262 69.084 75.3342 67.712 72.1702 67.712C67.2702 67.712 63.7702 70.932 63.7702 75.468C63.7702 80.004 67.2702 83.224 72.1702 83.224ZM88.3098 83.224C93.0978 83.224 96.5698 80.004 96.5698 75.468C96.5698 70.932 93.0978 67.712 88.3098 67.712C83.5218 67.712 80.0218 70.932 80.0218 75.468C80.0218 80.004 83.5218 83.224 88.3098 83.224ZM88.3098 79.64C86.1258 79.64 84.4458 78.072 84.4458 75.468C84.4458 72.864 86.1258 71.296 88.3098 71.296C90.4938 71.296 92.1458 72.864 92.1458 75.468C92.1458 78.072 90.4938 79.64 88.3098 79.64ZM118.681 67.712C116.413 67.712 114.453 68.636 113.249 70.176C112.185 68.524 110.393 67.712 108.293 67.712C106.361 67.712 104.681 68.384 103.561 69.672V67.936H99.3894V83H103.757V75.44C103.757 72.752 105.129 71.492 107.061 71.492C108.881 71.492 109.917 72.612 109.917 75.048V83H114.285V75.44C114.285 72.752 115.657 71.492 117.617 71.492C119.381 71.492 120.473 72.612 120.473 75.048V83H124.841V74.376C124.841 69.784 122.265 67.712 118.681 67.712ZM143.577 75.524C143.577 70.68 140.161 67.712 135.737 67.712C131.145 67.712 127.701 70.96 127.701 75.468C127.701 79.948 131.089 83.224 136.297 83.224C139.013 83.224 141.113 82.384 142.513 80.788L140.189 78.268C139.153 79.248 138.005 79.724 136.409 79.724C134.113 79.724 132.517 78.576 132.097 76.7H143.493C143.521 76.336 143.577 75.86 143.577 75.524ZM135.765 71.016C137.725 71.016 139.153 72.248 139.461 74.152H132.041C132.349 72.22 133.777 71.016 135.765 71.016ZM160.29 67.712C157.882 67.712 155.446 68.356 153.794 69.532L155.362 72.584C156.454 71.716 158.106 71.184 159.702 71.184C162.054 71.184 163.174 72.276 163.174 74.152H159.702C155.11 74.152 153.234 76 153.234 78.66C153.234 81.264 155.334 83.224 158.862 83.224C161.074 83.224 162.642 82.496 163.454 81.124V83H167.542V74.404C167.542 69.84 164.882 67.712 160.29 67.712ZM159.954 80.284C158.414 80.284 157.49 79.556 157.49 78.464C157.49 77.456 158.134 76.7 160.178 76.7H163.174V78.24C162.67 79.612 161.41 80.284 159.954 80.284ZM180.552 67.712C178.508 67.712 176.744 68.412 175.568 69.7V67.936H171.396V83H175.764V75.552C175.764 72.78 177.276 71.492 179.376 71.492C181.308 71.492 182.428 72.612 182.428 75.048V83H186.796V74.376C186.796 69.784 184.108 67.712 180.552 67.712ZM35.816 116.336C41.976 116.336 46.54 112.052 46.54 106.2C46.54 100.348 41.976 96.064 35.816 96.064C29.628 96.064 25.092 100.376 25.092 106.2C25.092 112.024 29.628 116.336 35.816 116.336ZM35.816 112.472C32.316 112.472 29.684 109.924 29.684 106.2C29.684 102.476 32.316 99.928 35.816 99.928C39.316 99.928 41.948 102.476 41.948 106.2C41.948 109.924 39.316 112.472 35.816 112.472ZM54.357 112.36V107.824H63.457V104.296H54.357V100.04H64.661V96.4H49.849V116H65.025V112.36H54.357ZM81.7235 111.632C80.5755 112.248 79.4275 112.472 78.1955 112.472C74.4435 112.472 71.8395 109.868 71.8395 106.2C71.8395 102.476 74.4435 99.928 78.2515 99.928C80.2395 99.928 81.8915 100.628 83.3195 102.14L86.2315 99.452C84.3275 97.24 81.4715 96.064 78.0275 96.064C71.7835 96.064 67.2475 100.292 67.2475 106.2C67.2475 112.108 71.7835 116.336 77.9435 116.336C80.7435 116.336 83.7115 115.468 85.8675 113.844V105.892H81.7235V111.632ZM89.673 116H94.041V95.224H89.673V116ZM105.163 116.224C109.951 116.224 113.423 113.004 113.423 108.468C113.423 103.932 109.951 100.712 105.163 100.712C100.375 100.712 96.8749 103.932 96.8749 108.468C96.8749 113.004 100.375 116.224 105.163 116.224ZM105.163 112.64C102.979 112.64 101.299 111.072 101.299 108.468C101.299 105.864 102.979 104.296 105.163 104.296C107.347 104.296 108.999 105.864 108.999 108.468C108.999 111.072 107.347 112.64 105.163 112.64ZM125.147 100.712C123.271 100.712 121.731 101.3 120.611 102.532V95.224H116.243V116H120.415V114.264C121.507 115.58 123.131 116.224 125.147 116.224C129.375 116.224 132.651 113.2 132.651 108.468C132.651 103.736 129.375 100.712 125.147 100.712ZM124.391 112.64C122.207 112.64 120.555 111.072 120.555 108.468C120.555 105.864 122.207 104.296 124.391 104.296C126.575 104.296 128.227 105.864 128.227 108.468C128.227 111.072 126.575 112.64 124.391 112.64ZM141.305 100.712C138.897 100.712 136.461 101.356 134.809 102.532L136.377 105.584C137.469 104.716 139.121 104.184 140.717 104.184C143.069 104.184 144.189 105.276 144.189 107.152H140.717C136.125 107.152 134.249 109 134.249 111.66C134.249 114.264 136.349 116.224 139.877 116.224C142.089 116.224 143.657 115.496 144.469 114.124V116H148.557V107.404C148.557 102.84 145.897 100.712 141.305 100.712ZM140.969 113.284C139.429 113.284 138.505 112.556 138.505 111.464C138.505 110.456 139.149 109.7 141.193 109.7H144.189V111.24C143.685 112.612 142.425 113.284 140.969 113.284ZM152.41 116H156.778V95.224H152.41V116ZM190.961 116L190.905 96.4H187.181L179.957 108.58L172.621 96.4H168.869V116H173.125V104.492L178.865 113.928H180.909L186.677 104.24L186.705 116H190.961ZM209.96 108.524C209.96 103.68 206.544 100.712 202.12 100.712C197.528 100.712 194.084 103.96 194.084 108.468C194.084 112.948 197.472 116.224 202.68 116.224C205.396 116.224 207.496 115.384 208.896 113.788L206.572 111.268C205.536 112.248 204.388 112.724 202.792 112.724C200.496 112.724 198.9 111.576 198.48 109.7H209.876C209.904 109.336 209.96 108.86 209.96 108.524ZM202.148 104.016C204.108 104.016 205.536 105.248 205.844 107.152H198.424C198.732 105.22 200.16 104.016 202.148 104.016ZM232.06 100.712C229.792 100.712 227.832 101.636 226.628 103.176C225.564 101.524 223.772 100.712 221.672 100.712C219.74 100.712 218.06 101.384 216.94 102.672V100.936H212.768V116H217.136V108.44C217.136 105.752 218.508 104.492 220.44 104.492C222.26 104.492 223.296 105.612 223.296 108.048V116H227.664V108.44C227.664 105.752 229.036 104.492 230.996 104.492C232.76 104.492 233.852 105.612 233.852 108.048V116H238.22V107.376C238.22 102.784 235.644 100.712 232.06 100.712ZM250.939 100.712C249.063 100.712 247.523 101.3 246.403 102.532V95.224H242.035V116H246.207V114.264C247.299 115.58 248.923 116.224 250.939 116.224C255.167 116.224 258.443 113.2 258.443 108.468C258.443 103.736 255.167 100.712 250.939 100.712ZM250.183 112.64C247.999 112.64 246.347 111.072 246.347 108.468C246.347 105.864 247.999 104.296 250.183 104.296C252.367 104.296 254.019 105.864 254.019 108.468C254.019 111.072 252.367 112.64 250.183 112.64ZM276.023 108.524C276.023 103.68 272.607 100.712 268.183 100.712C263.591 100.712 260.147 103.96 260.147 108.468C260.147 112.948 263.535 116.224 268.743 116.224C271.459 116.224 273.559 115.384 274.959 113.788L272.635 111.268C271.599 112.248 270.451 112.724 268.855 112.724C266.559 112.724 264.963 111.576 264.543 109.7H275.939C275.967 109.336 276.023 108.86 276.023 108.524ZM268.211 104.016C270.171 104.016 271.599 105.248 271.907 107.152H264.487C264.795 105.22 266.223 104.016 268.211 104.016ZM283.003 102.924V100.936H278.831V116H283.199V108.888C283.199 106.004 284.795 104.688 287.203 104.688C287.539 104.688 287.819 104.716 288.183 104.744V100.712C285.859 100.712 284.067 101.468 283.003 102.924Z" fill="#333333"/>
<rect x="26" y="125" width="129" height="8" fill="#26D7B2"/>
<g style="mix-blend-mode:multiply">
<ellipse cx="282" cy="312.5" rx="102" ry="89.5" fill="#3B80F7"/>
</g>
<path d="M283.711 280.296L286.68 277.493C288.487 275.815 288.838 274.671 288.838 273.417C288.838 271.075 286.92 269.6 284.043 269.6C281.719 269.6 279.912 270.54 278.916 271.997L281.092 273.399C281.719 272.532 282.66 272.108 283.766 272.108C285.131 272.108 285.832 272.698 285.832 273.712C285.832 274.339 285.629 275.003 284.486 276.091L279.506 280.794V282.73H289.262V280.296H283.711ZM296.007 274.671H294.956L295.159 272.219H300.544V269.821H292.669L292.005 277.087H295.306C297.648 277.087 298.312 277.751 298.312 278.765C298.312 279.816 297.39 280.443 295.897 280.443C294.55 280.443 293.204 280.019 292.227 279.282L291.047 281.568C292.301 282.453 294.182 282.951 295.97 282.951C299.659 282.951 301.337 280.96 301.337 278.673C301.337 276.386 299.825 274.671 296.007 274.671ZM309.168 282.951C312.358 282.951 314.7 280.536 314.7 276.276C314.7 272.016 312.358 269.6 309.168 269.6C305.996 269.6 303.636 272.016 303.636 276.276C303.636 280.536 305.996 282.951 309.168 282.951ZM309.168 280.425C307.693 280.425 306.66 279.208 306.66 276.276C306.66 273.343 307.693 272.126 309.168 272.126C310.662 272.126 311.694 273.343 311.694 276.276C311.694 279.208 310.662 280.425 309.168 280.425ZM326.513 275.151H323.304V272.016H320.925V275.151H317.735V277.401H320.925V280.536H323.304V277.401H326.513V275.151ZM237.473 294.809L235.057 301.521L232.697 294.809H230.263L227.828 301.521L225.486 294.809H222.775L226.353 304.73H229.119L231.424 298.571L233.656 304.73H236.422L240.018 294.809H237.473ZM246.893 304.878C250.046 304.878 252.333 302.757 252.333 299.769C252.333 296.782 250.046 294.661 246.893 294.661C243.74 294.661 241.434 296.782 241.434 299.769C241.434 302.757 243.74 304.878 246.893 304.878ZM246.893 302.517C245.455 302.517 244.348 301.484 244.348 299.769C244.348 298.054 245.455 297.022 246.893 297.022C248.331 297.022 249.419 298.054 249.419 299.769C249.419 301.484 248.331 302.517 246.893 302.517ZM258.091 296.118V294.809H255.343V304.73H258.22V300.046C258.22 298.147 259.271 297.28 260.857 297.28C261.078 297.28 261.262 297.298 261.502 297.317V294.661C259.972 294.661 258.791 295.159 258.091 296.118ZM264.299 304.73H267.176V291.047H264.299V304.73ZM278.162 291.047V295.86C277.443 295.048 276.41 294.661 275.193 294.661C272.39 294.661 270.232 296.653 270.232 299.769C270.232 302.886 272.39 304.878 275.193 304.878C276.521 304.878 277.572 304.453 278.291 303.587V304.73H281.039V291.047H278.162ZM275.691 302.517C274.252 302.517 273.146 301.484 273.146 299.769C273.146 298.054 274.252 297.022 275.691 297.022C277.111 297.022 278.217 298.054 278.217 299.769C278.217 301.484 277.111 302.517 275.691 302.517ZM298.177 294.809L295.761 301.521L293.4 294.809H290.966L288.532 301.521L286.19 294.809H283.479L287.056 304.73H289.823L292.128 298.571L294.359 304.73H297.125L300.721 294.809H298.177ZM304.584 293.426C305.654 293.426 306.373 292.725 306.373 291.766C306.373 290.881 305.654 290.217 304.584 290.217C303.514 290.217 302.795 290.918 302.795 291.821C302.795 292.725 303.514 293.426 304.584 293.426ZM303.146 304.73H306.022V294.809H303.146V304.73ZM317.008 291.047V295.86C316.289 295.048 315.256 294.661 314.039 294.661C311.236 294.661 309.078 296.653 309.078 299.769C309.078 302.886 311.236 304.878 314.039 304.878C315.367 304.878 316.418 304.453 317.137 303.587V304.73H319.885V291.047H317.008ZM314.537 302.517C313.099 302.517 311.992 301.484 311.992 299.769C311.992 298.054 313.099 297.022 314.537 297.022C315.957 297.022 317.063 298.054 317.063 299.769C317.063 301.484 315.957 302.517 314.537 302.517ZM333.353 299.806C333.353 296.616 331.103 294.661 328.189 294.661C325.165 294.661 322.897 296.8 322.897 299.769C322.897 302.72 325.128 304.878 328.558 304.878C330.347 304.878 331.73 304.324 332.652 303.273L331.121 301.614C330.439 302.259 329.683 302.572 328.632 302.572C327.12 302.572 326.068 301.816 325.792 300.581H333.297C333.316 300.341 333.353 300.028 333.353 299.806ZM328.208 296.837C329.499 296.837 330.439 297.649 330.642 298.903H325.755C325.958 297.63 326.898 296.837 328.208 296.837Z" fill="white"/>
<path d="M371.671 157.728L378.475 192.792L347.23 210.098L321.116 185.73L336.221 153.364L371.671 157.728Z" fill="#FF5547"/>
</g>
<defs>
<clipPath id="clip0_2068_7463">
<rect width="360" height="340" fill="white"/>
</clipPath>
</defs>
</svg>
