<svg width="1280" height="206" viewBox="0 0 1280 206" fill="none" xmlns="http://www.w3.org/2000/svg">
<g clip-path="url(#clip0_2012_7451)">
<rect width="1280" height="206" fill="white"/>
<path d="M870.454 666.32C1044.45 666.32 1185.5 525.268 1185.5 351.272C1185.5 177.276 1044.45 36.224 870.454 36.224C696.457 36.224 555.406 177.276 555.406 351.272C555.406 525.268 696.457 666.32 870.454 666.32Z" fill="#3C6BB4"/>
<g style="mix-blend-mode:multiply">
<path d="M674.067 639.743C833.714 639.743 963.134 510.323 963.134 350.676C963.134 191.029 833.714 61.6093 674.067 61.6093C514.42 61.6093 385 191.029 385 350.676C385 510.323 514.42 639.743 674.067 639.743Z" fill="#3C6BB4"/>
</g>
<g style="mix-blend-mode:multiply">
<path d="M1081.13 686.917C1241.36 686.917 1371.26 557.024 1371.26 396.792C1371.26 236.56 1241.36 106.667 1081.13 106.667C920.898 106.667 791.005 236.56 791.005 396.792C791.005 557.024 920.898 686.917 1081.13 686.917Z" fill="#3C6BB4"/>
</g>
<g style="mix-blend-mode:multiply">
<path d="M716.779 713.679C869.298 713.679 992.938 590.039 992.938 437.52C992.938 285.002 869.298 161.361 716.779 161.361C564.261 161.361 440.62 285.002 440.62 437.52C440.62 590.039 564.261 713.679 716.779 713.679Z" fill="#3C6BB4"/>
</g>
<g opacity="0.6">
<path d="M642.615 -12.5467C642.371 -14.528 641.859 -16.4647 641.102 -18.3123C640.901 -19.0247 640.434 -19.6035 639.788 -19.9374C639.365 -20.0487 638.898 -20.0487 638.475 -19.9374L631.73 -18.9134C631.173 -18.8911 630.617 -18.6685 630.194 -18.3123C629.326 -17.3774 630.194 -15.9081 630.149 -14.617C630.127 -13.1923 628.836 -12.0125 627.456 -11.634C626.053 -11.3446 624.584 -11.3669 623.182 -11.6785L613.743 -13.1478C616.525 -14.0382 618.996 -15.6855 620.889 -17.9116C622.135 -19.3809 622.781 -22.119 621 -22.8313C620.466 -22.9872 619.909 -23.0317 619.353 -22.9649C615.079 -22.9426 611.717 -26.5044 607.71 -27.9959C602.456 -29.8436 596.602 -28.1072 593.218 -23.6773L598.249 -23.4324C598.717 -23.4547 599.184 -23.3433 599.585 -23.0762C600.676 -22.1635 599.318 -20.4271 599.473 -19.0247C599.674 -17.177 602.123 -16.7986 603.97 -16.5982C605.818 -16.3979 608.155 -14.9064 607.265 -13.2813C598.004 -10.098 588.588 -19.5144 578.86 -18.3569C576.389 -18.0675 574.074 -17.088 571.669 -16.4869C556.977 -12.7693 541.817 -22.6755 526.813 -20.583C523.474 -20.0042 520.202 -19.1583 517.018 -18.0007C514.97 -17.3329 512.856 -16.5982 511.364 -15.0622C509.873 -13.5262 509.316 -10.8549 510.719 -9.22982C506.845 -8.91817 502.949 -9.27435 499.21 -10.3206C501.28 -9.1853 502.549 -7.00371 502.526 -4.64404C496.471 -3.66455 490.595 -1.8614 485.029 0.69862C486.076 2.43498 487.278 4.03778 488.658 5.52927L481 10.449C483.582 11.0945 484.918 14.6341 483.426 16.8379C486.098 15.6358 487.767 12.5638 490.639 11.9405C492.509 11.5398 494.423 12.2966 496.204 13.0313C497.985 13.7659 499.944 14.456 501.792 13.9217C503.64 13.3874 504.997 10.9832 503.818 9.46948C511.698 7.17659 519.846 5.88545 528.06 5.6851C528.683 5.59606 529.329 5.72962 529.885 6.04128C530.954 6.77589 530.664 8.37869 530.62 9.69209C530.575 11.0055 531.577 12.6973 532.735 12.1186C531.377 13.2984 532.534 15.5245 533.848 16.7711C535.161 18.0177 536.742 19.7318 535.94 21.3569C535.74 21.7799 535.384 22.1138 535.183 22.5367C534.582 23.8056 535.54 25.2749 536.653 26.0985C537.766 26.9222 539.124 27.5232 539.903 28.6808C540.682 29.8384 540.326 31.8641 538.946 32.02L535.005 27.0335C533.67 28.4359 532.735 30.1723 532.356 32.0645C536.519 35.4704 537.165 42.4159 533.67 46.5119C531.889 48.6045 529.351 49.8733 527.125 51.5207C524.899 53.168 522.851 55.4831 522.873 58.2435C522.873 63.0074 522.495 67.4151 524.276 71.8228C527.57 79.9481 531.355 87.873 535.629 95.5308C536.764 97.5343 538.211 99.7382 540.482 100.094C537.61 93.0821 535.005 85.9808 532.712 78.746C534.204 78.746 535.94 78.8795 536.831 80.0816C537.565 81.0834 537.41 82.4636 537.632 83.6879C537.922 84.8678 538.389 86.0031 539.057 87.0271L552.792 111.514C553.927 113.54 555.241 115.722 557.422 116.545C558.825 117.08 560.428 116.968 561.696 117.725C562.698 118.326 563.388 119.372 564.412 119.929C567.306 121.51 571.335 118.482 574.029 120.374C574.808 120.908 575.298 121.777 576.01 122.378C578.504 124.537 582.6 123.09 585.494 124.715C587.363 125.761 588.321 127.832 589.3 129.724C591.793 134.443 595.8 139.073 601.121 139.452C602.79 139.563 604.504 139.252 606.13 139.63C607.755 140.008 609.38 141.433 609.113 143.08C608.667 145.93 610.07 149.024 609.691 151.874C609.001 157.06 601.633 159.353 601.009 164.54C600.876 165.675 601.099 166.855 600.809 167.968C600.475 169.326 599.451 170.439 599.095 171.797C598.405 174.38 600.253 176.917 602.278 178.654C604.304 180.39 606.708 181.882 607.821 184.286C609.001 186.846 608.422 189.829 608.801 192.611C609.625 198.689 614.878 203.208 620.31 206.124C621.957 207.014 623.738 207.86 624.784 209.396C626.187 211.4 626.031 214.049 626.498 216.453C627.634 222.33 632.576 227.161 632.732 233.149C632.821 237.401 630.461 241.252 629.058 245.259C626.387 253.028 627.233 261.598 631.374 268.7C632.42 270.481 633.689 272.172 634.446 274.087C635.781 277.537 635.336 281.455 636.583 284.95C638.208 289.558 642.682 293.365 642.237 298.24C644.263 302.448 648.737 304.518 653.234 305.764L661.293 308.013C662.829 308.436 664.454 308.881 666.034 308.569C667.615 308.258 669.106 306.944 669.062 305.341C665.099 304.451 661.025 303.494 657.753 301.09C654.481 298.685 652.255 294.389 653.501 290.516C654.08 288.735 655.304 286.664 654.124 285.173C653.457 284.327 652.255 284.104 651.498 283.325C650.318 282.123 650.741 280.097 651.564 278.65C652.388 277.204 653.612 275.89 653.969 274.243C654.325 272.351 653.457 270.458 651.809 269.479C653.301 268.922 654.659 268.032 655.794 266.919C656.84 265.717 657.33 263.869 656.506 262.511C658.955 262.823 661.849 262.979 663.474 261.109C664.765 259.617 664.676 257.369 664.164 255.454C663.652 253.54 662.806 251.692 662.762 249.711C668.416 249.978 674.093 249.778 679.725 249.132C678.901 246.394 677.053 244.079 674.56 242.677C677.098 242.254 679.435 239.204 680.237 236.733C681.038 234.262 680.838 231.591 680.348 229.075C680.148 228.429 680.125 227.739 680.281 227.072C680.571 226.159 681.461 225.602 682.307 225.113L694.951 217.855C695.708 217.477 696.398 216.965 696.977 216.364C698.313 214.806 698.112 212.446 697.422 210.532C696.732 208.617 695.664 206.792 695.396 204.766C694.617 198.711 701.118 194.348 703.299 188.649C704.167 186.401 704.323 183.974 704.501 181.57C704.679 178.988 704.702 176.005 702.72 174.357C700.828 172.777 697.867 173.133 695.886 171.641C694.061 170.284 693.438 167.657 691.456 166.566C689.653 165.564 687.405 166.21 685.401 165.742C681.884 164.919 679.658 160.845 676.052 160.489C674.026 160.266 671.711 161.268 670.063 160.088C668.594 159.042 668.527 156.949 668.26 155.168C667.258 149.514 662.829 145.062 657.174 144.038C655.082 143.704 652.789 143.837 651.008 142.68C649.205 141.522 648.381 139.341 646.956 137.716C644.663 135.111 641.079 134.198 637.696 133.397L623.983 130.169C621.556 129.59 618.418 129.301 617.104 131.416C616.726 132.217 616.436 133.085 616.281 133.976C615.279 137.27 612.274 139.541 608.823 139.586C607.666 137.627 605.818 136.18 603.636 135.556C602.256 135.178 600.765 135.133 599.429 134.555C596.491 133.13 595.288 129.59 596.713 126.652C596.758 126.563 596.802 126.451 596.869 126.362C598.494 123.468 597.982 119.84 595.622 117.525C593.285 115.432 589.923 114.92 586.785 115.143C585.961 113.362 587.341 111.336 588.81 110.045C590.28 108.754 592.083 107.463 592.394 105.526C592.906 102.476 589.011 100.161 586.05 101.074C583.089 101.987 581.197 104.858 579.951 107.685C579.238 109.31 578.637 111.025 577.502 112.382C576.366 113.74 574.563 114.742 572.827 114.297C570.401 113.674 569.443 110.78 568.909 108.331C568.197 105.036 567.462 101.697 567.618 98.3357C567.774 94.9743 568.909 91.5016 571.38 89.2309C575.432 85.5133 581.642 85.8918 587.096 86.4706C585.805 85.0236 586.117 82.5749 587.497 81.1947C588.966 79.8813 591.014 79.3915 592.929 79.859C594.576 80.1929 596.045 81.0834 597.136 82.3745C598.694 84.2667 599.14 86.8267 600.297 88.9638C601.455 91.1009 604.104 92.9485 606.263 91.791C608.133 90.7892 608.422 88.2069 607.955 86.1589C607.487 84.1109 606.508 82.0851 606.664 79.9926C606.975 75.9633 611.161 73.5591 614.834 71.8896C618.507 70.22 622.714 68.0161 623.293 64.0091C623.293 63.23 623.471 62.4509 623.738 61.7162C624.139 61.0707 624.718 60.5364 625.385 60.158C636.115 53.0567 647.023 45.8886 659.289 42.0152C659.935 41.8148 660.001 42.0374 660.647 41.8816C661.56 41.3474 660.959 39.9004 660.09 39.3216C659.222 38.7428 658.042 38.2753 657.82 37.2513C657.664 36.4944 658.109 35.7598 658.22 34.9807C658.51 33.1107 656.262 31.3744 654.525 32.1313C653.546 30.8179 655.482 29.3041 657.063 28.8811C661.805 27.5677 666.657 26.7886 671.555 26.5215C672.111 26.4324 672.69 26.5215 673.202 26.8109C674.026 27.3897 673.915 28.6808 673.336 29.5045C672.757 30.3281 671.844 30.8401 671.11 31.508C669.485 33.0885 668.884 35.4259 669.529 37.6075C672.089 38.8986 674.872 40.2566 677.699 39.7891C680.526 39.3216 683.042 36.1383 681.706 33.6005C680.459 31.2408 676.742 30.7066 676.096 28.102C675.339 25.0522 679.658 22.3587 678.678 19.3757C678.255 18.0623 676.964 17.3054 675.963 16.3704C673.558 14.0107 672.846 10.4044 674.182 7.31016C670.887 7.88895 667.503 6.84267 665.144 4.483C662.984 2.30141 661.248 -1.14905 658.176 -1.03775C655.349 -0.948702 652.922 2.34594 650.296 1.34419C649.65 1.09932 648.96 0.587315 648.337 0.89897C647.914 1.1661 647.646 1.61132 647.602 2.12333C646.934 5.32892 648.092 8.97974 646.333 11.7401C644.441 14.7454 640.033 15.1683 637.74 17.8842C636.494 19.3534 636.004 21.3346 634.846 22.8929C633.689 24.4512 631.262 25.4307 629.882 24.0728C631.285 21.2011 630.505 17.7506 628.012 15.7471C626.721 14.9012 625.363 14.2334 623.894 13.7436C622.269 13.0535 620.733 12.2076 619.308 11.1836C618.596 10.7606 618.017 10.1373 617.616 9.38044C617.305 8.44548 617.349 7.44373 617.728 6.53102C619.152 2.43498 622.714 -0.503479 627.01 -1.14905C628.836 -1.39392 630.973 -1.30488 632.197 -2.70733C632.843 -3.44194 633.177 -4.57726 634.112 -4.86665C634.713 -4.97796 635.336 -4.91117 635.87 -4.64404L642.727 -2.23984C643.484 -1.88367 644.33 -1.7501 645.175 -1.83915C646.044 -1.95045 646.667 -2.70733 646.6 -3.57551C646.378 -4.71082 644.641 -5.26735 644.797 -6.40267C644.886 -6.78111 645.086 -7.11502 645.376 -7.35989C650.385 -12.6803 657.508 -15.5074 664.81 -15.04C665.678 -13.6153 664.298 -11.9457 663.162 -10.7213C662.027 -9.49696 661.114 -7.33763 662.495 -6.40267C663.051 -6.11327 663.697 -5.97971 664.32 -6.00197C666.012 -5.77936 667.637 -5.26735 669.173 -4.53274C671.533 -3.50873 673.87 -2.37341 676.141 -1.14905C675.94 -2.64054 675.74 -4.22108 676.319 -5.64579C676.898 -7.0705 678.5 -8.16129 679.925 -7.60476C681.283 -7.0705 681.995 -5.26735 683.442 -5.11152C685.379 -4.88891 686.136 -7.76059 685.334 -9.51922C684.533 -11.2778 682.93 -12.7693 682.797 -14.706C682.708 -16.0195 683.197 -17.6445 682.151 -18.4459C681.773 -18.6908 681.35 -18.8243 680.927 -18.8689L654.792 -23.6773C653.234 -23.9667 651.008 -23.744 650.919 -22.1635C650.874 -21.2731 651.676 -20.4049 651.32 -19.6035C650.941 -18.7353 649.717 -18.8243 648.849 -18.5127C647.468 -18.0452 646.778 -16.3979 646.912 -14.9509C647.157 -13.504 647.713 -12.146 648.559 -10.9439C646.867 -11.6563 644.285 -11.7898 642.593 -12.5022L642.615 -12.5467Z" fill="#C2BFDF" fill-opacity="0.38"/>
<path d="M688.429 -36.9449L692.102 -36.2325C689.475 -36.3438 687.249 -34.3181 687.138 -31.6912C687.138 -31.4909 687.138 -31.2905 687.138 -31.0679C690.588 -29.9104 694.328 -31.0457 697.956 -30.8898C701.585 -30.734 705.815 -28.1517 705.191 -24.5677C705.013 -23.4769 704.39 -22.4084 704.702 -21.3621C704.924 -20.6275 705.57 -20.1155 705.948 -19.4254C706.705 -18.0229 706.104 -16.2421 705.147 -14.9509C704.19 -13.6598 702.898 -12.6358 702.053 -11.2778C699.96 -7.89415 701.14 -3.50872 702.386 0.275661C702.743 1.70037 703.41 3.03604 704.345 4.19361C706.193 6.17485 709.221 6.33068 711.936 6.3752C713.895 6.39746 716.166 6.30842 717.413 4.7724C719.038 2.76891 717.902 -0.325386 718.971 -2.6628C719.95 -4.7776 722.421 -5.6903 724.67 -6.33588C728.788 -7.51571 732.973 -8.51746 736.869 -10.3206C741.7 -12.5467 746.219 -15.9972 751.517 -16.2866C753.008 -16.3756 754.522 -16.1975 755.969 -16.5982C757.416 -16.9989 758.774 -18.2456 758.662 -19.737C758.573 -21.0059 757.505 -21.9409 756.659 -22.8981C755.813 -23.8553 755.167 -25.3246 755.924 -26.3486L769.838 -28.9531C768.858 -31.6467 768.079 -35.1862 770.35 -36.9226C771.173 -37.5459 772.264 -37.813 772.954 -38.5699C774.134 -39.8611 773.533 -42.1094 772.175 -43.2225C770.817 -44.3355 768.947 -44.5804 767.211 -44.7362C761.111 -45.2482 754.967 -44.9143 748.868 -44.5804C736.913 -43.9348 724.981 -43.267 713.027 -42.6214C710.623 -42.4879 707.84 -42.6882 705.637 -41.8646C703.767 -41.1745 702.431 -39.9056 700.316 -39.4381C696.376 -38.6144 692.035 -39.171 688.473 -36.9671L688.429 -36.9449Z" fill="#C2BFDF" fill-opacity="0.38"/>
<path d="M886.352 218.612C885.773 220.282 885.729 222.263 886.708 223.71C887.821 225.357 890.07 225.958 892.029 225.535C893.965 225.023 895.679 223.91 896.971 222.374C898.128 221.083 899.085 219.614 899.798 218.034C900.8 215.563 901.512 212.98 901.89 210.331L903.783 200.425C904.205 198.221 904.183 191.432 900.109 193.635C898.996 194.236 896.436 199 895.257 200.358C893.164 202.785 892.875 205.167 891.784 208.105C890.404 211.8 887.621 214.895 886.33 218.59L886.352 218.612Z" fill="#C2BFDF" fill-opacity="0.38"/>
<path d="M1132.72 174.424C1131.49 174.713 1130.2 174.803 1128.95 174.647C1126.86 174.268 1125.24 172.688 1123.54 171.397C1119.54 168.347 1114.64 166.633 1109.61 166.521C1105.02 166.432 1100.39 167.679 1095.87 166.811C1096.16 168.458 1097.57 169.682 1099.06 170.417C1100.55 171.152 1102.2 171.508 1103.71 172.22C1106.11 173.378 1108.03 175.359 1109.1 177.808C1109.59 178.943 1109.88 180.167 1110.61 181.147C1112.1 183.173 1114.95 183.596 1117.47 183.44C1120.74 183.217 1124.14 182.282 1127.19 183.507C1129.51 184.442 1131.18 186.467 1133.14 188.048C1135.1 189.628 1137.81 190.808 1140.04 189.673C1135.28 188.137 1132.09 183.685 1132.14 178.676C1134.32 178.876 1140.62 178.81 1140.28 175.092C1139.99 171.953 1134.61 174.068 1132.74 174.424H1132.72Z" fill="#C2BFDF" fill-opacity="0.38"/>
<path d="M1104.11 200.047C1104.49 197.91 1106.63 196.04 1105.96 193.969C1105.49 192.545 1103.84 191.832 1102.35 191.81C1100.86 191.788 1099.39 192.211 1097.88 192.255C1096.9 192.211 1095.92 192.211 1094.96 192.3C1092 192.789 1090.15 195.906 1087.35 197.019C1085.66 197.687 1083.74 197.553 1081.96 198.021C1077.93 199.067 1075.39 202.874 1072.59 205.946C1068.05 210.865 1062.13 214.316 1055.6 215.852C1053.31 216.386 1050.86 216.72 1049.04 218.212C1046.63 220.171 1046.03 223.554 1045.5 226.604C1044.03 235.063 1041.76 243.344 1038.75 251.381L1048.3 252.605C1050.13 252.828 1052 253.072 1053.76 252.516C1055.02 252.026 1056.23 251.403 1057.34 250.601C1061.59 247.952 1066.36 246.238 1071.3 245.57C1073.79 245.237 1076.42 245.17 1078.75 246.082C1081.09 246.995 1083.12 249.11 1083.32 251.626C1085.39 250.98 1087.64 251.536 1089.17 253.05C1090.66 254.564 1091.64 256.523 1091.98 258.638C1092.22 259.951 1092.49 261.509 1093.69 262.066C1094.67 262.511 1095.81 262.021 1096.9 261.955C1100.57 261.665 1103.62 265.939 1107.23 265.205C1111.1 264.426 1112.03 258.615 1115.82 257.458C1117.98 256.79 1121.03 257.591 1122.07 255.588C1122.99 253.807 1121.16 251.759 1121.36 249.778C1121.58 247.329 1124.48 246.283 1126.7 245.237C1134.38 241.63 1138.04 231.301 1134.32 223.666C1132.11 219.147 1127.77 215.585 1126.97 210.621C1126.35 206.792 1127.86 202.339 1125.44 199.334C1124.19 197.798 1122.1 196.952 1121.36 195.127C1120.89 193.969 1121.1 192.678 1120.83 191.454C1120.56 190.229 1119.51 188.983 1118.31 189.294C1114.84 190.207 1113.73 200.959 1111.86 203.564C1109.03 207.526 1103.22 204.922 1104.11 200.024V200.047Z" fill="#C2BFDF" fill-opacity="0.38"/>
<path d="M1039.84 178.498C1038.66 178.164 1037.35 177.83 1036.21 178.32C1035.08 178.809 1034.41 180.457 1035.32 181.303C1042.47 181.013 1049.66 180.746 1056.76 181.726C1064.93 182.839 1073.01 185.621 1081.2 184.798C1076.53 183.418 1071.76 182.304 1066.93 181.481L1058.9 179.945C1056.74 179.5 1054.56 179.166 1052.37 178.943C1047.79 178.565 1044.32 179.767 1039.82 178.52L1039.84 178.498Z" fill="#C2BFDF" fill-opacity="0.38"/>
<path d="M1046.99 153.588C1046.39 153.543 1045.65 153.499 1045.36 154.011C1045.07 154.5 1045.41 155.146 1045.25 155.68C1045.03 156.437 1044.05 156.615 1043.29 156.526C1042.54 156.437 1041.69 156.17 1041 156.548C1040.29 157.038 1039.98 157.929 1040.24 158.752C1040.53 159.554 1040.98 160.266 1041.56 160.867C1042.56 162.136 1043.72 163.294 1044.98 164.318C1047.43 166.121 1050.77 167.011 1052.31 169.638C1052.53 170.15 1052.86 170.595 1053.29 170.951C1054.02 171.419 1055 171.063 1055.8 170.706L1058.61 169.415C1059.12 169.237 1059.57 168.926 1059.92 168.525C1060.57 167.657 1060.17 166.41 1059.63 165.475C1059.1 164.54 1058.41 163.561 1058.52 162.492C1058.72 160.578 1061.19 159.843 1062.19 158.218C1063.22 156.571 1062.55 154.434 1062.66 152.497C1062.79 150.226 1064.22 147.288 1061.93 145.596C1059.99 144.149 1058.12 145.485 1056.72 147.065C1053.78 150.404 1052.38 154.033 1046.97 153.588H1046.99Z" fill="#C2BFDF" fill-opacity="0.38"/>
<path d="M1064.02 119.751C1064.97 121.576 1066.98 122.667 1068.02 124.47C1069.16 126.407 1069.03 128.9 1070.25 130.77C1071.52 132.685 1074.04 133.709 1074.75 135.912C1075.53 138.294 1073.77 141.211 1075.17 143.303C1076.22 144.661 1078.15 144.928 1079.51 143.882C1079.58 143.837 1079.64 143.771 1079.71 143.704C1080.94 142.368 1080.87 140.32 1079.58 139.051C1078.75 138.294 1077.57 137.983 1076.88 137.092C1076.53 136.58 1076.28 136.001 1076.19 135.378C1075.82 133.619 1075.88 131.772 1076.37 130.035C1076.55 129.59 1076.6 129.101 1076.51 128.633C1076.19 127.72 1074.97 127.676 1074.12 127.253C1072.19 126.296 1072.23 123.557 1072.57 121.42C1072.34 122.845 1067.27 120.419 1066.73 119.617C1065.69 118.014 1066.24 114.92 1066.04 113.139C1063.77 114.23 1062.88 117.502 1064.06 119.729L1064.02 119.751Z" fill="#C2BFDF" fill-opacity="0.38"/>
<path d="M1012.88 147.933C1011.95 146.887 1010.55 145.796 1009.28 146.42C1008.32 146.909 1008.05 148.223 1008.43 149.224C1008.9 150.204 1009.59 151.05 1010.48 151.651C1013.11 153.81 1015.91 155.747 1018.2 158.263C1022.3 162.759 1024.46 168.814 1028.89 172.955C1029.78 173.912 1030.96 174.558 1032.25 174.78C1033.54 174.892 1034.99 174.068 1035.14 172.777C1035.28 171.708 1034.52 170.751 1033.81 169.972C1032.07 168.102 1030.2 166.366 1028.56 164.407C1027.8 163.65 1027.33 162.67 1027.22 161.602C1027.22 160.555 1028.18 159.442 1029.2 159.709C1027.95 159.398 1027.04 157.328 1025.22 156.927C1023.68 156.593 1023.32 157.55 1021.5 156.771C1018.03 155.28 1015.31 150.649 1012.88 147.933Z" fill="#C2BFDF" fill-opacity="0.38"/>
<path d="M1094.31 45.8441C1093.31 45.5547 1092.33 45.1985 1091.38 44.7978C1088.79 44.0187 1085.41 45.9109 1085.74 48.5822C1085.97 50.3631 1087.61 51.5429 1088.53 53.0789C1089.89 55.3496 1089.51 58.2435 1088.82 60.8035C1088.64 61.5827 1088.3 62.3395 1087.84 63.0074C1087.19 63.6975 1086.39 64.2763 1085.52 64.6547C1082.05 66.6137 1078.98 69.1959 1076.51 72.3125C1076.24 72.6019 1076.04 72.9581 1075.97 73.3365C1075.84 74.227 1076.75 74.8948 1077.26 75.6517C1078.4 77.3212 1077.57 79.5696 1077.69 81.5731C1077.64 82.1519 1077.91 82.7084 1078.4 83.0423C1079.09 83.3985 1079.89 82.7975 1080.27 82.1296C1081.49 79.9035 1080.58 76.3195 1082.87 75.251C1083.32 75.0506 1083.83 74.9616 1084.14 74.5831C1084.61 73.9821 1084.14 73.0694 1084.39 72.3348C1084.74 71.244 1086.23 71.1994 1087.37 71.244C1089.35 71.333 1091.31 71.0659 1093.2 70.4648C1093.94 70.2867 1094.6 69.9083 1095.14 69.3518C1095.83 68.4836 1095.76 67.2592 1095.63 66.1684C1094.94 60.7145 1093.2 55.4386 1090.53 50.608C1092.56 50.8751 1094.76 51.0977 1096.52 50.0292C1097.5 49.4281 1098.68 47.6695 1098.19 46.4674C1097.41 44.5529 1096.03 46.1557 1094.31 45.8441Z" fill="#C2BFDF" fill-opacity="0.38"/>
<path d="M834.239 75.8743C834.484 77.1654 834.728 78.5456 834.283 79.7922C833.838 81.0389 832.525 82.0851 831.256 81.7067C830.276 81.4173 829.697 80.4156 829.007 79.6587C825.112 75.4736 816.363 77.9 813.959 72.7132C812.979 70.5984 813.647 68.0606 812.979 65.8345C812.111 63.1855 809.551 61.4491 806.769 61.6049C805.522 61.783 804.32 62.1392 803.185 62.6735C795.593 65.7232 787.624 67.7045 779.499 68.5949C777.963 68.684 776.427 68.9734 774.957 69.4186C771.618 70.6207 769.348 73.715 767.723 76.876C766.098 80.0371 764.895 83.4431 762.736 86.248C760.443 89.1864 757.238 91.2567 754.255 93.4828C753.097 94.2174 752.14 95.2192 751.45 96.4213C750.804 97.7569 750.849 99.2929 750.893 100.784L751.494 118.749C751.583 121.064 751.672 123.446 752.696 125.516C753.988 128.099 756.548 129.791 758.306 132.061C760.109 134.399 761.044 137.293 760.978 140.253C760.933 141.433 760.822 142.858 761.757 143.592C762.313 143.949 762.981 144.149 763.649 144.127L787.936 146.108C792.21 146.464 796.951 147.043 799.734 150.293C801.047 151.829 802.116 154.033 804.119 154.211C804.988 154.278 805.834 153.922 806.702 153.855C808.883 153.677 810.798 155.346 812.022 157.172C813.848 159.954 814.693 163.271 814.382 166.588C814.181 168.658 813.536 170.684 813.402 172.777C812.868 180.724 819.591 187.603 819.725 195.572C819.791 200.247 817.587 204.632 815.406 208.773C818.901 214.071 816.029 221.128 817.432 227.316C818.745 233.193 823.642 237.779 824.867 243.678C825.423 246.372 825.468 249.689 827.828 251.091C828.874 251.603 830.031 251.826 831.189 251.759C838.179 251.848 845.102 250.268 851.357 247.173C854.296 245.704 857.346 243.545 857.858 240.295C858.281 237.668 856.945 234.752 858.303 232.481C859.884 229.787 863.98 230.01 866.317 227.94C870.124 224.601 867.163 218.212 868.699 213.381C870.079 209.04 874.843 206.747 877.203 202.851C878.138 201.182 878.805 199.379 879.184 197.487C880.275 193.012 880.942 188.426 881.187 183.818C881.254 181.013 881.454 178.231 881.811 175.448C884.348 159.643 899.976 149.046 905.051 133.864C905.541 132.417 905.764 130.481 904.472 129.657C903.716 129.301 902.847 129.212 902.024 129.39L890.826 130.792C889.446 130.97 887.955 131.126 886.686 130.547C885.417 129.969 884.504 128.344 885.172 127.119C887.064 123.669 883.169 119.328 881.432 115.788C876.757 106.283 871.17 97.2449 864.781 88.7857C864.38 88.3405 864.113 87.784 864.046 87.2052L867.23 87.3165C866.161 83.4653 864.38 79.258 860.64 77.8555C858.526 77.0541 856.21 77.3435 853.962 77.4548C847.529 77.811 840.628 76.8315 834.239 75.852V75.8743Z" fill="#C2BFDF" fill-opacity="0.38"/>
<path d="M853.94 -10.8549C855.632 -9.074 857.524 -7.15955 859.95 -6.8479C864.247 -6.29137 867.363 -10.7436 869.322 -14.617C869.478 -12.569 871.237 -11.0107 873.285 -11.0998C874.353 -11.2779 875.355 -11.6786 876.268 -12.2573C884.794 -16.9099 894.366 -19.3809 904.072 -19.4477C903.872 -20.9837 904.873 -22.4084 906.365 -22.7423C908.346 -23.143 910.127 -21.4289 911.084 -19.648C912.041 -17.8671 912.642 -15.8191 914.156 -14.4834C915.67 -13.1478 918.608 -13.2146 919.209 -15.129C919.788 -16.9767 917.851 -18.5572 916.271 -19.648C914.69 -20.7388 912.976 -22.7423 914.067 -24.3674C922.237 -26.1705 930.451 -27.9959 938.821 -28.3521C940.246 -28.3076 941.671 -28.5524 942.984 -29.0645C944.253 -29.6878 945.277 -31.1125 944.921 -32.4927C941.181 -31.6245 937.308 -33.0937 935.082 -36.2103C946.68 -37.1675 959.012 -37.9911 969.297 -32.5149C970.521 -29.8659 964.244 -27.662 965.935 -25.2801C966.47 -24.5232 967.538 -24.4342 968.473 -24.4119C975.619 -24.2783 982.809 -24.1448 989.866 -25.2355C992.448 -25.6362 995.053 -26.1928 997.635 -25.8589C1001.95 -25.3246 1005.65 -22.4529 1009.88 -21.5179C1011.62 -21.1395 1013.55 -21.1172 1015 -22.119C1016.45 -23.1207 1017.09 -25.4136 1015.89 -26.727C1019.9 -30.645 1026.53 -29.6655 1031.81 -27.7956C1037.08 -25.9256 1042.07 -22.8981 1047.66 -22.4752C1051.66 -22.1858 1055.71 -23.2543 1059.68 -22.5642C1062.17 -22.1413 1064.49 -21.0282 1066.91 -20.3381C1071.5 -19.047 1076.37 -19.3141 1081.14 -19.2696C1093.31 -19.1138 1105.36 -16.7096 1116.67 -12.2128C1118.13 -11.7231 1119.49 -10.9439 1120.61 -9.8754C1121.65 -8.74009 1122.19 -7.00372 1121.5 -5.62354L1109.81 -7.33764C1110.9 -5.17831 1113.75 -4.79988 1116.06 -4.043C1118.38 -3.28613 1120.78 -0.74836 1119.38 1.25514C1116.87 0.453739 1114.59 2.96924 1113.33 5.26213C1112.06 7.55502 1110.52 10.3377 1107.89 10.4712C1105.53 10.6048 1102.71 8.6013 1101.17 10.3822C1103.29 13.0535 1105.11 15.9475 1106.58 19.0195C1108.09 22.1806 1109.19 26.143 1107.14 28.9924C1106.83 29.5044 1106.34 29.8829 1105.76 30.061C1104.09 30.4839 1103 28.4359 1101.79 27.1893C1100.28 25.631 1097.99 25.1858 1095.96 24.4512C1093.94 23.7166 1091.76 22.2696 1091.6 20.1103C1091.51 18.7523 1092.22 17.5057 1092.73 16.2591C1093.62 14.1666 1094 11.8737 1093.87 9.60304C1093.76 7.77763 1093.25 5.86318 1091.93 4.5943C1090.62 3.32542 1088.35 2.90246 1086.95 4.0823C1086.28 4.63882 1085.77 5.507 1084.9 5.52927C1083.38 5.59605 1082.23 2.94698 1081.03 3.85968C1081.16 4.81691 1080.96 5.7964 1080.47 6.62006C1076.84 9.78113 1071.27 8.44547 1066.6 9.55852C1064.37 10.2041 1062.26 11.1168 1060.28 12.3189C1059.54 12.6306 1058.92 13.1648 1058.47 13.8326C1057.9 14.968 1058.54 16.4149 1059.57 17.1718C1060.66 17.8396 1061.88 18.2626 1063.15 18.3962C1068.85 19.4647 1074.64 21.1565 1079.13 24.8074C1083.63 28.4582 1086.59 34.5132 1085.17 40.1452L1073.92 29.4154C1074.35 33.9344 1074.59 38.4534 1074.66 42.9724C1074.73 43.8628 1074.61 44.7533 1074.3 45.5769C1073.5 47.3356 1071.32 47.9366 1069.43 48.3373C1067.36 48.738 1066 50.7193 1066.38 52.8118C1066.4 52.9454 1066.44 53.1012 1066.49 53.2348C1067.16 55.4386 1068.85 57.1527 1070.38 58.8668C1071.92 60.5809 1073.46 62.5176 1073.66 64.8105C1073.86 67.1034 1072.12 69.6857 1069.83 69.5299C1068.09 69.4186 1066.8 67.838 1066.04 66.2575C1065.29 64.677 1064.86 62.9183 1063.75 61.5827C1060.37 57.5089 1052.78 59.2675 1049.75 54.9266C1048.17 56.7075 1047.63 59.1785 1048.32 61.4491C1049.73 60.5587 1051.66 61.3823 1052.73 62.6735C1053.8 63.9646 1054.29 65.5897 1055.11 67.0366C1056.23 68.9733 1058.03 70.7097 1058.19 72.9358C1058.14 73.7817 1058.16 74.6277 1058.23 75.4736C1058.5 76.8315 1059.65 77.811 1060.46 78.9463C1062.3 81.5731 1062.21 85.2017 1061.01 88.2069C1059.81 91.2122 1057.67 93.7054 1055.56 96.1319C1051.86 100.361 1048.08 104.569 1043.69 108.086C1042.45 109.088 1041.11 110.067 1040.33 111.47C1039.55 112.872 1039.51 114.831 1040.71 115.9C1039.84 115.944 1038.31 116.367 1037.46 116.412C1037.15 112.961 1037.1 109.511 1037.26 106.06C1033.88 104.435 1030.23 108.798 1030.67 112.516C1031.12 116.256 1033.81 119.239 1035.72 122.467C1037.13 124.826 1038.17 127.587 1037.71 130.28C1037.24 132.974 1034.81 135.489 1032.07 135.245C1027.71 134.866 1025.91 128.611 1021.59 127.898C1021.21 127.809 1020.81 127.854 1020.45 128.01C1019.81 128.366 1019.7 129.212 1019.67 129.946C1019.5 133.53 1019.34 137.248 1020.74 140.543C1022.79 145.373 1028.07 149.425 1026.95 154.545C1020.99 151.762 1017.89 145.084 1016.49 138.651C1015.09 132.217 1014.84 125.472 1012.33 119.417C1010.41 121.866 1006.38 119.84 1004.63 117.258C1002.96 114.809 1001.95 111.982 1000.33 109.511C998.704 107.04 996.255 104.814 993.294 104.68C990.2 104.547 987.506 106.661 985.169 108.665C983.232 110.312 981.229 112.026 980.093 114.319C978.446 117.636 978.869 121.554 978.802 125.249C978.713 129.256 977.867 133.486 975.129 136.402C972.391 139.318 967.36 140.365 964.355 137.716C962.774 136.335 962.017 134.265 961.35 132.306C958.077 122.778 955.361 113.05 953.202 103.211C952.69 105.459 950.731 108.353 948.839 107.04C948.416 106.684 948.082 106.238 947.837 105.749C944.32 99.7827 937.797 96.2209 931.23 94.0616C924.663 91.9022 917.718 90.9228 911.218 88.5631C907.567 87.2497 904.094 85.5133 900.844 83.3985C899.152 85.8695 898.974 89.0751 900.354 91.7464C901.801 94.3064 905.074 95.7757 907.856 94.8852C909.303 94.4178 910.528 93.416 911.952 92.9263C913.377 92.4365 915.314 92.6814 915.937 94.0616C916.538 95.375 915.625 96.9778 916.071 98.358C916.761 100.451 919.922 100.629 921.035 102.543C921.858 103.968 921.191 105.86 920.011 106.995C918.831 108.131 917.25 108.776 915.826 109.578C911.151 112.182 907.834 116.612 903.76 120.04C899.686 123.468 893.921 126.006 889.068 123.802C890.225 117.948 883.235 113.629 881.944 107.797C881.521 105.882 881.744 103.834 881.143 101.964C880.275 99.2484 877.871 97.3785 875.889 95.3305C871.059 90.2327 868.476 83.4208 868.744 76.3863C868.855 73.9821 869.3 71.5111 868.744 69.1737C868.187 66.8363 866.25 64.5434 863.824 64.6547C858.303 64.8996 851.358 65.3003 848.486 60.6032C847.462 58.9336 846.994 56.4626 848.486 55.1937C849.532 54.281 851.09 54.3701 852.471 54.5036L864.892 55.728C867.786 56.0174 870.947 56.24 873.418 54.7262C875.889 53.2125 876.98 49.1832 874.687 47.3801C872.995 46.0667 869.99 46.1557 869.478 44.0632C869.077 42.3268 870.992 40.3679 869.946 38.9209C869.211 37.8746 867.541 38.164 866.54 38.9431C865.538 39.7223 864.803 40.8576 863.668 41.4364C861.687 42.4604 859.327 41.4809 857.19 40.8131C855.053 40.1452 852.204 40.0785 851.157 42.0597C850 44.2635 852.181 47.1797 851.046 49.4059C849.532 52.3443 844.39 50.6747 842.253 53.1902C839.804 56.0842 843.922 60.4028 843.099 64.0982C840.962 65.1667 838.424 65.0109 836.398 63.7197C834.417 62.3841 833.348 60.0466 833.593 57.6647C833.794 55.9951 834.662 54.3033 834.083 52.7227C833.616 51.4539 832.347 50.697 831.145 50.0292L819.079 43.3508C817.966 45.4211 819.368 48.0034 821.149 49.5617C822.93 51.12 825.134 52.2998 826.314 54.3478C827.85 57.3085 826.804 60.9371 823.954 62.6289C823.598 62.8738 823.175 62.9406 822.752 62.8293C822.374 62.6067 822.084 62.2282 821.973 61.783C819.836 56.329 816.653 50.9641 811.533 48.1147C806.412 45.2653 799.066 45.8441 795.727 50.6525C794.926 51.7878 794.392 53.0789 793.701 54.3033C790.006 60.6922 782.126 63.7197 774.735 63.5416C774.023 63.5862 773.288 63.4081 772.665 63.0519C771.463 62.2282 771.529 60.4696 771.707 59.0449L772.487 52.9454C772.642 51.721 772.865 50.3631 773.845 49.6062C775.202 48.5377 777.184 49.2055 778.92 49.1832C781.614 49.0497 783.951 47.2465 784.775 44.6642C785.487 42.0597 784.708 39.2993 782.749 37.4516C781.948 36.6948 780.879 35.7598 781.302 34.7581C781.636 34.2015 782.215 33.8008 782.86 33.7118C785.977 32.7991 789.294 32.5765 792.366 31.4857C795.438 30.3949 798.421 28.2133 799.155 25.0522C799.378 24.0727 799.489 22.8929 800.358 22.4254C800.803 22.2473 801.27 22.136 801.738 22.136C805.188 21.6463 807.704 18.5965 807.526 15.1015C808.995 14.0775 811.065 14.8344 812.49 15.9252C813.915 17.016 815.183 18.463 816.92 18.9304C820.148 19.8209 823.286 16.9492 826.626 16.9269C828.028 16.9269 829.497 17.4167 830.811 16.9269C832.146 16.4372 832.948 15.1015 833.994 14.122C835.04 13.1426 836.843 12.5415 837.778 13.5878L836.977 7.57729C840.272 8.42321 843.789 7.77763 846.594 5.84092L836.109 2.30141C835.753 2.21236 835.396 2.03428 835.129 1.76714C834.372 0.943481 835.129 -0.325401 835.753 -1.26036C837.244 -3.48647 837.489 -7.15955 835.04 -8.27261C833.371 -9.02948 831.456 -8.11678 829.876 -7.22634L822.218 -2.95221C821.973 -1.50524 823.754 -0.681576 824.845 0.297913C826.67 1.92297 826.826 4.7056 825.201 6.53101C824.377 7.46598 823.197 8.00024 821.951 8.02251C822.975 9.35817 823.331 11.0723 822.93 12.6973L817.788 13.0758C817.209 13.1871 816.608 13.0758 816.118 12.7419C815.562 12.2521 815.651 11.4062 815.517 10.6716C815.206 8.91295 813.492 7.68859 811.755 7.37693C810.019 7.06528 808.216 7.46598 806.479 7.86668C805.745 8.13381 804.943 8.11155 804.209 7.82215C803.786 7.55502 803.474 7.15432 803.318 6.68684C802.561 4.83917 803.274 2.67985 804.498 1.09931C805.722 -0.481224 807.392 -1.61654 808.883 -2.92995C812.468 -6.06876 815.094 -10.1648 816.497 -14.7283C819.324 -15.9082 822.262 -17.5332 825.09 -18.7131C829.453 -20.9169 834.35 -21.8741 839.225 -21.4512L848.82 -21.2731C851.669 -21.2286 854.585 -21.1395 857.212 -20.071C859.839 -19.0024 862.154 -16.6428 862.332 -13.8156C862.444 -13.17 862.221 -12.5022 861.709 -12.057C861.331 -11.8566 860.908 -11.7676 860.485 -11.7899C857.836 -11.7008 856.7 -11.033 854.051 -10.9439L853.94 -10.8549Z" fill="#C2BFDF" fill-opacity="0.38"/>
<path d="M777.451 19.2198C778.208 18.4852 778.519 17.4167 778.208 16.3927C776.338 15.6803 774.245 16.081 772.776 17.4167C772.197 17.9955 771.707 18.641 771.329 19.3534C770.06 21.4014 768.947 23.8724 769.682 26.1653C769.793 26.6773 770.127 27.1003 770.572 27.3674C770.906 27.501 771.262 27.5455 771.596 27.5232C772.976 27.5232 774.379 27.4342 775.759 27.2783C776.605 27.167 777.584 26.9444 777.918 26.143C778.341 25.0968 777.317 23.9392 777.607 22.8484C777.807 22.3586 778.119 21.9357 778.497 21.5795C778.876 21.2233 779.076 20.6891 779.009 20.1771C778.876 19.6651 778.119 19.3757 777.829 19.8209" fill="#C2BFDF" fill-opacity="0.38"/>
<path d="M784.663 9.89244C783.439 9.60304 782.148 9.53626 780.901 9.64757C780.612 9.64757 780.345 9.69209 780.1 9.82566C779.855 10.0037 779.677 10.2486 779.61 10.538C779.054 12.3189 779.966 14.2111 781.68 14.9012C782.126 15.0125 782.571 15.1683 782.972 15.4132C784.04 16.2368 783.35 17.9287 783.55 19.2644C783.773 20.7558 785.22 22.0247 784.953 23.5162C784.752 24.6961 783.484 25.631 783.684 26.7886C783.884 28.013 785.465 28.3914 786.711 28.4804C787.424 28.614 788.181 28.525 788.848 28.2356C789.516 27.7681 790.006 27.078 790.206 26.2766C790.718 24.7628 790.941 23.16 790.83 21.5572C790.83 20.8226 790.652 20.1103 790.295 19.4647C789.917 18.9527 789.494 18.4852 789.049 18.04C786.667 15.2574 789.182 11.1168 784.663 9.84792V9.89244Z" fill="#C2BFDF" fill-opacity="0.38"/>
<g style="mix-blend-mode:screen">
<path d="M650.963 209.908C645.331 209.908 640.723 205.322 640.723 199.668C640.723 194.014 645.309 189.428 650.963 189.428C656.618 189.428 661.204 194.014 661.204 199.668C661.204 205.322 656.618 209.908 650.963 209.908Z" fill="white"/>
</g>
<g style="mix-blend-mode:screen">
<path d="M650.963 207.704C655.389 207.704 658.977 204.116 658.977 199.69C658.977 195.264 655.389 191.676 650.963 191.676C646.537 191.676 642.949 195.264 642.949 199.69C642.949 204.116 646.537 207.704 650.963 207.704Z" fill="#3C6BB4"/>
</g>
<g style="mix-blend-mode:screen" opacity="0.8">
<path d="M1098.05 227.873C1096.23 226.827 914.646 123.357 837.155 142.925C836.643 142.991 794.903 147.533 751.339 156.838C693.86 169.126 659.356 184.041 651.542 199.98L650.807 201.471L650.295 199.891C650.162 199.468 636.872 158.018 621.401 116.412C595.6 47.0907 583.802 30.7288 578.437 29.1928L578.815 27.9017C597.492 33.2443 645.42 180.346 651.097 197.976C673.447 159.62 830.165 142.324 836.91 141.611C914.846 121.91 1096.88 225.669 1098.7 226.715L1098.03 227.873H1098.05Z" fill="#6466AF"/>
</g>
<g style="mix-blend-mode:screen" opacity="0.8">
<path d="M1097.85 227.695C1065.87 185.287 1018.69 148.468 957.61 118.237C935.104 107.107 910.683 96.8442 884.549 87.5168C858.926 115.21 837.934 142.146 837.511 142.68L837.11 143.192L836.576 142.813C836.242 142.568 811.221 124.426 775.87 102.766C717.168 132.262 663.919 166.922 651.542 199.913L650.296 199.446C661.137 170.551 702.809 137.782 774.357 101.831C763.604 95.2637 751.94 88.4073 739.741 81.6399C704.724 62.206 660.179 40.7463 621.423 32.2426C595.021 29.7938 578.971 29.2373 578.593 29.2151L578.526 27.8794C591.281 26.1653 605.974 27.501 621.556 30.9069C659.935 34.4464 720.151 41.9484 785.955 57.3976C804.52 61.7608 822.507 66.5024 839.849 71.6224C891.316 49.6507 937.285 33.6228 952.267 28.525C954.048 27.7904 955.762 27.2116 957.409 26.7886L957.788 28.0797C957.587 28.1465 955.829 28.7253 952.735 29.7716C934.124 37.4517 908.101 62.1169 885.506 86.4483C911.507 95.7312 935.772 105.949 958.166 117.013C1019.43 147.332 1066.78 184.286 1098.88 226.871L1097.81 227.673L1097.85 227.695ZM777.317 102.076C809.574 121.866 833.104 138.651 836.866 141.366C840.205 137.092 859.616 112.427 883.057 87.0048C869.233 82.1074 854.897 77.4771 840.138 73.0916C819.591 81.8848 798.131 91.6351 777.295 102.053L777.317 102.076ZM630.839 33.1553C667.503 42.7943 708.041 62.5176 740.431 80.4823C752.897 87.4055 764.829 94.44 775.803 101.141C788.158 94.952 801.381 88.6967 815.495 82.33C823.041 78.924 830.543 75.6294 837.956 72.4683C821.127 67.5264 803.697 62.9406 785.71 58.7332C725.115 44.4862 669.24 37.0287 630.839 33.1775V33.1553ZM842.075 72.2902C856.522 76.5866 870.524 81.1501 884.059 85.9585C903.493 64.9663 925.576 43.6625 943.541 32.9994C923.573 39.9894 884.95 54.0139 842.075 72.2902ZM590.168 28.4804C594.621 28.7476 600.275 29.126 606.998 29.6603C601.165 28.8811 595.556 28.4137 590.168 28.4804Z" fill="#6466AF"/>
</g>
<g style="mix-blend-mode:screen">
<path d="M578.637 38.7873C573.005 38.7873 568.397 34.2016 568.397 28.5472C568.397 22.8929 572.983 18.3071 578.637 18.3071C584.291 18.3071 588.877 22.8929 588.877 28.5472C588.877 34.2016 584.291 38.7873 578.637 38.7873Z" fill="white"/>
</g>
<g style="mix-blend-mode:screen">
<path d="M578.637 36.5612C583.063 36.5612 586.651 32.9732 586.651 28.5472C586.651 24.1212 583.063 20.5332 578.637 20.5332C574.211 20.5332 570.623 24.1212 570.623 28.5472C570.623 32.9732 574.211 36.5612 578.637 36.5612Z" fill="#3C6BB4"/>
</g>
<g style="mix-blend-mode:screen">
<path d="M957.61 37.6743C951.978 37.6743 947.37 33.0885 947.37 27.4342C947.37 21.7799 951.955 17.1941 957.61 17.1941C963.264 17.1941 967.85 21.7799 967.85 27.4342C967.85 33.0885 963.264 37.6743 957.61 37.6743Z" fill="white"/>
</g>
<g style="mix-blend-mode:screen">
<path d="M957.61 35.4482C962.036 35.4482 965.624 31.8602 965.624 27.4342C965.624 23.0082 962.036 19.4202 957.61 19.4202C953.184 19.4202 949.596 23.0082 949.596 27.4342C949.596 31.8602 953.184 35.4482 957.61 35.4482Z" fill="#3C6BB4"/>
</g>
<g style="mix-blend-mode:screen">
<path d="M836.999 152.497C831.367 152.497 826.759 147.911 826.759 142.257C826.759 136.603 831.345 132.017 836.999 132.017C842.653 132.017 847.239 136.603 847.239 142.257C847.239 147.911 842.653 152.497 836.999 152.497Z" fill="white"/>
</g>
<g style="mix-blend-mode:screen">
<path d="M836.999 150.293C841.425 150.293 845.013 146.705 845.013 142.279C845.013 137.853 841.425 134.265 836.999 134.265C832.573 134.265 828.985 137.853 828.985 142.279C828.985 146.705 832.573 150.293 836.999 150.293Z" fill="#3C6BB4"/>
</g>
</g>
<rect x="677.717" y="189" width="83.556" height="12.7792" transform="rotate(-13.0683 677.717 189)" fill="#26D7B2"/>
<circle cx="375.088" cy="175.088" r="20.0878" fill="#FFE525"/>
<path d="M41.2 48H44.44L41 34H37.8L28.74 48H32.2L34.02 45H40.54L41.2 48ZM35.52 42.54L38.82 37.14L40 42.54H35.52ZM51.0748 48.16C53.2748 48.16 55.1548 47.2 56.1948 45.58L53.8948 44.14C53.2548 45.14 52.3348 45.58 51.2548 45.58C49.6548 45.58 48.7548 44.64 48.7548 43.18C48.7548 41.1 50.1148 39.66 51.9548 39.66C53.0548 39.66 53.8748 40.12 54.3548 41.12L56.9948 39.8C56.1748 38.06 54.4548 37.08 52.1548 37.08C48.3148 37.08 45.5948 39.76 45.5948 43.34C45.5948 46.24 47.7348 48.16 51.0748 48.16ZM62.2675 39.88H64.9475L65.4275 37.48H62.7475L63.2675 34.86H60.1475L59.6275 37.48H57.9675L57.4875 39.88H59.1475L58.2875 44.22C58.2275 44.54 58.1875 44.86 58.1875 45.16C58.1875 47.04 59.5475 48.16 61.5475 48.16C62.4875 48.16 63.4475 48 64.2275 47.52L63.7675 45.3C63.3675 45.54 62.9275 45.68 62.5075 45.68C61.7275 45.68 61.3675 45.3 61.3675 44.64C61.3675 44.5 61.3675 44.36 61.4075 44.2L62.2675 39.88ZM69.8789 35.74C71.1189 35.74 71.9589 34.96 71.9589 33.82C71.9589 32.94 71.2189 32.26 70.1189 32.26C68.8789 32.26 68.0589 33.08 68.0589 34.12C68.0589 35.02 68.7789 35.74 69.8789 35.74ZM65.6589 48H68.7589L70.8989 37.24H67.7989L65.6589 48ZM81.155 37.24L76.635 44.58L75.075 37.24H71.995L74.375 48H77.595L84.275 37.24H81.155ZM94.5952 41.82C94.5952 38.94 92.6152 37.08 89.4752 37.08C85.7352 37.08 83.1352 39.74 83.1352 43.34C83.1352 46.26 85.2752 48.16 88.6352 48.16C90.2752 48.16 91.8952 47.72 93.1352 46.72L91.8352 44.66C91.0952 45.3 90.0552 45.66 88.9552 45.66C87.1752 45.66 86.2752 44.92 86.1752 43.46H94.4152C94.5152 42.96 94.5952 42.4 94.5952 41.82ZM89.3352 39.42C90.7752 39.42 91.7352 40.22 91.7352 41.64H86.3952C86.8152 40.3 87.8352 39.42 89.3352 39.42ZM95.2738 48H98.3938L101.354 33.16H98.2338L95.2738 48ZM110.829 37.24L106.349 44.56L104.749 37.24H101.629L104.109 48.02L104.009 48.2C103.409 49.14 102.889 49.52 102.069 49.52C101.389 49.52 100.789 49.26 100.349 48.86L98.9094 51.1C99.5294 51.68 100.729 52.04 101.829 52.04C103.889 52.04 105.169 51.26 106.749 48.72L113.909 37.24H110.829ZM122.227 48.16C125.327 48.16 127.647 46.86 127.647 44.4C127.647 40.82 121.967 42.08 121.967 40.5C121.967 39.92 122.607 39.44 124.047 39.44C125.047 39.44 126.227 39.64 127.227 40.26L128.347 37.98C127.367 37.42 125.867 37.08 124.367 37.08C121.227 37.08 118.967 38.44 118.967 40.86C118.967 44.5 124.667 43.24 124.667 44.76C124.667 45.4 124.027 45.8 122.567 45.8C121.207 45.8 119.747 45.4 118.827 44.78L117.627 47.04C118.527 47.68 120.327 48.16 122.227 48.16ZM138.592 37.24L137.492 42.7C137.112 44.58 136.032 45.46 134.492 45.46C133.272 45.46 132.692 44.86 132.692 43.78C132.692 43.54 132.712 43.28 132.772 43L133.912 37.24H130.792L129.612 43.2C129.512 43.66 129.472 44.1 129.472 44.5C129.472 46.88 131.032 48.16 133.332 48.16C134.632 48.16 135.872 47.74 136.832 46.84L136.612 48H139.572L141.712 37.24H138.592ZM150.442 37.08C149.122 37.08 148.002 37.52 147.142 38.3L147.362 37.24H144.402L141.482 51.88H144.602L145.662 46.56C146.362 47.66 147.582 48.16 149.142 48.16C152.482 48.16 155.102 45.52 155.102 41.9C155.102 38.84 152.942 37.08 150.442 37.08ZM148.782 45.58C147.222 45.58 146.342 44.66 146.342 43.2C146.342 41.1 147.662 39.66 149.482 39.66C151.042 39.66 151.942 40.58 151.942 42.04C151.942 44.14 150.622 45.58 148.782 45.58ZM164.051 37.08C162.731 37.08 161.611 37.52 160.751 38.3L160.971 37.24H158.011L155.091 51.88H158.211L159.271 46.56C159.971 47.66 161.191 48.16 162.751 48.16C166.091 48.16 168.711 45.52 168.711 41.9C168.711 38.84 166.551 37.08 164.051 37.08ZM162.391 45.58C160.831 45.58 159.951 44.66 159.951 43.2C159.951 41.1 161.271 39.66 163.091 39.66C164.651 39.66 165.551 40.58 165.551 42.04C165.551 44.14 164.231 45.58 162.391 45.58ZM175.099 48.16C178.899 48.16 181.599 45.48 181.599 41.9C181.599 38.98 179.479 37.08 176.179 37.08C172.399 37.08 169.679 39.76 169.679 43.34C169.679 46.24 171.819 48.16 175.099 48.16ZM175.299 45.58C173.739 45.58 172.839 44.66 172.839 43.2C172.839 41.1 174.159 39.66 175.999 39.66C177.559 39.66 178.439 40.58 178.439 42.04C178.439 44.14 177.119 45.58 175.299 45.58ZM187.205 38.52L187.465 37.24H184.505L182.365 48H185.485L186.525 42.8C186.925 40.78 188.105 39.92 189.945 39.92C190.205 39.92 190.385 39.94 190.665 39.96L191.225 37.08C189.485 37.08 188.165 37.48 187.205 38.52ZM196.171 39.88H198.851L199.331 37.48H196.651L197.171 34.86H194.051L193.531 37.48H191.871L191.391 39.88H193.051L192.191 44.22C192.131 44.54 192.091 44.86 192.091 45.16C192.091 47.04 193.451 48.16 195.451 48.16C196.391 48.16 197.351 48 198.131 47.52L197.671 45.3C197.271 45.54 196.831 45.68 196.411 45.68C195.631 45.68 195.271 45.3 195.271 44.64C195.271 44.5 195.271 44.36 195.311 44.2L196.171 39.88ZM212.487 48.24C217.647 48.24 221.147 44.62 221.147 39.84C221.147 36.24 218.587 33.76 214.327 33.76C209.167 33.76 205.667 37.38 205.667 42.16C205.667 45.76 208.227 48.24 212.487 48.24ZM212.767 45.48C210.307 45.48 208.947 44.06 208.947 41.98C208.947 39.02 210.887 36.52 214.047 36.52C216.507 36.52 217.867 37.94 217.867 40.02C217.867 42.98 215.927 45.48 212.767 45.48ZM229.882 37.08C228.562 37.08 227.442 37.52 226.582 38.3L226.802 37.24H223.842L220.922 51.88H224.042L225.102 46.56C225.802 47.66 227.022 48.16 228.582 48.16C231.922 48.16 234.542 45.52 234.542 41.9C234.542 38.84 232.382 37.08 229.882 37.08ZM228.222 45.58C226.662 45.58 225.782 44.66 225.782 43.2C225.782 41.1 227.102 39.66 228.922 39.66C230.482 39.66 231.382 40.58 231.382 42.04C231.382 44.14 230.062 45.58 228.222 45.58ZM246.99 41.82C246.99 38.94 245.01 37.08 241.87 37.08C238.13 37.08 235.53 39.74 235.53 43.34C235.53 46.26 237.67 48.16 241.03 48.16C242.67 48.16 244.29 47.72 245.53 46.72L244.23 44.66C243.49 45.3 242.45 45.66 241.35 45.66C239.57 45.66 238.67 44.92 238.57 43.46H246.81C246.91 42.96 246.99 42.4 246.99 41.82ZM241.73 39.42C243.17 39.42 244.13 40.22 244.13 41.64H238.79C239.21 40.3 240.23 39.42 241.73 39.42ZM256.069 37.08C254.749 37.08 253.509 37.5 252.529 38.4L252.769 37.24H249.809L247.669 48H250.789L251.869 42.54C252.249 40.66 253.349 39.78 254.929 39.78C256.169 39.78 256.769 40.4 256.769 41.5C256.769 41.72 256.749 41.98 256.689 42.24L255.529 48H258.649L259.849 42.04C259.949 41.58 259.989 41.14 259.989 40.74C259.989 38.36 258.429 37.08 256.069 37.08ZM279.801 36.6L280.341 34H269.761L266.961 48H277.801L278.341 45.4H270.701L271.341 42.16H277.861L278.361 39.64H271.861L272.461 36.6H279.801ZM290.681 33.16L289.581 38.66C288.881 37.6 287.661 37.08 286.101 37.08C282.781 37.08 280.161 39.72 280.161 43.34C280.161 46.4 282.301 48.16 284.801 48.16C286.141 48.16 287.241 47.7 288.101 46.92L287.881 48H290.841L293.801 33.16H290.681ZM285.761 45.58C284.201 45.58 283.301 44.66 283.301 43.2C283.301 41.1 284.621 39.66 286.461 39.66C288.021 39.66 288.921 40.58 288.921 42.04C288.921 44.14 287.601 45.58 285.761 45.58ZM303.409 37.24L302.309 42.7C301.929 44.58 300.849 45.46 299.309 45.46C298.089 45.46 297.509 44.86 297.509 43.78C297.509 43.54 297.529 43.28 297.589 43L298.729 37.24H295.609L294.429 43.2C294.329 43.66 294.289 44.1 294.289 44.5C294.289 46.88 295.849 48.16 298.149 48.16C299.449 48.16 300.689 47.74 301.649 46.84L301.429 48H304.389L306.529 37.24H303.409ZM312.759 48.16C314.959 48.16 316.839 47.2 317.879 45.58L315.579 44.14C314.939 45.14 314.019 45.58 312.939 45.58C311.339 45.58 310.439 44.64 310.439 43.18C310.439 41.1 311.799 39.66 313.639 39.66C314.739 39.66 315.559 40.12 316.039 41.12L318.679 39.8C317.859 38.06 316.139 37.08 313.839 37.08C309.999 37.08 307.279 39.76 307.279 43.34C307.279 46.24 309.419 48.16 312.759 48.16ZM328.499 37.24L328.219 38.7C327.519 37.58 326.279 37.08 324.719 37.08C321.399 37.08 318.779 39.72 318.779 43.34C318.779 46.4 320.919 48.16 323.419 48.16C324.739 48.16 325.859 47.72 326.719 46.94L326.519 48H329.479L331.619 37.24H328.499ZM324.379 45.58C322.819 45.58 321.919 44.66 321.919 43.2C321.919 41.1 323.239 39.66 325.079 39.66C326.639 39.66 327.539 40.58 327.539 42.04C327.539 44.14 326.219 45.58 324.379 45.58ZM337.268 39.88H339.948L340.428 37.48H337.748L338.268 34.86H335.148L334.628 37.48H332.968L332.488 39.88H334.148L333.288 44.22C333.228 44.54 333.188 44.86 333.188 45.16C333.188 47.04 334.548 48.16 336.548 48.16C337.488 48.16 338.448 48 339.228 47.52L338.768 45.3C338.368 45.54 337.928 45.68 337.508 45.68C336.728 45.68 336.368 45.3 336.368 44.64C336.368 44.5 336.368 44.36 336.408 44.2L337.268 39.88ZM344.879 35.74C346.119 35.74 346.959 34.96 346.959 33.82C346.959 32.94 346.219 32.26 345.119 32.26C343.879 32.26 343.059 33.08 343.059 34.12C343.059 35.02 343.779 35.74 344.879 35.74ZM340.659 48H343.759L345.899 37.24H342.799L340.659 48ZM352.075 48.16C355.875 48.16 358.575 45.48 358.575 41.9C358.575 38.98 356.455 37.08 353.155 37.08C349.375 37.08 346.655 39.76 346.655 43.34C346.655 46.24 348.795 48.16 352.075 48.16ZM352.275 45.58C350.715 45.58 349.815 44.66 349.815 43.2C349.815 41.1 351.135 39.66 352.975 39.66C354.535 39.66 355.415 40.58 355.415 42.04C355.415 44.14 354.095 45.58 352.275 45.58ZM367.741 37.08C366.421 37.08 365.181 37.5 364.201 38.4L364.441 37.24H361.481L359.341 48H362.461L363.541 42.54C363.921 40.66 365.021 39.78 366.601 39.78C367.841 39.78 368.441 40.4 368.441 41.5C368.441 41.72 368.421 41.98 368.361 42.24L367.201 48H370.321L371.521 42.04C371.621 41.58 371.661 41.14 371.661 40.74C371.661 38.36 370.101 37.08 367.741 37.08Z" fill="#333333"/>
<path d="M46.716 72.808C48.312 71.968 49.32 70.456 49.32 68.496C49.32 65.444 46.8 63.4 41.9 63.4H32.324V83H42.46C47.612 83 50.3 81.04 50.3 77.652C50.3 75.188 48.9 73.508 46.716 72.808ZM41.34 66.816C43.552 66.816 44.756 67.572 44.756 69.112C44.756 70.652 43.552 71.436 41.34 71.436H36.832V66.816H41.34ZM42.124 79.584H36.832V74.74H42.124C44.476 74.74 45.736 75.524 45.736 77.176C45.736 78.856 44.476 79.584 42.124 79.584ZM68.0822 75.524C68.0822 70.68 64.6662 67.712 60.2422 67.712C55.6502 67.712 52.2062 70.96 52.2062 75.468C52.2062 79.948 55.5942 83.224 60.8022 83.224C63.5182 83.224 65.6182 82.384 67.0182 80.788L64.6942 78.268C63.6582 79.248 62.5102 79.724 60.9142 79.724C58.6182 79.724 57.0222 78.576 56.6022 76.7H67.9982C68.0262 76.336 68.0822 75.86 68.0822 75.524ZM60.2702 71.016C62.2302 71.016 63.6582 72.248 63.9662 74.152H56.5462C56.8542 72.22 58.2822 71.016 60.2702 71.016ZM78.1702 83.224C81.3342 83.224 83.8262 81.824 84.9182 79.416L81.5302 77.568C80.7182 79.024 79.5142 79.64 78.1422 79.64C75.9302 79.64 74.1942 78.1 74.1942 75.468C74.1942 72.836 75.9302 71.296 78.1422 71.296C79.5142 71.296 80.7182 71.94 81.5302 73.368L84.9182 71.548C83.8262 69.084 81.3342 67.712 78.1702 67.712C73.2702 67.712 69.7702 70.932 69.7702 75.468C69.7702 80.004 73.2702 83.224 78.1702 83.224ZM94.3098 83.224C99.0978 83.224 102.57 80.004 102.57 75.468C102.57 70.932 99.0978 67.712 94.3098 67.712C89.5218 67.712 86.0218 70.932 86.0218 75.468C86.0218 80.004 89.5218 83.224 94.3098 83.224ZM94.3098 79.64C92.1258 79.64 90.4458 78.072 90.4458 75.468C90.4458 72.864 92.1258 71.296 94.3098 71.296C96.4938 71.296 98.1458 72.864 98.1458 75.468C98.1458 78.072 96.4938 79.64 94.3098 79.64ZM124.681 67.712C122.413 67.712 120.453 68.636 119.249 70.176C118.185 68.524 116.393 67.712 114.293 67.712C112.361 67.712 110.681 68.384 109.561 69.672V67.936H105.389V83H109.757V75.44C109.757 72.752 111.129 71.492 113.061 71.492C114.881 71.492 115.917 72.612 115.917 75.048V83H120.285V75.44C120.285 72.752 121.657 71.492 123.617 71.492C125.381 71.492 126.473 72.612 126.473 75.048V83H130.841V74.376C130.841 69.784 128.265 67.712 124.681 67.712ZM149.577 75.524C149.577 70.68 146.161 67.712 141.737 67.712C137.145 67.712 133.701 70.96 133.701 75.468C133.701 79.948 137.089 83.224 142.297 83.224C145.013 83.224 147.113 82.384 148.513 80.788L146.189 78.268C145.153 79.248 144.005 79.724 142.409 79.724C140.113 79.724 138.517 78.576 138.097 76.7H149.493C149.521 76.336 149.577 75.86 149.577 75.524ZM141.765 71.016C143.725 71.016 145.153 72.248 145.461 74.152H138.041C138.349 72.22 139.777 71.016 141.765 71.016ZM166.29 67.712C163.882 67.712 161.446 68.356 159.794 69.532L161.362 72.584C162.454 71.716 164.106 71.184 165.702 71.184C168.054 71.184 169.174 72.276 169.174 74.152H165.702C161.11 74.152 159.234 76 159.234 78.66C159.234 81.264 161.334 83.224 164.862 83.224C167.074 83.224 168.642 82.496 169.454 81.124V83H173.542V74.404C173.542 69.84 170.882 67.712 166.29 67.712ZM165.954 80.284C164.414 80.284 163.49 79.556 163.49 78.464C163.49 77.456 164.134 76.7 166.178 76.7H169.174V78.24C168.67 79.612 167.41 80.284 165.954 80.284ZM186.552 67.712C184.508 67.712 182.744 68.412 181.568 69.7V67.936H177.396V83H181.764V75.552C181.764 72.78 183.276 71.492 185.376 71.492C187.308 71.492 188.428 72.612 188.428 75.048V83H192.796V74.376C192.796 69.784 190.108 67.712 186.552 67.712ZM214.285 83.336C220.445 83.336 225.009 79.052 225.009 73.2C225.009 67.348 220.445 63.064 214.285 63.064C208.097 63.064 203.561 67.376 203.561 73.2C203.561 79.024 208.097 83.336 214.285 83.336ZM214.285 79.472C210.785 79.472 208.153 76.924 208.153 73.2C208.153 69.476 210.785 66.928 214.285 66.928C217.785 66.928 220.417 69.476 220.417 73.2C220.417 76.924 217.785 79.472 214.285 79.472ZM232.826 79.36V74.824H241.926V71.296H232.826V67.04H243.13V63.4H228.318V83H243.494V79.36H232.826ZM260.192 78.632C259.044 79.248 257.896 79.472 256.664 79.472C252.912 79.472 250.308 76.868 250.308 73.2C250.308 69.476 252.912 66.928 256.72 66.928C258.708 66.928 260.36 67.628 261.788 69.14L264.7 66.452C262.796 64.24 259.94 63.064 256.496 63.064C250.252 63.064 245.716 67.292 245.716 73.2C245.716 79.108 250.252 83.336 256.412 83.336C259.212 83.336 262.18 82.468 264.336 80.844V72.892H260.192V78.632ZM268.142 83H272.51V62.224H268.142V83ZM283.632 83.224C288.42 83.224 291.892 80.004 291.892 75.468C291.892 70.932 288.42 67.712 283.632 67.712C278.844 67.712 275.344 70.932 275.344 75.468C275.344 80.004 278.844 83.224 283.632 83.224ZM283.632 79.64C281.448 79.64 279.768 78.072 279.768 75.468C279.768 72.864 281.448 71.296 283.632 71.296C285.816 71.296 287.468 72.864 287.468 75.468C287.468 78.072 285.816 79.64 283.632 79.64ZM303.615 67.712C301.739 67.712 300.199 68.3 299.079 69.532V62.224H294.711V83H298.883V81.264C299.975 82.58 301.599 83.224 303.615 83.224C307.843 83.224 311.119 80.2 311.119 75.468C311.119 70.736 307.843 67.712 303.615 67.712ZM302.859 79.64C300.675 79.64 299.023 78.072 299.023 75.468C299.023 72.864 300.675 71.296 302.859 71.296C305.043 71.296 306.695 72.864 306.695 75.468C306.695 78.072 305.043 79.64 302.859 79.64ZM319.773 67.712C317.365 67.712 314.929 68.356 313.277 69.532L314.845 72.584C315.937 71.716 317.589 71.184 319.185 71.184C321.537 71.184 322.657 72.276 322.657 74.152H319.185C314.593 74.152 312.717 76 312.717 78.66C312.717 81.264 314.817 83.224 318.345 83.224C320.557 83.224 322.125 82.496 322.937 81.124V83H327.025V74.404C327.025 69.84 324.365 67.712 319.773 67.712ZM319.437 80.284C317.897 80.284 316.973 79.556 316.973 78.464C316.973 77.456 317.617 76.7 319.661 76.7H322.657V78.24C322.153 79.612 320.893 80.284 319.437 80.284ZM330.878 83H335.246V62.224H330.878V83ZM369.43 83L369.374 63.4H365.65L358.426 75.58L351.09 63.4H347.338V83H351.594V71.492L357.334 80.928H359.378L365.146 71.24L365.174 83H369.43ZM388.428 75.524C388.428 70.68 385.012 67.712 380.588 67.712C375.996 67.712 372.552 70.96 372.552 75.468C372.552 79.948 375.94 83.224 381.148 83.224C383.864 83.224 385.964 82.384 387.364 80.788L385.04 78.268C384.004 79.248 382.856 79.724 381.26 79.724C378.964 79.724 377.368 78.576 376.948 76.7H388.344C388.372 76.336 388.428 75.86 388.428 75.524ZM380.616 71.016C382.576 71.016 384.004 72.248 384.312 74.152H376.892C377.2 72.22 378.628 71.016 380.616 71.016ZM410.528 67.712C408.26 67.712 406.3 68.636 405.096 70.176C404.032 68.524 402.24 67.712 400.14 67.712C398.208 67.712 396.528 68.384 395.408 69.672V67.936H391.236V83H395.604V75.44C395.604 72.752 396.976 71.492 398.908 71.492C400.728 71.492 401.764 72.612 401.764 75.048V83H406.132V75.44C406.132 72.752 407.504 71.492 409.464 71.492C411.228 71.492 412.32 72.612 412.32 75.048V83H416.688V74.376C416.688 69.784 414.112 67.712 410.528 67.712ZM429.407 67.712C427.531 67.712 425.991 68.3 424.871 69.532V62.224H420.503V83H424.675V81.264C425.767 82.58 427.391 83.224 429.407 83.224C433.635 83.224 436.911 80.2 436.911 75.468C436.911 70.736 433.635 67.712 429.407 67.712ZM428.651 79.64C426.467 79.64 424.815 78.072 424.815 75.468C424.815 72.864 426.467 71.296 428.651 71.296C430.835 71.296 432.487 72.864 432.487 75.468C432.487 78.072 430.835 79.64 428.651 79.64ZM454.492 75.524C454.492 70.68 451.076 67.712 446.652 67.712C442.06 67.712 438.616 70.96 438.616 75.468C438.616 79.948 442.004 83.224 447.212 83.224C449.928 83.224 452.028 82.384 453.428 80.788L451.104 78.268C450.068 79.248 448.92 79.724 447.324 79.724C445.028 79.724 443.432 78.576 443.012 76.7H454.408C454.436 76.336 454.492 75.86 454.492 75.524ZM446.68 71.016C448.64 71.016 450.068 72.248 450.376 74.152H442.956C443.264 72.22 444.692 71.016 446.68 71.016ZM461.472 69.924V67.936H457.3V83H461.668V75.888C461.668 73.004 463.264 71.688 465.672 71.688C466.008 71.688 466.288 71.716 466.652 71.744V67.712C464.328 67.712 462.536 68.468 461.472 69.924Z" fill="#333333"/>
<rect x="32" y="98" width="129" height="8" fill="#26D7B2"/>
<g style="mix-blend-mode:multiply">
<ellipse cx="1202" cy="178.5" rx="102" ry="89.5" fill="#3B80F7"/>
</g>
<path d="M1203.71 146.296L1206.68 143.493C1208.49 141.815 1208.84 140.671 1208.84 139.417C1208.84 137.075 1206.92 135.6 1204.04 135.6C1201.72 135.6 1199.91 136.54 1198.92 137.997L1201.09 139.399C1201.72 138.532 1202.66 138.108 1203.77 138.108C1205.13 138.108 1205.83 138.698 1205.83 139.712C1205.83 140.339 1205.63 141.003 1204.49 142.091L1199.51 146.794V148.73H1209.26V146.296H1203.71ZM1216.01 140.671H1214.96L1215.16 138.219H1220.54V135.821H1212.67L1212.01 143.087H1215.31C1217.65 143.087 1218.31 143.751 1218.31 144.765C1218.31 145.816 1217.39 146.443 1215.9 146.443C1214.55 146.443 1213.2 146.019 1212.23 145.282L1211.05 147.568C1212.3 148.453 1214.18 148.951 1215.97 148.951C1219.66 148.951 1221.34 146.96 1221.34 144.673C1221.34 142.386 1219.82 140.671 1216.01 140.671ZM1229.17 148.951C1232.36 148.951 1234.7 146.536 1234.7 142.276C1234.7 138.016 1232.36 135.6 1229.17 135.6C1226 135.6 1223.64 138.016 1223.64 142.276C1223.64 146.536 1226 148.951 1229.17 148.951ZM1229.17 146.425C1227.69 146.425 1226.66 145.208 1226.66 142.276C1226.66 139.343 1227.69 138.126 1229.17 138.126C1230.66 138.126 1231.69 139.343 1231.69 142.276C1231.69 145.208 1230.66 146.425 1229.17 146.425ZM1246.51 141.151H1243.3V138.016H1240.93V141.151H1237.73V143.401H1240.93V146.536H1243.3V143.401H1246.51V141.151ZM1157.47 160.809L1155.06 167.521L1152.7 160.809H1150.26L1147.83 167.521L1145.49 160.809H1142.78L1146.35 170.73H1149.12L1151.42 164.571L1153.66 170.73H1156.42L1160.02 160.809H1157.47ZM1166.89 170.878C1170.05 170.878 1172.33 168.757 1172.33 165.769C1172.33 162.782 1170.05 160.661 1166.89 160.661C1163.74 160.661 1161.43 162.782 1161.43 165.769C1161.43 168.757 1163.74 170.878 1166.89 170.878ZM1166.89 168.517C1165.45 168.517 1164.35 167.484 1164.35 165.769C1164.35 164.054 1165.45 163.022 1166.89 163.022C1168.33 163.022 1169.42 164.054 1169.42 165.769C1169.42 167.484 1168.33 168.517 1166.89 168.517ZM1178.09 162.118V160.809H1175.34V170.73H1178.22V166.046C1178.22 164.147 1179.27 163.28 1180.86 163.28C1181.08 163.28 1181.26 163.298 1181.5 163.317V160.661C1179.97 160.661 1178.79 161.159 1178.09 162.118ZM1184.3 170.73H1187.18V157.047H1184.3V170.73ZM1198.16 157.047V161.86C1197.44 161.048 1196.41 160.661 1195.19 160.661C1192.39 160.661 1190.23 162.653 1190.23 165.769C1190.23 168.886 1192.39 170.878 1195.19 170.878C1196.52 170.878 1197.57 170.453 1198.29 169.587V170.73H1201.04V157.047H1198.16ZM1195.69 168.517C1194.25 168.517 1193.15 167.484 1193.15 165.769C1193.15 164.054 1194.25 163.022 1195.69 163.022C1197.11 163.022 1198.22 164.054 1198.22 165.769C1198.22 167.484 1197.11 168.517 1195.69 168.517ZM1218.18 160.809L1215.76 167.521L1213.4 160.809H1210.97L1208.53 167.521L1206.19 160.809H1203.48L1207.06 170.73H1209.82L1212.13 164.571L1214.36 170.73H1217.13L1220.72 160.809H1218.18ZM1224.58 159.426C1225.65 159.426 1226.37 158.725 1226.37 157.766C1226.37 156.881 1225.65 156.217 1224.58 156.217C1223.51 156.217 1222.8 156.918 1222.8 157.821C1222.8 158.725 1223.51 159.426 1224.58 159.426ZM1223.15 170.73H1226.02V160.809H1223.15V170.73ZM1237.01 157.047V161.86C1236.29 161.048 1235.26 160.661 1234.04 160.661C1231.24 160.661 1229.08 162.653 1229.08 165.769C1229.08 168.886 1231.24 170.878 1234.04 170.878C1235.37 170.878 1236.42 170.453 1237.14 169.587V170.73H1239.88V157.047H1237.01ZM1234.54 168.517C1233.1 168.517 1231.99 167.484 1231.99 165.769C1231.99 164.054 1233.1 163.022 1234.54 163.022C1235.96 163.022 1237.06 164.054 1237.06 165.769C1237.06 167.484 1235.96 168.517 1234.54 168.517ZM1253.35 165.806C1253.35 162.616 1251.1 160.661 1248.19 160.661C1245.16 160.661 1242.9 162.8 1242.9 165.769C1242.9 168.72 1245.13 170.878 1248.56 170.878C1250.35 170.878 1251.73 170.324 1252.65 169.273L1251.12 167.614C1250.44 168.259 1249.68 168.572 1248.63 168.572C1247.12 168.572 1246.07 167.816 1245.79 166.581H1253.3C1253.32 166.341 1253.35 166.028 1253.35 165.806ZM1248.21 162.837C1249.5 162.837 1250.44 163.649 1250.64 164.903H1245.75C1245.96 163.63 1246.9 162.837 1248.21 162.837Z" fill="white"/>
<path d="M978.046 146.738L978.947 199.356L932.929 173.828L978.046 146.738Z" fill="#FF5547"/>
</g>
<defs>
<clipPath id="clip0_2012_7451">
<rect width="1280" height="206" fill="white"/>
</clipPath>
</defs>
</svg>
