<svg width="184" height="184" viewBox="0 0 184 184" fill="none" xmlns="http://www.w3.org/2000/svg">
<g clip-path="url(#clip0_265_2187)">
<circle cx="92.5899" cy="94.2753" r="74.7247" fill="#B9EDB6"/>
<path d="M161.326 49.795L161.326 49.795C161.068 49.287 160.655 48.8739 160.146 48.615C159.806 48.4415 159.452 48.3773 159.096 48.3483C158.759 48.3207 158.35 48.3207 157.875 48.3208L157.841 48.3208H22.9425L22.9078 48.3208C22.4334 48.3207 22.0241 48.3207 21.687 48.3483C21.3312 48.3773 20.9773 48.4415 20.6367 48.615C20.1287 48.8739 19.7156 49.287 19.4568 49.795C19.2833 50.1355 19.2191 50.4894 19.19 50.8452C19.1625 51.1824 19.1625 51.5916 19.1625 52.0661L19.1625 52.1008V140.845L19.1625 140.88C19.1625 141.355 19.1625 141.764 19.19 142.101C19.2191 142.457 19.2833 142.811 19.4568 143.151C19.7156 143.659 20.1287 144.072 20.6367 144.331C20.9773 144.505 21.3312 144.569 21.687 144.598C22.0241 144.626 22.4333 144.626 22.9077 144.626H22.9425H157.841H157.875C158.35 144.626 158.759 144.626 159.096 144.598C159.452 144.569 159.806 144.505 160.146 144.331C160.655 144.072 161.068 143.659 161.326 143.151L160.525 142.743L161.326 143.151C161.5 142.811 161.564 142.457 161.593 142.101C161.621 141.764 161.621 141.355 161.621 140.88V140.845V52.1008V52.066C161.621 51.5916 161.621 51.1823 161.593 50.8452C161.564 50.4894 161.5 50.1355 161.326 49.795Z" fill="white" stroke="#2DAA2A" stroke-width="1.8" stroke-linecap="round" stroke-linejoin="round"/>
<rect x="121.184" y="39.1097" width="7.76793" height="16.3149" rx="3" fill="#DBF5D6" stroke="#2DAA2A" stroke-width="2" stroke-linecap="round" stroke-linejoin="round"/>
<rect x="51.5869" y="39.1097" width="7.76793" height="16.3149" rx="3" fill="#DBF5D6" stroke="#2DAA2A" stroke-width="2" stroke-linecap="round" stroke-linejoin="round"/>
<path d="M28.8223 85.4141H50.8001V102.996H28.8223V85.4141Z" fill="#DBF5D6"/>
<path d="M28.8223 68.6346H50.8001V75.9605H28.8223V68.6346Z" fill="#DBF5D6"/>
<path d="M28.8223 105.264H50.8001V122.847H28.8223V105.264Z" fill="#DBF5D6"/>
<path d="M54.1045 85.4141H76.0823V102.996H54.1045V85.4141Z" fill="#DBF5D6"/>
<path d="M54.1045 68.6346H76.0823V75.9605H54.1045V68.6346Z" fill="#DBF5D6"/>
<path d="M54.1045 105.264H76.0823V122.847H54.1045V105.264Z" fill="#DBF5D6"/>
<path d="M79.3872 85.4141H101.365V102.996H79.3872V85.4141Z" fill="#DBF5D6"/>
<path d="M79.3872 68.6346H101.365V75.9605H79.3872V68.6346Z" fill="#DBF5D6"/>
<path d="M79.3872 105.264H101.365V122.847H79.3872V105.264Z" fill="#DBF5D6"/>
<path d="M104.669 85.4141H126.647V102.996H104.669V85.4141Z" fill="#DBF5D6"/>
<path d="M104.669 68.6346H126.647V75.9605H104.669V68.6346Z" fill="#DBF5D6"/>
<path d="M104.669 105.264H126.647V122.847H104.669V105.264Z" fill="#DBF5D6"/>
<path d="M129.952 85.4141H151.93V102.996H129.952V85.4141Z" fill="#DBF5D6"/>
<path d="M129.952 68.6346H151.93V75.9605H129.952V68.6346Z" fill="#DBF5D6"/>
<path d="M129.952 105.264H151.93V122.847H129.952V105.264Z" fill="#DBF5D6"/>
<ellipse cx="63.2647" cy="96.7303" rx="8.03761" ry="8.04296" fill="#B9EDB6"/>
<path fill-rule="evenodd" clip-rule="evenodd" d="M75.9489 93.2037C75.9489 93.4788 75.8322 93.7538 75.6222 93.9518L65.5881 103.413C65.3781 103.611 65.0864 103.721 64.7948 103.721C64.5031 103.721 64.2114 103.611 64.0014 103.413L58.1909 97.9344C57.9809 97.7363 57.8643 97.4613 57.8643 97.1863C57.8643 96.9112 57.9809 96.6362 58.1909 96.4382L59.7777 94.942C59.9877 94.7439 60.2794 94.6339 60.5711 94.6339C60.8628 94.6339 61.1545 94.7439 61.3645 94.942L64.7948 98.1874L72.4486 90.9594C72.6586 90.7614 72.9503 90.6514 73.242 90.6514C73.5337 90.6514 73.8254 90.7614 74.0354 90.9594L75.6222 92.4556C75.8322 92.6536 75.9489 92.9287 75.9489 93.2037Z" fill="#2DAA2A"/>
<ellipse cx="114.791" cy="94.7768" rx="8.03761" ry="8.04296" fill="#B9EDB6"/>
<path fill-rule="evenodd" clip-rule="evenodd" d="M127.475 91.2501C127.475 91.5251 127.359 91.8002 127.149 91.9982L117.115 101.46C116.904 101.658 116.613 101.768 116.321 101.768C116.029 101.768 115.738 101.658 115.528 101.46L109.717 95.9808C109.507 95.7827 109.391 95.5077 109.391 95.2327C109.391 94.9576 109.507 94.6826 109.717 94.4846L111.304 92.9883C111.514 92.7903 111.806 92.6803 112.097 92.6803C112.389 92.6803 112.681 92.7903 112.891 92.9883L116.321 96.2338L123.975 89.0058C124.185 88.8078 124.477 88.6978 124.768 88.6978C125.06 88.6978 125.352 88.8078 125.562 89.0058L127.149 90.502C127.359 90.7 127.475 90.9751 127.475 91.2501Z" fill="#2DAA2A"/>
<ellipse cx="137.989" cy="114.313" rx="8.03761" ry="8.04296" fill="#B9EDB6"/>
<path fill-rule="evenodd" clip-rule="evenodd" d="M150.673 110.786C150.673 111.061 150.557 111.336 150.347 111.534L140.313 120.995C140.103 121.193 139.811 121.303 139.519 121.303C139.228 121.303 138.936 121.193 138.726 120.995L132.916 115.517C132.706 115.319 132.589 115.044 132.589 114.769C132.589 114.494 132.706 114.218 132.916 114.02L134.502 112.524C134.712 112.326 135.004 112.216 135.296 112.216C135.587 112.216 135.879 112.326 136.089 112.524L139.519 115.77L147.173 108.542C147.383 108.344 147.675 108.234 147.967 108.234C148.258 108.234 148.55 108.344 148.76 108.542L150.347 110.038C150.557 110.236 150.673 110.511 150.673 110.786Z" fill="#2DAA2A"/>
<ellipse cx="88.5391" cy="114.313" rx="8.03761" ry="8.04296" fill="#B9EDB6"/>
<path fill-rule="evenodd" clip-rule="evenodd" d="M101.224 110.786C101.224 111.061 101.107 111.336 100.897 111.534L90.863 120.995C90.653 121.193 90.3613 121.303 90.0697 121.303C89.778 121.303 89.4863 121.193 89.2763 120.995L83.4659 115.517C83.2558 115.319 83.1392 115.044 83.1392 114.769C83.1392 114.494 83.2558 114.218 83.4659 114.02L85.0526 112.524C85.2626 112.326 85.5543 112.216 85.846 112.216C86.1377 112.216 86.4294 112.326 86.6394 112.524L90.0697 115.77L97.7235 108.542C97.9336 108.344 98.2252 108.234 98.5169 108.234C98.8086 108.234 99.1003 108.344 99.3103 108.542L100.897 110.038C101.107 110.236 101.224 110.511 101.224 110.786Z" fill="#2DAA2A"/>
<ellipse cx="39.0889" cy="92.3348" rx="8.03761" ry="8.04296" fill="#B9EDB6"/>
<path fill-rule="evenodd" clip-rule="evenodd" d="M51.7736 88.8082C51.7736 89.0832 51.6569 89.3582 51.4469 89.5563L41.4129 99.0176C41.2028 99.2156 40.9111 99.3256 40.6195 99.3256C40.3278 99.3256 40.0361 99.2156 39.8261 99.0176L34.0157 93.5388C33.8056 93.3408 33.689 93.0657 33.689 92.7907C33.689 92.5157 33.8056 92.2406 34.0157 92.0426L35.6024 90.5464C35.8125 90.3484 36.1041 90.2383 36.3958 90.2383C36.6875 90.2383 36.9792 90.3484 37.1892 90.5464L40.6195 93.7918L48.2733 86.5638C48.4834 86.3658 48.775 86.2558 49.0667 86.2558C49.3584 86.2558 49.6501 86.3658 49.8601 86.5638L51.4469 88.06C51.6569 88.2581 51.7736 88.5331 51.7736 88.8082Z" fill="#2DAA2A"/>
<ellipse cx="64.73" cy="115.534" rx="8.03761" ry="8.04296" fill="#B9EDB6"/>
<path fill-rule="evenodd" clip-rule="evenodd" d="M77.4142 112.007C77.4142 112.282 77.2975 112.557 77.0875 112.755L67.0535 122.216C66.8435 122.414 66.5518 122.525 66.2601 122.525C65.9684 122.525 65.6767 122.414 65.4667 122.216L59.6563 116.738C59.4463 116.54 59.3296 116.265 59.3296 115.99C59.3296 115.715 59.4463 115.44 59.6563 115.242L61.2431 113.745C61.4531 113.547 61.7448 113.437 62.0364 113.437C62.3281 113.437 62.6198 113.547 62.8298 113.745L66.2601 116.991L73.914 109.763C74.124 109.565 74.4157 109.455 74.7074 109.455C74.999 109.455 75.2907 109.565 75.5007 109.763L77.0875 111.259C77.2975 111.457 77.4142 111.732 77.4142 112.007Z" fill="#2DAA2A"/>
<path fill-rule="evenodd" clip-rule="evenodd" d="M17.1198 117.701C17.801 117.33 18.3491 116.816 18.764 116.158C19.1789 115.5 19.4149 114.793 19.4719 114.038C19.5289 113.282 19.3884 112.564 19.0505 111.885C18.7125 111.205 18.2284 110.667 17.5982 110.27C16.9679 109.873 16.2763 109.663 15.5235 109.642C14.7706 109.62 14.0536 109.794 13.3723 110.165C12.6911 110.536 12.1491 111.047 11.7464 111.698C11.3436 112.349 11.1167 113.059 11.0658 113.827C11.0148 114.595 11.1583 115.319 11.4963 115.998C12.0152 117.042 12.8207 117.729 13.9126 118.059C15.0046 118.39 16.0736 118.271 17.1198 117.701ZM10.1334 103.445C12.1052 102.372 14.1552 101.866 16.2835 101.926C18.387 101.999 20.3229 102.585 22.0911 103.683C23.8715 104.806 25.2508 106.351 26.2289 108.316C26.9747 109.815 27.4608 111.736 27.6872 114.079C27.8655 116.074 27.8646 118.338 27.6845 120.871C27.5059 122.904 27.2223 125.072 26.8337 127.375C26.5703 128.986 26.2454 130.599 25.859 132.214L25.3917 134.107L23.6407 133.421C22.1539 132.825 20.7042 132.177 19.2915 131.479C17.2646 130.49 15.4039 129.488 13.7092 128.475C11.6218 127.175 9.84808 125.877 8.38808 124.579C6.68277 123.04 5.45723 121.522 4.71142 120.023C3.73332 118.058 3.31533 115.99 3.45743 113.821C3.61176 111.677 4.26388 109.683 5.41381 107.839C6.58839 105.983 8.16157 104.518 10.1334 103.445Z" fill="url(#paint0_linear_265_2187)"/>
<path fill-rule="evenodd" clip-rule="evenodd" d="M14.9982 116.902C15.6794 116.531 16.2275 116.016 16.6424 115.359C17.0573 114.701 17.2933 113.994 17.3503 113.238C17.4073 112.482 17.2668 111.765 16.9289 111.085C16.5909 110.406 16.1068 109.867 15.4766 109.47C14.8463 109.073 14.1548 108.864 13.4019 108.842C12.649 108.82 11.932 108.995 11.2508 109.366C10.5695 109.737 10.0276 110.248 9.62478 110.899C9.22201 111.55 8.99515 112.26 8.9442 113.028C8.89325 113.795 9.03674 114.519 9.37467 115.199C9.89364 116.242 10.6991 116.929 11.791 117.26C12.883 117.591 13.952 117.471 14.9982 116.902ZM8.01181 102.646C9.98364 101.573 12.0336 101.067 14.1619 101.126C16.2654 101.199 18.2013 101.785 19.9695 102.884C21.7499 104.007 23.1292 105.551 24.1073 107.517C24.8531 109.016 25.3392 110.937 25.5656 113.28C25.744 115.275 25.743 117.539 25.5629 120.072C25.3843 122.105 25.1007 124.273 24.7121 126.576C24.4488 128.187 24.1238 129.8 23.7374 131.415L23.2701 133.308L21.5191 132.622C20.0323 132.026 18.5826 131.378 17.1699 130.679C15.143 129.69 13.2823 128.689 11.5876 127.675C9.5002 126.376 7.7265 125.077 6.26649 123.78C4.56118 122.241 3.33564 120.722 2.58984 119.224C1.61174 117.258 1.19374 115.191 1.33585 113.022C1.49018 110.877 2.1423 108.883 3.29223 107.04C4.46681 105.183 6.03999 103.719 8.01181 102.646Z" fill="#DBF5D6"/>
<path d="M14.9982 116.902L15.1219 117.348L14.9982 116.902ZM15.4766 109.47L15.698 109.026L15.4766 109.47ZM14.1619 101.126L14.2256 100.633L14.2235 100.633L14.1619 101.126ZM19.9695 102.884L20.1911 102.439L20.1892 102.438L19.9695 102.884ZM24.1073 107.517L24.4613 107.223L24.1073 107.517ZM25.5656 113.28L25.9687 113.164L25.9683 113.16L25.5656 113.28ZM25.5629 120.072L25.966 120.061L25.9667 120.051L25.5629 120.072ZM24.7121 126.576L24.3154 126.538L24.3149 126.541L24.7121 126.576ZM23.7374 131.415L24.1245 131.499L24.1256 131.494L23.7374 131.415ZM23.2701 133.308L23.1022 133.78L23.521 133.944L23.6573 133.392L23.2701 133.308ZM21.5191 132.622L21.349 133.093L21.3512 133.093L21.5191 132.622ZM17.1699 130.679L17.3626 130.219L17.3611 130.218L17.1699 130.679ZM11.5876 127.675L11.3677 128.121L11.3726 128.124L11.5876 127.675ZM6.26649 123.78L5.9991 124.19L6.00106 124.191L6.26649 123.78ZM1.33585 113.022L0.932092 113.043L0.931837 113.047L1.33585 113.022ZM3.29223 107.04L2.98315 106.772L2.98117 106.775L3.29223 107.04ZM15.1219 117.348C15.867 116.942 16.4825 116.37 16.9519 115.626L16.3329 115.091C15.9725 115.663 15.4918 116.119 14.8745 116.455L15.1219 117.348ZM16.9519 115.626C17.4185 114.886 17.689 114.08 17.7539 113.22L16.9467 113.257C16.8976 113.908 16.6962 114.516 16.3329 115.091L16.9519 115.626ZM17.7539 113.22C17.8192 112.353 17.6558 111.541 17.283 110.791L16.5748 111.379C16.8779 111.989 16.9953 112.612 16.9467 113.257L17.7539 113.22ZM17.283 110.791C16.9104 110.042 16.3787 109.454 15.698 109.026L15.2552 109.915C15.835 110.28 16.2715 110.769 16.5748 111.379L17.283 110.791ZM15.698 109.026C15.0189 108.598 14.2728 108.372 13.4638 108.349L13.34 109.336C14.0367 109.356 14.6737 109.549 15.2552 109.915L15.698 109.026ZM13.4638 108.349C12.6529 108.325 11.872 108.514 11.1271 108.919L11.3745 109.812C11.9919 109.476 12.6451 109.315 13.34 109.336L13.4638 108.349ZM11.1271 108.919C10.3821 109.325 9.77099 109.895 9.31253 110.636L9.93704 111.162C10.2841 110.601 10.757 110.149 11.3745 109.812L11.1271 108.919ZM9.31253 110.636C8.85679 111.373 8.59789 112.183 8.54022 113.052L9.34818 113.003C9.39242 112.337 9.58724 111.727 9.93704 111.162L9.31253 110.636ZM8.54022 113.052C8.48216 113.927 8.64771 114.743 9.02056 115.493L9.72879 114.905C9.42576 114.296 9.30433 113.664 9.34818 113.003L8.54022 113.052ZM9.02056 115.493C9.59043 116.639 10.4747 117.385 11.6466 117.74L11.9355 116.78C10.9235 116.474 10.1968 115.846 9.72879 114.905L9.02056 115.493ZM11.6466 117.74C12.8186 118.095 13.9823 117.969 15.1219 117.348L14.8745 116.455C13.9217 116.974 12.9473 117.087 11.9355 116.78L11.6466 117.74ZM8.13538 103.092C10.045 102.053 12.0315 101.562 14.1003 101.62L14.2235 100.633C12.0358 100.572 9.92225 101.093 7.88824 102.199L8.13538 103.092ZM14.0981 101.62C16.1468 101.691 18.0295 102.261 19.7498 103.33L20.1892 102.438C18.3732 101.31 16.3841 100.708 14.2256 100.633L14.0981 101.62ZM19.7479 103.328C21.4766 104.419 22.809 105.913 23.7532 107.811L24.4613 107.223C23.4494 105.189 22.0233 103.595 20.1911 102.439L19.7479 103.328ZM23.7532 107.811C24.4666 109.244 24.9409 111.101 25.163 113.399L25.9683 113.16C25.7375 110.772 25.2395 108.787 24.4613 107.223L23.7532 107.811ZM25.1626 113.395C25.3376 115.353 25.3375 117.584 25.1591 120.093L25.9667 120.051C26.1486 117.493 26.1503 115.196 25.9687 113.164L25.1626 113.395ZM25.1599 120.083C24.9829 122.098 24.7016 124.249 24.3154 126.538L25.1089 126.614C25.4998 124.296 25.7857 122.112 25.9659 120.061L25.1599 120.083ZM24.3149 126.541C24.054 128.137 23.7321 129.735 23.3492 131.335L24.1256 131.494C24.5155 129.864 24.8435 128.236 25.1094 126.611L24.3149 126.541ZM23.3503 131.331L22.883 133.224L23.6573 133.392L24.1245 131.499L23.3503 131.331ZM23.4381 132.836L21.687 132.15L21.3512 133.093L23.1022 133.78L23.4381 132.836ZM21.6893 132.151C20.2099 131.558 18.7677 130.914 17.3626 130.219L16.9773 131.14C18.3975 131.843 19.8547 132.494 21.349 133.093L21.6893 132.151ZM17.3611 130.218C15.3411 129.232 13.4885 128.235 11.8027 127.227L11.3726 128.124C13.0761 129.143 14.945 130.149 16.9788 131.141L17.3611 130.218ZM11.8076 127.23C9.73184 125.937 7.97421 124.65 6.53193 123.368L6.00106 124.191C7.47878 125.505 9.26855 126.814 11.3677 128.121L11.8076 127.23ZM6.53388 123.37C4.84826 121.849 3.6591 120.367 2.9439 118.93L2.23578 119.518C3.01219 121.078 4.2741 122.633 5.99911 124.19L6.53388 123.37ZM2.9439 118.93C1.99964 117.032 1.60492 115.057 1.73986 112.997L0.931837 113.047C0.782572 115.325 1.22383 117.484 2.23578 119.518L2.9439 118.93ZM1.73959 113.001C1.88654 110.959 2.50546 109.065 3.60329 107.305L2.98117 106.775C1.77914 108.702 1.09382 110.795 0.932105 113.043L1.73959 113.001ZM3.6013 107.308C4.72024 105.539 6.22538 104.132 8.13538 103.092L7.88824 102.199C5.85459 103.306 4.21338 104.828 2.98316 106.772L3.6013 107.308Z" fill="#2DAA2A"/>
<path d="M122.662 79.62C122.891 78.6559 123.845 78.1064 124.792 78.3927L178.92 94.7493C179.868 95.0356 180.45 96.0492 180.221 97.0133L169.315 142.915C169.086 143.879 168.132 144.429 167.185 144.142L113.057 127.786C112.109 127.499 111.527 126.486 111.756 125.522L122.662 79.62Z" fill="url(#paint1_linear_265_2187)"/>
<path d="M126.905 75.9525C125.721 75.5946 124.529 76.2814 124.242 77.4865L113.336 123.388C113.05 124.593 113.778 125.86 114.962 126.218L169.091 142.575C170.275 142.933 171.467 142.246 171.753 141.041L182.659 95.1391C182.946 93.934 182.218 92.6669 181.033 92.309L126.905 75.9525Z" fill="white" stroke="#DBF5D6" stroke-width="0.9" stroke-linecap="round" stroke-linejoin="round"/>
<path d="M129.705 81.2382L177.486 95.6105L170.586 124.52L122.804 110.148L129.705 81.2382Z" fill="#DBF5D6"/>
<ellipse cx="5.22022" cy="4.69408" rx="5.22022" ry="4.69408" transform="matrix(0.953048 0.288094 -0.230347 0.969831 135.108 88.3159)" fill="#B9EDB6"/>
<path d="M121.555 116.141L168.134 129.085L167.426 131.825L120.847 118.882L121.555 116.141Z" fill="#B9EDB6"/>
<path d="M119.816 122.635L146.85 130.284L146.14 133.082L119.107 125.432L119.816 122.635Z" fill="#B9EDB6"/>
<path d="M122.822 110.664L143.909 102.628L153.55 114.036L164.568 110.947L171.096 119.787L169.907 124.544L122.822 110.664Z" fill="#B9EDB6"/>
</g>
<defs>
<linearGradient id="paint0_linear_265_2187" x1="-19.1229" y1="104.971" x2="21.4363" y2="138.179" gradientUnits="userSpaceOnUse">
<stop stop-color="white" stop-opacity="0.01"/>
<stop offset="1" stop-color="#DBF5D6"/>
</linearGradient>
<linearGradient id="paint1_linear_265_2187" x1="105.465" y1="74.9135" x2="108.026" y2="157.091" gradientUnits="userSpaceOnUse">
<stop stop-color="white" stop-opacity="0.01"/>
<stop offset="1" stop-color="#2DAA2A"/>
</linearGradient>
<clipPath id="clip0_265_2187">
<rect width="184" height="184" fill="white"/>
</clipPath>
</defs>
</svg>
