<svg width="184" height="184" viewBox="0 0 184 184" fill="none" xmlns="http://www.w3.org/2000/svg">
<g id="library-icon">
<g id="Group 9">
<g id="step1">
<circle id="Oval 3" cx="91.895" cy="92" r="80" fill="#FFDACC"/>
</g>
<g id="undraw_collecting_fjjl">
<g id="Combined Shape">
<mask id="path-2-outside-1_265_2122" maskUnits="userSpaceOnUse" x="4.79736" y="62.084" width="146" height="108" fill="black">
<rect fill="white" x="4.79736" y="62.084" width="146" height="108"/>
<path fill-rule="evenodd" clip-rule="evenodd" d="M93.0174 87.0936L37.3812 100.509L92.9256 115.159L148.872 100.205V152.702C148.872 153.611 148.258 154.406 147.379 154.637L92.5481 169.005L37.7291 154.925C36.8449 154.698 36.2267 153.901 36.2267 152.988V100.3L7.79736 77.6468L63.4101 63.1488C64.0398 62.9846 64.7099 63.137 65.2066 63.5574L93.0174 87.0936Z"/>
</mask>
<path fill-rule="evenodd" clip-rule="evenodd" d="M93.0174 87.0936L37.3812 100.509L92.9256 115.159L148.872 100.205V152.702C148.872 153.611 148.258 154.406 147.379 154.637L92.5481 169.005L37.7291 154.925C36.8449 154.698 36.2267 153.901 36.2267 152.988V100.3L7.79736 77.6468L63.4101 63.1488C64.0398 62.9846 64.7099 63.137 65.2066 63.5574L93.0174 87.0936Z" fill="#FFDACC"/>
<path d="M37.3812 100.509L37.1468 99.537L37.1261 101.476L37.3812 100.509ZM93.0174 87.0936L93.2518 88.0658L95.168 87.6037L93.6634 86.3303L93.0174 87.0936ZM92.9256 115.159L92.6706 116.126L92.9273 116.194L93.1839 116.126L92.9256 115.159ZM148.872 100.205H149.872V98.9022L148.614 99.2385L148.872 100.205ZM147.379 154.637L147.125 153.669L147.379 154.637ZM92.5481 169.005L92.2993 169.974L92.5506 170.038L92.8016 169.972L92.5481 169.005ZM37.7291 154.925L37.9779 153.956H37.9779L37.7291 154.925ZM36.2267 100.3H37.2267V99.8186L36.8498 99.5183L36.2267 100.3ZM7.79736 77.6468L7.5451 76.6791L5.61108 77.1833L7.17418 78.4288L7.79736 77.6468ZM63.4101 63.1488L63.1578 62.1811L63.4101 63.1488ZM65.2066 63.5574L65.8526 62.7941V62.7941L65.2066 63.5574ZM37.6156 101.481L93.2518 88.0658L92.7829 86.1215L37.1468 99.537L37.6156 101.481ZM93.1807 114.193L37.6362 99.5422L37.1261 101.476L92.6706 116.126L93.1807 114.193ZM93.1839 116.126L149.13 101.171L148.614 99.2385L92.6674 114.193L93.1839 116.126ZM147.872 100.205V152.702H149.872V100.205H147.872ZM147.872 152.702C147.872 153.157 147.565 153.554 147.125 153.669L147.632 155.604C148.952 155.258 149.872 154.066 149.872 152.702H147.872ZM147.125 153.669L92.2946 168.038L92.8016 169.972L147.632 155.604L147.125 153.669ZM37.4803 155.893L92.2993 169.974L92.7968 168.037L37.9779 153.956L37.4803 155.893ZM35.2267 152.988C35.2267 154.357 36.154 155.553 37.4803 155.893L37.9779 153.956C37.5358 153.843 37.2267 153.444 37.2267 152.988H35.2267ZM35.2267 100.3V152.988H37.2267V100.3H35.2267ZM7.17418 78.4288L35.6035 101.082L36.8498 99.5183L8.42055 76.8647L7.17418 78.4288ZM63.1578 62.1811L7.5451 76.6791L8.04963 78.6144L63.6623 64.1164L63.1578 62.1811ZM65.8526 62.7941C65.1076 62.1635 64.1023 61.9349 63.1578 62.1811L63.6623 64.1164C63.9772 64.0343 64.3123 64.1106 64.5606 64.3207L65.8526 62.7941ZM93.6634 86.3303L65.8526 62.7941L64.5606 64.3207L92.3714 87.857L93.6634 86.3303Z" fill="#FFAA99" mask="url(#path-2-outside-1_265_2122)"/>
</g>
<g id="Group" opacity="0.7">
<path id="Path" d="M122.663 61.7661L178.987 76.2324L149.324 100.023L93 86.4426L122.663 61.7661Z" fill="#FFDACC" stroke="#FF5547" stroke-linejoin="round"/>
<path id="Path_2" d="M6 77.7031L35.1473 100.928L91.9591 87.2322L63.1074 62.8165L6 77.7031Z" fill="#FFAA99"/>
<g id="Group_2" opacity="0.05">
<path id="Path_3" d="M6 77.7031L35.1473 100.928L91.9591 87.2322L63.1074 62.8165L6 77.7031Z" fill="#FFAA99"/>
</g>
<rect id="Rectangle" x="50.3369" y="75.1429" width="41.1952" height="38.0035" rx="0.864" fill="#FFAA99"/>
<rect id="Rectangle_2" x="62.542" y="81.4025" width="27.6175" height="0.695244" rx="0.1536" fill="#FFAA99"/>
<rect id="Rectangle_3" x="62.542" y="83.4883" width="27.6175" height="0.695244" rx="0.1536" fill="#FFAA99"/>
<rect id="Rectangle_4" x="52.8169" y="91.0631" width="37.3427" height="0.695244" rx="0.1536" fill="#FFAA99"/>
<rect id="Rectangle_5" x="52.8169" y="93.1489" width="37.3427" height="0.695244" rx="0.1536" fill="#FFAA99"/>
<rect id="Rectangle_6" x="52.8169" y="95.9298" width="37.3427" height="0.695244" rx="0.1536" fill="#FFAA99"/>
<rect id="Rectangle_7" x="52.8169" y="98.0179" width="21.5361" height="0.695244" rx="0.1536" fill="#FFAA99"/>
<rect id="Rectangle_8" x="52.8169" y="100.792" width="37.3427" height="0.695244" rx="0.1536" fill="#FFAA99"/>
<rect id="Rectangle_9" x="52.8169" y="102.878" width="37.3427" height="0.695244" rx="0.1536" fill="#FFAA99"/>
<rect id="Rectangle_10" x="52.8169" y="105.661" width="37.3427" height="0.695244" rx="0.1536" fill="#FFAA99"/>
<rect id="Rectangle_11" x="52.8169" y="107.747" width="21.5361" height="0.695244" rx="0.1536" fill="#FFAA99"/>
<g id="Group_3" opacity="0.5">
<rect id="Rectangle_12" x="56.186" y="83.8406" width="42.1666" height="38.9477" rx="0.864" fill="#FFDACC"/>
</g>
<rect id="Rectangle_13" x="56.6997" y="84.1436" width="41.1952" height="38.0035" rx="0.864" fill="#FFAA99"/>
<rect id="Rectangle_14" x="68.9072" y="90.4031" width="27.6175" height="0.695244" rx="0.1536" fill="#FFAA99"/>
<rect id="Rectangle_15" x="68.9072" y="92.4888" width="27.6175" height="0.695244" rx="0.1536" fill="#FFAA99"/>
<rect id="Rectangle_16" x="59.1797" y="100.061" width="37.3427" height="0.695244" rx="0.1536" fill="#FFAA99"/>
<rect id="Rectangle_17" x="59.1797" y="102.149" width="37.3427" height="0.695244" rx="0.1536" fill="#FFAA99"/>
<rect id="Rectangle_18" x="59.1797" y="104.93" width="37.3427" height="0.695244" rx="0.1536" fill="#FFAA99"/>
<rect id="Rectangle_19" x="59.1797" y="107.016" width="21.5361" height="0.695244" rx="0.1536" fill="#FFAA99"/>
<rect id="Rectangle_20" x="59.1797" y="109.792" width="37.3427" height="0.695244" rx="0.1536" fill="#FFAA99"/>
<rect id="Rectangle_21" x="59.1797" y="111.878" width="37.3427" height="0.695244" rx="0.1536" fill="#FFAA99"/>
<rect id="Rectangle_22" x="59.1797" y="114.661" width="37.3427" height="0.695244" rx="0.1536" fill="#FFAA99"/>
<rect id="Rectangle_23" x="59.1797" y="116.747" width="21.5361" height="0.695244" rx="0.1536" fill="#FFAA99"/>
<g id="Group_4" opacity="0.5">
<rect id="Rectangle_24" x="80.7065" y="88.8811" width="36.5356" height="42.9736" fill="#FFDACC"/>
</g>
<g id="Group_5" opacity="0.5">
<path id="Shape" fill-rule="evenodd" clip-rule="evenodd" d="M101.034 95.1077V96.1459H103.676V101.245H94.6196V96.1459H97.2685V95.1077H101.034ZM100.553 95.4812H97.7378V96.1412H100.553V95.4812Z" fill="#FFDACC"/>
</g>
<rect id="Rectangle_25" x="95.002" y="96.3174" width="8.2916" height="4.66941" fill="#FFAA99"/>
<path id="Path_4" d="M97.4214 95.3661V96.5781H97.8531V95.7137H100.443V96.5781H100.875V95.3661H97.4214Z" fill="#FFAA99"/>
<rect id="Rectangle_26" x="87.0132" y="107.707" width="24.3563" height="1.03817" fill="#FFAA99"/>
<rect id="Rectangle_27" x="87.0132" y="114.537" width="24.3563" height="1.03817" fill="#FFAA99"/>
<rect id="Rectangle_28" x="87.0132" y="116.353" width="24.3563" height="1.03817" fill="#FFAA99"/>
<rect id="Rectangle_29" x="87.0132" y="112.721" width="10.2789" height="1.03817" fill="#FFAA99"/>
<g id="Group_6" opacity="0.6">
<rect id="Rectangle_30" x="103.683" y="112.721" width="7.68627" height="1.03817" fill="#FFAA99"/>
</g>
<rect id="Rectangle_31" x="122.42" y="105.332" width="9.98793" height="0.789196" fill="#FFAA99"/>
<rect id="Rectangle_32" x="79.5708" y="45.4236" width="21.1607" height="17.2167" fill="#FFAA99"/>
<g id="Group_7" opacity="0.5">
<rect id="Rectangle_33" x="111.233" y="58.49" width="26.9066" height="22.1233" fill="#FFDACC"/>
</g>
<rect id="Rectangle_34" x="113.636" y="65.3931" width="22.0476" height="2.77158" fill="#FFAA99"/>
<rect id="Rectangle_35" x="114.786" y="66.335" width="6.26914" height="0.836171" fill="#FFAA99"/>
<g id="Group_8" opacity="0.1">
<path id="Path_5" d="M34.4058 141.87L66.2301 149.91L91.8088 129.067V116.263L34.9994 101.971L34.4058 141.87Z" fill="#FFAA99"/>
</g>
<g id="Group_9" opacity="0.1">
<path id="Path_6" d="M149.214 141.87L117.387 149.91L91.8086 129.067V116.263L148.618 101.971L149.214 141.87Z" fill="#FFAA99"/>
</g>
</g>
<path id="Path_7" d="M92.5479 86.6239L92.5479 169.005L148.872 154.245V100.205L92.5479 86.6239Z" fill="#FF5547"/>
<path id="Path_8" d="M92.548 86.6239V169.005L36.2266 154.539L36.2266 100.205L92.548 86.6239Z" fill="#FF5547"/>
<path id="Path_9" d="M36.696 100.674L93.0174 87.0937L65.2066 63.5575C64.7099 63.1371 64.0398 62.9847 63.4101 63.1488L7.79736 77.6468L36.696 100.674Z" fill="#FFDACC" stroke="#FF5547"/>
<g id="Group_10" opacity="0.5">
<rect id="Rectangle_36" x="50.7734" y="74.3397" width="41.8052" height="38.6142" rx="0.864" fill="#FFDACC"/>
</g>
<rect id="Rectangle_37" x="51.2847" y="74.6404" width="40.8409" height="37.677" rx="0.864" fill="#F5F5F5"/>
<rect id="Rectangle_38" x="54.4312" y="80.8458" width="6.88855" height="6.20552" rx="0.864" fill="#FF5547"/>
<rect id="Rectangle_39" x="63.3867" y="80.8458" width="27.3806" height="0.690546" rx="0.1536" fill="#FF5547"/>
<rect id="Rectangle_40" x="53.7437" y="90.4219" width="37.0236" height="0.690546" rx="0.1536" fill="#FF5547"/>
<rect id="Rectangle_41" x="53.7437" y="92.4912" width="37.0236" height="0.690546" rx="0.1536" fill="#FF5547"/>
<rect id="Rectangle_42" x="53.7437" y="95.2487" width="37.0236" height="0.690546" rx="0.1536" fill="#FF5547"/>
<rect id="Rectangle_43" x="53.7437" y="97.318" width="21.3531" height="0.690546" rx="0.1536" fill="#FF5547"/>
<rect id="Rectangle_44" x="53.7437" y="100.068" width="37.0236" height="0.690546" rx="0.1536" fill="#FF5547"/>
<rect id="Rectangle_45" x="53.7437" y="102.138" width="37.0236" height="0.690546" rx="0.1536" fill="#FF5547"/>
<rect id="Rectangle_46" x="53.7437" y="104.895" width="37.0236" height="0.690546" rx="0.1536" fill="#FF5547"/>
<rect id="Rectangle_47" x="53.7437" y="106.964" width="21.3531" height="0.690546" rx="0.1536" fill="#FF5547"/>
<rect id="Rectangle_48" x="57.5938" y="83.5634" width="40.8409" height="37.677" rx="0.864" fill="white"/>
<rect id="Rectangle_49" x="60.7397" y="89.7689" width="6.88855" height="7.04639" rx="0.864" fill="#FF5547"/>
<rect id="Rectangle_50" x="69.6958" y="89.7689" width="27.3806" height="0.690546" rx="0.1536" fill="#FF5547"/>
<rect id="Rectangle_51" x="69.6958" y="89.8323" width="27.3806" height="4.69759" rx="0.1536" fill="#FF5547"/>
<rect id="Rectangle_52" x="60.0527" y="99.345" width="37.0236" height="0.690546" rx="0.1536" fill="#FF5547"/>
<rect id="Rectangle_53" x="60.0527" y="101.414" width="37.0236" height="0.690546" rx="0.1536" fill="#FF5547"/>
<rect id="Rectangle_54" x="60.0527" y="104.172" width="37.0236" height="0.690546" rx="0.1536" fill="#FF5547"/>
<rect id="Rectangle_55" x="60.0527" y="106.241" width="21.3531" height="0.690546" rx="0.1536" fill="#FF5547"/>
<rect id="Rectangle_56" x="60.0527" y="108.992" width="37.0236" height="0.690546" rx="0.1536" fill="#FF5547"/>
<rect id="Rectangle_57" x="60.0527" y="111.061" width="37.0236" height="0.690546" rx="0.1536" fill="#FF5547"/>
<rect id="Rectangle_58" x="60.0527" y="113.818" width="37.0236" height="0.690546" rx="0.1536" fill="#FF5547"/>
<rect id="Rectangle_59" x="60.0527" y="115.888" width="21.3531" height="0.690546" rx="0.1536" fill="#FF5547"/>
<rect id="Rectangle_60" x="82.5083" y="88.9468" width="34.3395" height="40.9771" fill="white"/>
<rect id="Rectangle_61" x="91.4775" y="93.251" width="16.4013" height="9.39518" fill="#FF5547"/>
<path id="Path_10" d="M97.9653 94.6897V95.8899H98.3923V95.0326H100.961V95.8899H101.391V94.6897H97.9653Z" fill="#FF5547"/>
<rect id="Rectangle_62" x="87.647" y="106.265" width="24.1475" height="2.3488" fill="#FF5547"/>
<rect id="Rectangle_63" x="87.647" y="113.696" width="24.1475" height="1.02877" fill="#FF5547"/>
<rect id="Rectangle_64" x="87.647" y="115.498" width="24.1475" height="1.02877" fill="#FF5547"/>
<rect id="Rectangle_65" x="87.647" y="111.897" width="10.1897" height="1.02877" fill="#FF5547"/>
<rect id="Rectangle_66" x="96.1235" y="119.697" width="7.62058" height="1.02877" fill="#FF5547"/>
<path id="Path_11" d="M36.2266 152.988C36.2266 153.901 36.8448 154.698 37.729 154.925L92.548 169.005L93.3081 115.26L36.2266 100.205L36.2266 152.988Z" fill="#FFAA99" stroke="#FF5547"/>
<path id="Path_12" d="M92.5479 169.005L92.5479 115.26L148.872 100.205V152.702C148.872 153.611 148.258 154.406 147.379 154.637L92.5479 169.005Z" fill="#FFDACC" stroke="#FF5547"/>
<rect id="Rectangle_67" x="119.396" y="93.6797" width="16.6114" height="15.9765" fill="#FFDACC"/>
<rect id="Rectangle_68" x="119.656" y="94.0696" width="16.0905" height="15.2601" fill="#F5F5F5"/>
<rect id="Rectangle_69" opacity="0.6" x="123.015" y="96.874" width="9.37218" height="3.52085" fill="#FF5547"/>
<path id="Path_13" opacity="0.6" d="M126.399 96.1577V97.0714H126.726V96.4184H128.68V97.0714H129.004V96.1577H126.399Z" fill="#FF5547"/>
<rect id="Rectangle_70" x="122.751" y="101.83" width="9.90112" height="3.52319" fill="#FF5547"/>
<rect id="Rectangle_71" x="103.472" y="14.8588" width="16.6114" height="15.9765" fill="#FFDACC"/>
<rect id="Rectangle_72" x="101.234" y="12.3115" width="21.0874" height="21.1392" fill="#F5F5F5"/>
<rect id="Rectangle_73" x="104.748" y="16.2904" width="14.0583" height="7.04639" fill="#FF5547"/>
<path id="Path_14" opacity="0.6" d="M110.476 17.3367V18.2504H110.802V17.5974H112.756V18.2504H113.08V17.3367H110.476Z" fill="#FF5547"/>
<g id="Group_11" opacity="0.6">
<rect id="Rectangle_74" x="109.009" y="26.6028" width="5.79755" height="1.01679" fill="#FF5547"/>
</g>
<rect id="Rectangle_75" x="106.827" y="28.9515" width="9.90112" height="0.782149" fill="#FF5547"/>
<rect id="Rectangle_76" x="80.2676" y="45.1747" width="20.98" height="17.0687" fill="#F5F5F5"/>
<rect id="Rectangle_77" x="80.2676" y="45.1747" width="20.98" height="3.8074" fill="#FF5547"/>
<rect id="Rectangle_78" x="81.9404" y="50.3632" width="17.6367" height="2.21726" fill="#FF5547"/>
<rect id="Rectangle_79" x="81.9404" y="54.2528" width="12.8715" height="0.753964" fill="#FF5547"/>
<rect id="Rectangle_80" x="81.9404" y="58.1448" width="12.8715" height="0.753964" fill="#FF5547"/>
<rect id="Rectangle_81" x="81.9404" y="59.4413" width="4.30534" height="0.753964" fill="#FF5547"/>
<g id="Group_12" opacity="0.5">
<rect id="Rectangle_82" x="111.658" y="58.1284" width="26.6767" height="21.9354" fill="#FFDACC"/>
</g>
<rect id="Rectangle_83" x="111.97" y="58.5417" width="26.0033" height="21.158" fill="white"/>
<rect id="Rectangle_84" x="111.97" y="58.5417" width="26.0033" height="4.71873" fill="#FF5547"/>
<rect id="Rectangle_85" x="114.042" y="66.5323" width="21.8599" height="2.74809" fill="#FFDACC"/>
<rect id="Rectangle_86" x="114.042" y="71.4037" width="10.361" height="0.932472" fill="#FF5547"/>
<rect id="Rectangle_87" x="114.042" y="74.7531" width="5.33534" height="0.932472" fill="#FF5547"/>
</g>
<path id="Path_15" d="M178.518 124.911L122.49 139.081L93 116.056L149.324 101L178.518 124.911Z" fill="#FFAA99" stroke="#FF5547" stroke-linejoin="round"/>
<path id="Path_16" d="M8.16999 124.911L64.4914 139.081L93.39 116.056L37.0686 101L8.16999 124.911Z" fill="#FFAA99" stroke="#FF5547" stroke-linejoin="round"/>
</g>
</g>
</svg>
