<svg width="309" height="115" viewBox="0 0 309 115" fill="none" xmlns="http://www.w3.org/2000/svg">
<path fill-rule="evenodd" clip-rule="evenodd" d="M34.9022 79.9351C43.2768 93.4506 58.6388 101.325 74.7858 99.964C96.8978 98.1081 113.897 79.6488 113.891 57.4991V55.345C113.888 55.2455 113.815 55.1618 113.717 55.1453L113.65 55.1355C113.576 55.0733 113.486 55.0279 113.386 55.0063L110.358 54.5546L106.373 53.8337H106.321C105.45 53.6861 104.58 53.5471 103.71 53.4168L101.43 53.0954C97.7059 52.5482 94.0077 52.0966 90.4227 51.7665H90.3008L88.6562 51.6275L87.9427 51.5667C82.2431 51.1064 76.4827 50.8632 70.8092 50.8632C66.8151 50.8632 62.795 50.9848 58.8357 51.2106C57.2124 51.3077 55.5907 51.4238 53.971 51.5589C54.269 48.2256 54.819 45.0156 55.602 42.0047C56.8094 41.9123 58.0179 41.8309 59.2273 41.7605C63.056 41.5347 66.9544 41.4218 70.8179 41.4218C72.5582 41.4218 77.0309 41.5086 79.3977 41.5607C79.7904 41.5673 80.1229 41.2731 80.1634 40.8832L80.8944 34.4384C80.9042 34.3641 80.8825 34.2891 80.8347 34.2314C80.7868 34.1737 80.717 34.1386 80.642 34.1344C77.3702 33.978 74.0723 33.8998 70.8179 33.8998C66.8152 33.8998 62.7602 34.0214 58.7835 34.2473C58.6334 34.2561 58.4833 34.2651 58.3333 34.2743C58.7036 33.4744 59.0946 32.7003 59.5057 31.9543C62.5386 26.4529 66.2705 23.2029 70.1242 22.6626C70.264 22.6584 70.404 22.655 70.5441 22.6524C82.4705 22.4344 93.6849 28.3021 100.29 38.2166C100.355 38.3207 100.459 38.3943 100.578 38.4205C100.698 38.4467 100.823 38.4233 100.925 38.3556L106.703 34.6294C106.911 34.4926 106.973 34.2158 106.843 34.004C103.049 28.2979 97.9409 23.5829 91.9454 20.2544C75.2815 11.0171 54.5021 13.9235 41.0235 27.3767C38.0387 30.3543 35.5676 33.6954 33.6322 37.2757C27.9415 38.3163 22.2932 39.5949 16.7025 41.1091C16.6664 41.1182 16.6365 41.1432 16.6213 41.177C16.606 41.2109 16.6071 41.2498 16.6242 41.2828L19.9569 47.9014C19.9904 47.9638 20.0619 47.9958 20.1309 47.9795C23.4722 47.1 26.8342 46.3081 30.2136 45.6043C29.2963 48.7525 28.745 51.9979 28.5716 55.2732C24.5607 56.1162 20.5735 57.0786 16.6154 58.1593L15.4407 58.4806C12.5431 59.2971 9.65413 60.1657 6.8348 61.0864C6.77699 61.1089 6.73156 61.155 6.70995 61.2131C6.68834 61.2711 6.69261 61.3356 6.72168 61.3904L10.2806 67.6007C10.3573 67.7441 10.5271 67.8104 10.6809 67.7571C16.6684 65.8641 22.7345 64.2566 28.8586 62.9377C29.292 66.3105 30.1346 69.6598 31.3993 72.9126C26.4746 73.8812 21.584 75.0296 16.7373 76.356C16.6737 76.3771 16.6221 76.4242 16.5955 76.4856C16.5689 76.5469 16.5698 76.6167 16.5981 76.6774L19.7828 83.1136C19.8452 83.2434 19.9922 83.3095 20.1309 83.2699C25.0134 81.9711 29.9407 80.8589 34.9022 79.9351ZM43.3896 78.5433C44.3424 79.797 45.3863 80.9942 46.5184 82.1249C48.6011 84.2051 50.9097 85.9876 53.3807 87.4545C53.2218 87.1814 53.0649 86.9041 52.9099 86.6227C51.426 83.9565 50.1739 80.9922 49.168 77.8091C47.2381 78.0257 45.3118 78.2705 43.3896 78.5433ZM39.2506 71.525C41.9412 71.1028 44.6402 70.7339 47.3462 70.4183C46.7333 67.0679 46.361 63.5675 46.2424 59.9889C42.9863 60.3946 39.7408 60.8803 36.5088 61.4455C36.9119 64.924 37.8368 68.3228 39.2506 71.525ZM36.4705 53.7723C39.7607 53.213 43.0644 52.7332 46.3786 52.3333C46.6073 49.042 47.0544 45.8346 47.7071 42.7673C44.7781 43.1093 41.8573 43.5163 38.947 43.988C38.2304 45.6948 37.6611 47.4631 37.247 49.2737C36.8875 50.7662 36.6296 52.2687 36.4705 53.7723ZM43.9584 35.6548C45.9439 35.3942 47.9334 35.1623 49.9262 34.9591C50.7831 32.6013 51.7803 30.3809 52.9099 28.3323C53.0619 28.0565 53.2159 27.7847 53.3716 27.5169C49.801 29.6278 46.6044 32.374 43.9584 35.6548ZM89.1954 87.3848C89.2595 87.3452 89.3234 87.3054 89.3871 87.2654C93.2063 84.9307 96.4769 81.9284 99.0856 78.4607C97.1852 78.1983 95.2815 77.9631 93.375 77.755C92.3681 80.9442 91.1171 83.9169 89.6395 86.5966C89.4932 86.8631 89.3452 87.1259 89.1954 87.3848ZM103.175 71.4596C104.563 68.2845 105.483 64.8926 105.877 61.3871C105.551 61.3303 105.22 61.2735 104.885 61.2167L102.361 60.93C101.178 60.7389 99.9335 60.5565 98.4195 60.3481C97.6637 60.2425 96.9605 60.1485 96.3031 60.0645C96.1796 63.6077 95.805 67.0715 95.1948 70.3886C97.8607 70.6943 100.521 71.0514 103.175 71.4596ZM88.7979 59.2628C88.7033 62.8667 88.3257 66.3627 87.6829 69.664C82.2651 69.2398 76.8307 69.0266 71.3922 69.0252C67.1893 69.0252 62.9429 69.1468 58.7574 69.4074C57.4568 69.4864 56.1572 69.5776 54.8589 69.6811C54.2078 66.3497 53.8256 62.8249 53.7327 59.1987C59.4482 58.7043 65.1891 58.4555 70.9397 58.4546C76.902 58.4615 82.8606 58.7312 88.7979 59.2628ZM59.4883 82.9747C58.4935 81.1695 57.6178 79.1989 56.8687 77.0954C57.6487 77.0384 58.4291 76.9859 59.2099 76.938C63.2475 76.6948 67.346 76.5645 71.3922 76.5645C76.1603 76.5622 80.9252 76.7289 85.6779 77.064C84.922 79.1814 84.0359 81.1624 83.0262 82.9747C79.6935 89.02 75.508 92.3553 71.2529 92.3553C66.9978 92.3553 62.8211 89.0547 59.4883 82.9747Z" fill="#0D59F2"/>
<path fill-rule="evenodd" clip-rule="evenodd" d="M208.709 45.9078C209.597 46.8736 210.853 47.4171 212.165 47.4031C213.494 47.4118 214.74 46.7576 215.488 45.6586V47.2038H218.537V32.5334H215.488V37.8832C214.687 36.8631 213.462 36.2686 212.165 36.2716C210.848 36.256 209.586 36.7994 208.693 37.7669C207.695 38.8809 207.179 40.344 207.255 41.8374C207.177 43.3339 207.7 44.7998 208.709 45.9078ZM212.942 44.8197C212.229 44.8197 211.55 44.5142 211.077 43.9806C210.56 43.3949 210.287 42.6343 210.313 41.854C210.282 41.0653 210.555 40.2949 211.077 39.7025C211.548 39.1654 212.231 38.8619 212.946 38.8717C213.658 38.8609 214.339 39.1649 214.807 39.7025C215.321 40.2919 215.592 41.0555 215.563 41.8374C215.591 42.6218 215.321 43.3877 214.807 43.9806C214.334 44.5142 213.655 44.8197 212.942 44.8197ZM143.797 46.0075C142.298 47.5357 140.231 48.3721 138.09 48.3169C135.963 48.3836 133.902 47.5655 132.4 46.0574C130.904 44.6016 130.085 42.5866 130.141 40.4999V40.4584C130.1 38.372 130.927 36.3623 132.425 34.9092C133.931 33.3928 135.996 32.5661 138.132 32.6248C140.259 32.5641 142.317 33.3813 143.822 34.8843C145.304 36.3393 146.122 38.3404 146.082 40.4169C146.131 42.5171 145.303 44.5429 143.797 46.0075ZM134.876 43.8394C135.709 44.7499 136.898 45.2531 138.132 45.2183C139.357 45.2635 140.54 44.7649 141.363 43.856C142.204 42.9561 142.66 41.764 142.634 40.5331V40.4584C142.663 39.209 142.201 37.9982 141.347 37.0857C140.514 36.1721 139.326 35.6657 138.09 35.6984C136.864 35.662 135.682 36.159 134.851 37.0608C134.018 37.9647 133.566 39.1548 133.588 40.3836C133.539 41.6611 134.003 42.9053 134.876 43.8394ZM209.174 78.48C206.485 81.1241 202.835 82.5605 199.065 82.4591C195.314 82.5649 191.68 81.144 188.996 78.5216C186.361 76.0137 184.899 72.5145 184.967 68.877V68.8022C184.901 65.1447 186.379 61.6284 189.038 59.1161C191.734 56.4732 195.39 55.0424 199.164 55.1537C202.913 55.059 206.54 56.4888 209.216 59.1161C211.859 61.6083 213.336 65.095 213.286 68.7275V68.8022C213.34 72.4633 211.847 75.9771 209.174 78.48ZM194.321 73.8114C195.57 75.1322 197.305 75.8841 199.122 75.8919C200.94 75.8998 202.681 75.1629 203.941 73.8529C205.192 72.4993 205.865 70.7112 205.818 68.8687V68.7939C205.849 66.9482 205.164 65.1622 203.908 63.8096C202.675 62.4405 200.906 61.6788 199.065 61.7245C197.249 61.6687 195.501 62.4164 194.288 63.7681C193.048 65.1275 192.382 66.9132 192.427 68.7524V68.8271C192.395 70.6701 193.073 72.4548 194.321 73.8114ZM143.673 82.4591C139.895 82.581 136.222 81.2044 133.455 78.6296C130.755 76.1179 129.271 72.5628 129.385 68.877V68.8022C129.315 65.1523 130.776 61.6398 133.414 59.1161C136.102 56.4824 139.744 55.0525 143.507 55.1536C147.408 55.0698 151.202 56.4341 154.156 58.9832L149.895 64.1004C148.153 62.5305 145.901 61.6451 143.557 61.6083C141.733 61.575 139.987 62.3433 138.78 63.71C137.495 65.1053 136.806 66.9477 136.861 68.8438V68.9185C136.792 70.8638 137.518 72.7533 138.871 74.152C140.217 75.5182 142.072 76.2593 143.988 76.1956C145.466 76.2536 146.928 75.8751 148.192 75.1073V71.9174H143V66.5925H155.07V78.4053C151.879 81.0779 147.835 82.5164 143.673 82.4591ZM162.09 78.9535V55.6936H169.358V75.5559H182.077V81.9275H165.105C164.309 81.9386 163.542 81.6302 162.975 81.0712C162.409 80.5123 162.09 79.7495 162.09 78.9535ZM218.753 81.9275V55.677H232.218C235.417 55.677 237.809 56.4662 239.379 58.0445C240.495 59.1664 241.096 60.7 241.041 62.2811V62.3559C241.041 65.0806 239.689 67.019 236.987 68.1709C238.469 68.5847 239.81 69.3946 240.866 70.5135C241.802 71.6571 242.279 73.1081 242.204 74.584V74.6587C242.276 76.7568 241.29 78.7511 239.578 79.967C237.828 81.2518 235.389 81.8942 232.26 81.8942L218.753 81.9275ZM225.847 66.1439H230.416C232.72 66.1439 233.871 65.3797 233.871 63.8512V63.7764C233.871 62.2811 232.767 61.5335 230.549 61.5335H225.822L225.847 66.1439ZM231.471 76.1125H225.847V71.2777H231.396C233.772 71.2777 234.96 72.0642 234.96 73.637V73.7117C234.992 74.4287 234.641 75.1086 234.038 75.4978C233.26 75.948 232.368 76.1616 231.471 76.1125ZM245.036 81.9275L256.209 55.4942H263.229L274.402 81.9275H266.601L264.691 77.2423H254.564L252.687 81.9275H245.036ZM256.666 71.5768H262.556L259.632 64.1004L256.666 71.5768ZM278.256 78.9535V55.6936H285.558V75.5559H298.268V81.9275H281.23C279.588 81.9275 278.256 80.596 278.256 78.9535ZM148.607 35.7233V50.6346H151.864V45.7002C152.724 46.8003 154.048 47.4362 155.444 47.4198C156.847 47.4378 158.191 46.8578 159.141 45.8248C160.217 44.6264 160.768 43.0464 160.669 41.4386C160.754 39.8464 160.201 38.286 159.132 37.1023C158.178 36.0828 156.84 35.5102 155.444 35.524C154.014 35.5041 152.669 36.203 151.864 37.3848V35.7233H148.607ZM154.622 44.6535C153.864 44.6637 153.14 44.3383 152.644 43.7646C152.077 43.1326 151.779 42.3039 151.814 41.4553C151.785 40.6175 152.083 39.8014 152.644 39.1791C153.142 38.6097 153.866 38.2902 154.622 38.3069C155.386 38.2961 156.116 38.6247 156.615 39.204C157.18 39.8244 157.478 40.6419 157.446 41.4802C157.483 42.3242 157.184 43.1484 156.615 43.7729C156.112 44.3452 155.383 44.6672 154.622 44.6535ZM168.428 47.4862C166.825 47.5398 165.269 46.9402 164.117 45.8248C162.992 44.6949 162.39 43.1475 162.455 41.5549V41.5051C162.418 39.9364 162.996 38.4155 164.067 37.2684C165.104 36.122 166.592 35.4875 168.137 35.5323C169.729 35.4313 171.273 36.0983 172.291 37.3266C173.269 38.5945 173.777 40.1622 173.728 41.7626V42.5933H165.687C165.803 43.2432 166.144 43.8314 166.65 44.2547C167.181 44.6528 167.832 44.8553 168.494 44.8279C169.541 44.8161 170.541 44.3922 171.277 43.6483L173.138 45.3097C172.008 46.7483 170.256 47.5576 168.428 47.4862ZM165.645 40.558H170.546C170.483 39.8973 170.209 39.2742 169.765 38.7803C169.333 38.3299 168.728 38.0878 168.104 38.1157C167.483 38.093 166.881 38.3309 166.443 38.772C165.995 39.2682 165.716 39.8934 165.645 40.558ZM176.054 47.2038V35.7233H179.31V37.3847C180.064 36.2579 181.32 35.5695 182.675 35.5406C183.752 35.4786 184.802 35.8915 185.549 36.6703C186.274 37.5477 186.641 38.6658 186.579 39.8021V47.2785H183.323V40.8405C183.364 40.2188 183.181 39.603 182.808 39.1043C182.435 38.6948 181.898 38.475 181.346 38.5062C180.786 38.4791 180.243 38.6976 179.859 39.1043C179.463 39.5932 179.268 40.2133 179.31 40.8405V47.2453L176.054 47.2038ZM194.521 33.1398V47.2037H205.229V44.4541H197.594V41.4967H204.24V38.7471H197.594V35.8562H205.129V33.1398H194.521ZM222.474 46.3398C223.17 47.0747 224.155 47.4641 225.166 47.4031C226.435 47.3712 227.611 46.7275 228.322 45.6752V47.2286H231.379V36.4294H228.322V42.4437C228.369 43.043 228.185 43.6376 227.807 44.1052C227.446 44.4859 226.936 44.6893 226.412 44.6617C225.894 44.6935 225.39 44.4888 225.041 44.1052C224.687 43.6267 224.516 43.0373 224.559 42.4437V36.4294H221.51V43.4074C221.443 44.4723 221.788 45.5224 222.474 46.3398ZM239.47 47.4862C237.982 47.5132 236.547 46.9369 235.49 45.8884C234.434 44.84 233.847 43.4087 233.863 41.9205V41.8374C233.915 39.4953 235.38 37.418 237.57 36.5843C239.759 35.7505 242.235 36.3266 243.832 38.041L241.946 40.0514C241.336 39.3234 240.444 38.8911 239.495 38.8634C238.778 38.8418 238.091 39.1475 237.626 39.6941C237.129 40.267 236.863 41.0043 236.879 41.7626C236.851 42.5393 237.122 43.297 237.635 43.8809C238.135 44.4417 238.861 44.747 239.612 44.7116C240.561 44.6728 241.457 44.2608 242.104 43.5653L243.89 45.3762C243.353 45.9738 242.715 46.4716 242.004 46.8466C241.221 47.2543 240.353 47.4734 239.47 47.4862ZM249.198 47.4031C248.247 47.4478 247.311 47.1534 246.556 46.5724C245.844 45.9742 245.453 45.0761 245.501 44.1468C245.436 43.1445 245.879 42.1765 246.681 41.5715C247.62 40.964 248.729 40.6729 249.846 40.7408C250.742 40.7424 251.632 40.8912 252.479 41.1811V40.9984C252.479 39.6858 251.707 39.0296 250.162 39.0296C249.144 39.0508 248.138 39.2475 247.188 39.6111L246.424 37.2851C247.736 36.7248 249.15 36.442 250.577 36.4544C251.892 36.3005 253.213 36.6839 254.241 37.5177C255.081 38.4579 255.504 39.6991 255.412 40.9568V47.2038H252.454V46.0408C251.626 46.9565 250.432 47.4558 249.198 47.4031ZM250.12 45.2931C250.743 45.3224 251.357 45.1345 251.856 44.7615C252.279 44.4407 252.523 43.9377 252.513 43.4074V42.8592C251.902 42.5854 251.238 42.4493 250.569 42.4604C250.024 42.4305 249.484 42.5636 249.015 42.8425C248.648 43.0874 248.437 43.5069 248.459 43.9474C248.445 44.3216 248.615 44.6788 248.916 44.9027C249.263 45.1631 249.686 45.3004 250.12 45.2931ZM261.858 47.3865C261.022 47.4393 260.195 47.1787 259.54 46.6555C258.928 45.9772 258.626 45.0736 258.71 44.1633V39.0461H257.422V36.4294H258.71V33.6798H261.767V36.4294H264.3V39.0461H261.767V43.6483C261.767 44.3461 262.091 44.695 262.747 44.695C263.275 44.6947 263.794 44.5634 264.259 44.3129V46.7635C263.53 47.1853 262.7 47.4007 261.858 47.3865ZM267.283 35.2498V32.5334H270.498V35.2498H267.283ZM267.366 47.2038V36.4045H270.414V47.2038H267.366ZM274.526 45.8248C276.877 47.9788 280.483 47.9788 282.834 45.8248C283.932 44.7804 284.536 43.3192 284.495 41.8041C284.52 40.3139 283.917 38.882 282.834 37.8583C280.487 35.6963 276.874 35.6963 274.526 37.8583C273.436 38.891 272.833 40.3361 272.865 41.8374V41.8789C272.838 43.3695 273.442 44.8023 274.526 45.8248ZM280.707 43.9889C280.185 44.5489 279.445 44.8524 278.68 44.8196L278.705 44.8113C277.917 44.8384 277.159 44.5124 276.637 43.9224C276.096 43.357 275.798 42.6028 275.806 41.8207C275.783 41.0534 276.057 40.3068 276.57 39.7356C277.105 39.1866 277.839 38.8768 278.605 38.8768C279.372 38.8768 280.106 39.1866 280.641 39.7356C281.179 40.302 281.477 41.0556 281.471 41.8373V41.8955C281.492 42.6651 281.219 43.4138 280.707 43.9889ZM286.738 36.4045V47.2038H289.795V41.1977C289.742 40.5978 289.927 40.001 290.31 39.5363C290.67 39.1525 291.18 38.946 291.706 38.9714C292.223 38.9368 292.727 39.1457 293.068 39.5363C293.429 40.0114 293.6 40.6034 293.55 41.1977V47.2038H296.607V40.2341C296.666 39.1676 296.322 38.1179 295.643 37.2934C294.943 36.5642 293.961 36.176 292.952 36.2301C291.683 36.2648 290.508 36.9078 289.795 37.958V36.4045H286.738Z" fill="#1A1A1A"/>
</svg>
