<svg width="207" height="64" viewBox="0 0 207 64" fill="none" xmlns="http://www.w3.org/2000/svg">
<path fill-rule="evenodd" clip-rule="evenodd" d="M136.315 18.4931V18.5267C136.315 20.0463 137.328 21.0539 138.528 21.0539C139.728 21.0539 140.725 20.0463 140.725 18.5267V18.4931C140.725 16.9743 139.728 15.9667 138.528 15.9667C137.328 15.9667 136.315 16.9571 136.315 18.4931ZM143.26 21.8895C143.26 22.6071 142.685 23.1871 141.976 23.1871C141.266 23.1871 140.691 22.6071 140.691 21.8895V21.7707C140.066 22.6235 139.205 23.2551 137.869 23.2551C135.757 23.2551 133.745 21.5823 133.745 18.5267V18.4931C133.745 15.4375 135.723 13.7647 137.869 13.7647C139.238 13.7647 140.083 14.3963 140.691 15.1303V11.8183C140.691 11.1023 141.266 10.5215 141.976 10.5215C142.685 10.5215 143.26 11.1023 143.26 11.8183V21.8895ZM81.8693 17.1451V17.1107C81.8693 15.0619 80.3811 13.3547 78.2854 13.3547C76.1906 13.3547 74.7364 15.0275 74.7364 17.0763V17.1107C74.7364 19.1587 76.2238 20.8659 78.3195 20.8659C80.4151 20.8659 81.8693 19.1923 81.8693 17.1451ZM72.0161 17.1451V17.1107C72.0161 13.7143 74.6689 10.9307 78.3193 10.9307C81.9696 10.9307 84.5892 13.6799 84.5892 17.0763V17.1107C84.5892 20.5071 81.9356 23.2899 78.2852 23.2899C74.6349 23.2899 72.0161 20.5415 72.0161 17.1451ZM93.4132 18.5267V18.4931C93.4132 16.9735 92.3995 15.9667 91.2 15.9667C89.9997 15.9667 89.003 16.9735 89.003 18.4931V18.5267C89.003 20.0455 89.9997 21.0539 91.2 21.0539C92.3995 21.0539 93.4132 20.0635 93.4132 18.5267ZM86.4685 15.1303C86.4685 14.4135 87.0427 13.8335 87.7523 13.8335C88.4627 13.8335 89.0361 14.4135 89.0361 15.1303V15.2491C89.6622 14.3963 90.5235 13.7647 91.8592 13.7647C93.9711 13.7647 95.9824 15.4375 95.9824 18.4931V18.5267C95.9824 21.5823 94.0052 23.2551 91.8592 23.2551C90.4903 23.2551 89.6452 22.6235 89.0361 21.8895V24.6216C89.0361 25.3384 88.4627 25.9183 87.7523 25.9183C87.0427 25.9183 86.4685 25.3384 86.4685 24.6216V15.1303ZM101.748 15.8475C102.829 15.8475 103.505 16.6323 103.657 17.7931H99.7866C99.9902 16.6151 100.682 15.8475 101.748 15.8475ZM97.2684 18.5607C97.2684 21.3607 99.2805 23.2899 102.001 23.2899C103.319 23.2899 104.349 22.8631 105.144 22.1799C105.33 22.0095 105.482 21.7539 105.482 21.4123C105.482 20.8315 105.059 20.3883 104.485 20.3883C104.214 20.3883 104.045 20.4563 103.859 20.5923C103.336 20.9847 102.744 21.2075 102.034 21.2075C100.886 21.2075 100.074 20.5923 99.8207 19.4143H104.907C105.583 19.4143 106.107 18.9195 106.107 18.1691C106.107 16.2743 104.772 13.7643 101.748 13.7643C99.111 13.7643 97.2684 15.9147 97.2684 18.5271V18.5607ZM107.9 15.1299C107.9 14.4139 108.475 13.8331 109.185 13.8331C109.895 13.8331 110.47 14.4139 110.47 15.1299V15.2331C111.06 14.4647 111.822 13.7643 113.122 13.7643C115.066 13.7643 116.198 15.0619 116.198 17.1607V21.8899C116.198 22.6075 115.623 23.1875 114.914 23.1875C114.204 23.1875 113.629 22.6075 113.629 21.8899V17.9799C113.629 16.7511 113.054 16.1203 112.075 16.1203C111.094 16.1203 110.47 16.7511 110.47 17.9799V21.8899C110.47 22.6075 109.895 23.1875 109.185 23.1875C108.475 23.1875 107.9 22.6075 107.9 21.8899V15.1299ZM123.434 12.4499V21.7708C123.434 22.5048 124.008 23.0848 124.735 23.0848H131.377C132.019 23.0848 132.542 22.5728 132.542 21.9239C132.542 21.276 132.019 20.7459 131.377 20.7459H126.019V18.2375H130.532C131.174 18.2375 131.697 17.7255 131.697 17.0767C131.697 16.4279 131.174 15.8987 130.532 15.8987H126.019V13.4739H131.292C131.934 13.4739 132.459 12.9619 132.459 12.3139C132.459 11.6651 131.934 11.1367 131.292 11.1367H124.735C124.008 11.1367 123.434 11.7167 123.434 12.4499ZM152.336 23.1875C153.047 23.1875 153.622 22.6075 153.622 21.8899V15.1299C153.622 14.4139 153.047 13.8331 152.336 13.8331C151.627 13.8331 151.053 14.4139 151.053 15.1299V19.0399C151.053 20.2687 150.427 20.9003 149.448 20.9003C148.467 20.9003 147.893 20.2687 147.893 19.0399V15.1299C147.893 14.4139 147.318 13.8331 146.608 13.8331C145.899 13.8331 145.324 14.4139 145.324 15.1299V19.8591C145.324 21.9579 146.456 23.2555 148.4 23.2555C149.701 23.2555 150.461 22.5559 151.053 21.7883V21.8899C151.053 22.6075 151.627 23.1875 152.336 23.1875ZM155.314 18.5611V18.5267C155.314 15.9151 157.291 13.7647 160.062 13.7647C161.432 13.7647 162.394 14.1407 163.155 14.7895C163.325 14.9263 163.561 15.2335 163.561 15.6767C163.561 16.3255 163.037 16.8375 162.394 16.8375C162.056 16.8375 161.803 16.7007 161.651 16.5811C161.195 16.2231 160.722 16.0011 160.046 16.0011C158.761 16.0011 157.849 17.1447 157.849 18.4931V18.5267C157.849 19.9267 158.743 21.0539 160.147 21.0539C160.823 21.0539 161.347 20.8147 161.837 20.4223C161.973 20.3191 162.226 20.1823 162.529 20.1823C163.138 20.1823 163.611 20.6787 163.611 21.2923C163.611 21.6339 163.459 21.9075 163.24 22.1123C162.48 22.8111 161.515 23.2895 160.029 23.2895C157.308 23.2895 155.314 21.1727 155.314 18.5611ZM170.593 19.3983V19.8587C170.593 20.7975 169.781 21.4635 168.582 21.4635C167.754 21.4635 167.179 21.0539 167.179 20.3535V20.3191C167.179 19.5007 167.855 19.0567 168.954 19.0567C169.578 19.0567 170.153 19.1927 170.593 19.3983ZM164.695 20.4223V20.4559C164.695 22.2655 166.098 23.2551 167.805 23.2551C169.055 23.2551 169.917 22.7947 170.542 22.0943V22.1123C170.542 22.6579 171.033 23.1871 171.775 23.1871C172.469 23.1871 173.026 22.6407 173.026 21.9411V17.7763C173.026 16.5475 172.722 15.5399 172.046 14.8575C171.404 14.2087 170.389 13.8335 168.988 13.8335C167.788 13.8335 166.909 14.0039 166.098 14.3111C165.691 14.4643 165.405 14.8575 165.405 15.3179C165.405 15.9151 165.878 16.3763 166.469 16.3763C166.587 16.3763 166.69 16.3591 166.841 16.3083C167.331 16.1551 167.906 16.0527 168.616 16.0527C169.9 16.0527 170.559 16.6491 170.559 17.7255V17.8787C169.917 17.6567 169.258 17.5027 168.346 17.5027C166.198 17.5027 164.695 18.4243 164.695 20.4223ZM175.411 20.4907V16.1547H175.326C174.718 16.1547 174.228 15.6599 174.228 15.0455C174.228 14.4303 174.718 13.9355 175.326 13.9355H175.411V12.7919C175.411 12.0751 175.986 11.4943 176.695 11.4943C177.406 11.4943 177.98 12.0751 177.98 12.7919V13.9355H179.112C179.72 13.9355 180.211 14.4303 180.211 15.0455C180.211 15.6599 179.72 16.1547 179.112 16.1547H177.98V20.0639C177.98 20.6611 178.233 20.9511 178.807 20.9511C178.856 20.9511 178.93 20.9459 178.995 20.9414C179.045 20.9379 179.09 20.9347 179.112 20.9347C179.686 20.9347 180.177 21.4123 180.177 22.0095C180.177 22.4699 179.873 22.8459 179.518 22.9827C179.044 23.1703 178.605 23.2383 178.047 23.2383C176.475 23.2383 175.411 22.6076 175.411 20.4907ZM183.236 13.8331C182.527 13.8331 181.952 14.4139 181.952 15.1299V21.8899C181.952 22.6075 182.527 23.1875 183.236 23.1875C183.947 23.1875 184.522 22.6075 184.522 21.8899V15.1299C184.522 14.4139 183.947 13.8331 183.236 13.8331ZM183.236 10.5391C182.425 10.5391 181.801 10.9987 181.801 11.7499V11.7843C181.801 12.5355 182.425 13.0139 183.236 13.0139C184.048 13.0139 184.673 12.5355 184.673 11.7843V11.7499C184.673 10.9987 184.048 10.5391 183.236 10.5391ZM193.597 18.5611V18.5267C193.597 17.1791 192.635 16.0011 191.215 16.0011C189.744 16.0011 188.865 17.1447 188.865 18.4931V18.5267C188.865 19.8759 189.829 21.054 191.249 21.054C192.719 21.054 193.597 19.9095 193.597 18.5611ZM186.33 18.5611V18.5267C186.33 15.8987 188.426 13.7647 191.249 13.7647C194.053 13.7647 196.132 15.8643 196.132 18.4931V18.5267C196.132 21.1563 194.037 23.2895 191.214 23.2895C188.409 23.2895 186.33 21.1899 186.33 18.5611ZM199.475 13.8331C198.766 13.8331 198.191 14.4139 198.191 15.1299V21.8899C198.191 22.6075 198.766 23.1875 199.475 23.1875C200.183 23.1875 200.758 22.6075 200.758 21.8899V17.9799C200.758 16.7511 201.384 16.1203 202.364 16.1203C203.344 16.1203 203.918 16.7511 203.918 17.9799V21.8899C203.918 22.6075 204.493 23.1875 205.203 23.1875C205.913 23.1875 206.488 22.6075 206.488 21.8899V17.1607C206.488 15.0619 205.355 13.7643 203.411 13.7643C202.11 13.7643 201.35 14.4647 200.758 15.2331V15.1299C200.758 14.4139 200.183 13.8331 199.475 13.8331Z" fill="#333333"/>
<path fill-rule="evenodd" clip-rule="evenodd" d="M72.0204 33.501C72.0204 33.7779 72.1121 34.1162 72.2037 34.3939L78.1752 51.3202C78.6018 52.5203 79.485 53.2592 80.6123 53.2592H81.1005C82.2262 53.2592 83.0802 52.5506 83.5068 51.3202L87.711 38.979L91.9161 51.3202C92.3427 52.5506 93.1959 53.2592 94.3224 53.2592H94.8106C95.9379 53.2592 96.8211 52.5203 97.2477 51.3202L103.219 34.3939C103.311 34.1162 103.402 33.7467 103.402 33.4707C103.402 32.178 102.366 31.1933 101.086 31.1933C99.9289 31.1933 99.1365 31.9617 98.8316 32.8849L94.5973 46.088L90.3314 33.0086C89.9656 31.8699 89.1433 31.1318 87.9551 31.1318H87.5894C86.4012 31.1318 85.5781 31.9002 85.2123 33.0086L80.9472 46.088L76.7129 32.8849C76.408 31.9002 75.524 31.1933 74.4267 31.1933C73.1177 31.1933 72.0204 32.178 72.0204 33.501ZM108.533 33.7465V50.5499C108.533 51.8737 109.568 52.9207 110.88 52.9207H122.853C124.011 52.9207 124.956 51.9974 124.956 50.8276C124.956 49.6578 124.011 48.7034 122.853 48.7034H113.195V44.1806H121.329C122.487 44.1806 123.432 43.2574 123.432 42.0876C123.432 40.9178 122.487 39.9634 121.329 39.9634H113.195V35.5938H122.701C123.858 35.5938 124.803 34.6705 124.803 33.5007C124.803 32.3317 123.858 31.3782 122.701 31.3782H110.88C109.568 31.3782 108.533 32.4243 108.533 33.7465ZM130.478 50.5499V33.7465C130.478 32.4243 131.513 31.3782 132.825 31.3782H144.646C145.803 31.3782 146.748 32.3317 146.748 33.5007C146.748 34.6705 145.803 35.5938 144.646 35.5938H135.14V39.9634H143.274C144.433 39.9634 145.377 40.9178 145.377 42.0876C145.377 43.2574 144.433 44.1806 143.274 44.1806H135.14V48.7034H144.798C145.956 48.7034 146.9 49.6578 146.9 50.8276C146.9 51.9974 145.956 52.9207 144.798 52.9207H132.825C131.513 52.9207 130.478 51.8737 130.478 50.5499ZM154.769 31.1927C153.459 31.1927 152.423 32.2396 152.423 33.5626V50.7347C152.423 52.0585 153.459 53.1047 154.769 53.1047C156.08 53.1047 157.115 52.0585 157.115 50.7347V46.4265L159.797 43.9026L165.89 51.9668C166.407 52.6434 166.956 53.1047 167.871 53.1047C169.241 53.1047 170.247 52.12 170.247 50.7961C170.247 50.0892 169.972 49.596 169.607 49.1348L163.055 40.8248L169.058 35.1625C169.577 34.671 169.911 34.1164 169.911 33.3775C169.911 32.2085 169.058 31.1927 167.749 31.1927C166.925 31.1927 166.346 31.5318 165.768 32.1159L157.115 40.7945V33.5626C157.115 32.2396 156.08 31.1927 154.769 31.1927Z" fill="#333333"/>
<rect x="1.27985" y="1.28003" width="61.44" height="61.44" rx="1.7" fill="white" fill-opacity="0.01"/>
<mask id="mask0_1806_4378" style="mask-type:luminance" maskUnits="userSpaceOnUse" x="1" y="1" width="62" height="62">
<rect x="1.27985" y="1.28003" width="61.44" height="61.44" rx="1.7" fill="white"/>
</mask>
<g mask="url(#mask0_1806_4378)">
<rect x="1.27985" y="1.28003" width="61.44" height="61.44" rx="1.7" fill="#F2F2F2"/>
<rect x="1.27985" y="52.48" width="61.44" height="10.24" fill="#664BDA"/>
<path fill-rule="evenodd" clip-rule="evenodd" d="M9.23943 46.7475C14.6294 55.4481 24.5165 60.5172 34.9088 59.6412C49.1402 58.4464 60.0807 46.5632 60.0771 32.3043V30.9176C60.0753 30.8536 60.0284 30.7997 59.9651 30.789L59.922 30.7828C59.8744 30.7427 59.8167 30.7135 59.7522 30.6996L57.8033 30.4088L55.2383 29.9447H55.2047C54.6446 29.8497 54.0846 29.7602 53.5245 29.6763L52.0572 29.4694C49.6603 29.1172 47.2801 28.8264 44.9727 28.6139H44.8943L43.8358 28.5245L43.3766 28.4853C39.7083 28.189 36.0008 28.0324 32.3494 28.0324C29.7788 28.0324 27.1914 28.1107 24.6432 28.2561C23.5984 28.3186 22.5547 28.3933 21.5122 28.4803C21.704 26.3345 22.058 24.268 22.5619 22.3297C23.339 22.2702 24.1167 22.2178 24.8951 22.1725C27.3592 22.0272 29.8682 21.9545 32.3548 21.9545C33.4749 21.9545 36.3535 22.0104 37.8768 22.0439C38.1295 22.0482 38.3435 21.8588 38.3697 21.6078L38.8401 17.4589C38.8464 17.4111 38.8325 17.3628 38.8017 17.3257C38.7708 17.2885 38.7259 17.2659 38.6777 17.2632C36.5719 17.1626 34.4494 17.1122 32.3548 17.1122C29.7786 17.1122 27.1688 17.1905 24.6094 17.3359C24.5129 17.3416 24.4163 17.3474 24.3198 17.3533C24.5581 16.8383 24.8098 16.34 25.0744 15.8598C27.0263 12.3184 29.428 10.2263 31.9082 9.8783C31.9983 9.87558 32.0885 9.87339 32.1788 9.87173C39.8547 9.73134 47.0724 13.5087 51.3236 19.8912C51.3651 19.9582 51.432 20.0056 51.5091 20.0224C51.5861 20.0393 51.6667 20.0242 51.7325 19.9807L55.4511 17.5819C55.585 17.4939 55.6246 17.3157 55.5407 17.1793C53.0995 13.506 49.8116 10.4707 45.9528 8.32799C35.2278 2.38147 21.8541 4.25245 13.1792 12.913C11.2582 14.8298 9.66777 16.9806 8.42215 19.2854C4.75946 19.9553 1.12412 20.7784 -2.4742 21.7532C-2.49739 21.759 -2.51664 21.7752 -2.52645 21.7969C-2.53627 21.8187 -2.53559 21.8438 -2.52461 21.865L-0.379644 26.1257C-0.358036 26.1659 -0.312079 26.1865 -0.267636 26.1761C1.8829 25.6098 4.04682 25.1 6.2219 24.647C5.6315 26.6736 5.27667 28.7628 5.16509 30.8713C2.58358 31.4141 0.0173731 32.0336 -2.53007 32.7293L-3.28613 32.9362C-5.15107 33.4618 -7.01041 34.0209 -8.82495 34.6136C-8.86216 34.6281 -8.89139 34.6578 -8.9053 34.6952C-8.91921 34.7326 -8.91646 34.7741 -8.89775 34.8093L-6.60718 38.8072C-6.55784 38.8995 -6.44854 38.9422 -6.34956 38.9079C-2.49593 37.6893 1.40826 36.6545 5.34975 35.8054C5.62874 37.9767 6.17103 40.1327 6.98497 42.2267C3.8154 42.8503 0.667756 43.5896 -2.45159 44.4435C-2.49253 44.457 -2.52572 44.4873 -2.54284 44.5269C-2.55995 44.5664 -2.55936 44.6113 -2.5412 44.6504L-0.491446 48.7937C-0.451329 48.8772 -0.35669 48.9198 -0.267428 48.8943C2.87496 48.0582 6.04623 47.3422 9.23943 46.7475ZM14.702 45.8515C15.3152 46.6586 15.9871 47.4293 16.7157 48.1572C18.0561 49.4963 19.5419 50.6438 21.1323 51.5881C21.03 51.4123 20.929 51.2338 20.8293 51.0526C19.8742 49.3363 19.0683 47.428 18.421 45.3789C17.1789 45.5184 15.9391 45.6759 14.702 45.8515ZM12.0381 41.3335C13.7698 41.0617 15.5069 40.8242 17.2484 40.6211C16.854 38.4642 16.6144 36.2108 16.538 33.9071C14.4424 34.1683 12.3536 34.4809 10.2735 34.8448C10.5329 37.0841 11.1282 39.2721 12.0381 41.3335ZM10.2488 29.9051C12.3664 29.5451 14.4927 29.2362 16.6257 28.9788C16.7729 26.86 17.0606 24.7952 17.4807 22.8207C15.5956 23.0408 13.7158 23.3028 11.8428 23.6065C11.3816 24.7053 11.0151 25.8436 10.7486 27.0092C10.5173 27.97 10.3512 28.9373 10.2488 29.9051ZM15.0682 18.242C16.346 18.0742 17.6264 17.9249 18.909 17.7941C19.4605 16.2763 20.1023 14.8469 20.8293 13.5281C20.9271 13.3506 21.0261 13.1757 21.1264 13.0033C18.8284 14.3622 16.7711 16.13 15.0682 18.242ZM44.1828 51.5434C44.2241 51.5179 44.2652 51.4922 44.3063 51.4664C46.7643 49.9634 48.8693 48.0307 50.5483 45.7984C49.3252 45.6294 48.0999 45.478 46.8728 45.3441C46.2248 47.3971 45.4196 49.3108 44.4687 51.0359C44.3745 51.2074 44.2792 51.3766 44.1828 51.5434ZM53.1801 41.2914C54.0739 39.2474 54.666 37.0639 54.9191 34.8072C54.7094 34.7707 54.4965 34.7341 54.2806 34.6975L52.6565 34.513C51.8948 34.39 51.094 34.2725 50.1195 34.1383C49.6331 34.0704 49.1805 34.0099 48.7574 33.9558C48.6779 36.2367 48.4368 38.4665 48.0441 40.6019C49.7599 40.7987 51.4723 41.0286 53.1801 41.2914ZM43.927 33.4397C43.8661 35.7597 43.6231 38.0102 43.2094 40.1355C39.7225 39.8624 36.2249 39.7251 32.7247 39.7242C30.0197 39.7242 27.2867 39.8025 24.5928 39.9703C23.7557 40.0211 22.9193 40.0798 22.0837 40.1465C21.6646 38.0019 21.4186 35.7328 21.3589 33.3984C25.0374 33.0802 28.7323 32.92 32.4334 32.9194C36.2708 32.9238 40.1057 33.0975 43.927 33.4397ZM25.0632 48.7042C24.4229 47.5422 23.8593 46.2736 23.3772 44.9195C23.8792 44.8827 24.3815 44.8489 24.8841 44.8181C27.4827 44.6615 30.1205 44.5777 32.7247 44.5777C35.7934 44.5762 38.8601 44.6835 41.9189 44.8992C41.4325 46.2623 40.8622 47.5375 40.2123 48.7042C38.0674 52.5959 35.3736 54.743 32.635 54.743C29.8964 54.743 27.2082 52.6183 25.0632 48.7042Z" fill="#0D59F2"/>
</g>
</svg>
